<?xml version="1.0" encoding="UTF-8"?>
<!DOCTYPE svg PUBLIC "-//W3C//DTD SVG 1.1//EN" "http://www.w3.org/Graphics/SVG/1.1/DTD/svg11.dtd">
<svg xmlns="http://www.w3.org/2000/svg" version="1.1" width="556px" height="381px" style="shape-rendering:geometricPrecision; text-rendering:geometricPrecision; image-rendering:optimizeQuality; fill-rule:evenodd; clip-rule:evenodd" xmlns:xlink="http://www.w3.org/1999/xlink">
<g><path style="opacity:0.964" fill="#93c11e" d="M 489.5,-0.5 C 490.5,-0.5 491.5,-0.5 492.5,-0.5C 501.719,0.183112 510.386,3.01645 518.5,8C 519.574,8.73869 520.241,9.73869 520.5,11C 506.881,34.4024 493.381,57.9024 480,81.5C 479.107,82.7112 478.274,82.7112 477.5,81.5C 470.754,68.3407 463.754,55.3407 456.5,42.5C 438.167,76.5 419.833,110.5 401.5,144.5C 400.833,145.833 400.167,145.833 399.5,144.5C 396.833,140.167 394.167,135.833 391.5,131.5C 390.833,130.167 390.167,130.167 389.5,131.5C 370.5,162.833 351.5,194.167 332.5,225.5C 331.5,205.511 331.167,185.511 331.5,165.5C 357.481,164.354 374.314,151.354 382,126.5C 386.501,97.9984 375.668,77.8318 349.5,66C 343.659,64.0491 337.659,63.2158 331.5,63.5C 331.5,43.1667 331.5,22.8333 331.5,2.5C 374.03,4.00661 406.53,22.6733 429,58.5C 435.92,46.9962 442.586,35.3295 449,23.5C 458.654,8.92589 472.154,0.925891 489.5,-0.5 Z"/></g>
<g><path style="opacity:0.978" fill="#48398e" d="M 29.5,2.5 C 56.1366,2.72736 75.3032,14.7274 87,38.5C 88.7405,43.0544 90.0739,47.7211 91,52.5C 91.1674,64.5139 91.6674,76.5139 92.5,88.5C 98.774,86.4418 103.941,82.7751 108,77.5C 131.684,23.0671 173.184,-1.43294 232.5,4C 277.872,13.3713 307.372,40.2047 321,84.5C 328.081,113.933 324.414,141.933 310,168.5C 309.223,170.215 307.89,171.215 306,171.5C 294.99,170.338 285.823,165.671 278.5,157.5C 271.684,163.741 263.684,167.574 254.5,169C 246.5,169.333 238.5,169.667 230.5,170C 251.185,180.671 273.185,186.338 296.5,187C 287.985,196.189 278.318,203.856 267.5,210C 245.429,210.3 229.095,200.8 218.5,181.5C 215.053,186.12 211.386,190.62 207.5,195C 204.211,197.478 200.544,199.144 196.5,200C 189.833,200.667 183.167,200.667 176.5,200C 163.537,197.407 150.537,195.074 137.5,193C 132.126,188.228 127.46,182.895 123.5,177C 129.155,175.062 134.988,173.896 141,173.5C 152.919,175.384 164.753,177.717 176.5,180.5C 186.62,182.152 196.62,181.652 206.5,179C 190.536,179.356 178.869,172.522 171.5,158.5C 168.049,163.397 163.382,166.564 157.5,168C 145.356,169.609 133.356,171.609 121.5,174C 110.49,156.809 104.323,137.975 103,117.5C 101.883,115.876 100.383,114.876 98.5,114.5C 96.2383,115.467 93.905,116.134 91.5,116.5C 91.6667,151.835 91.5,187.168 91,222.5C 69.9089,223.494 48.7422,223.827 27.5,223.5C 27.3333,150.833 27.5,78.1659 28,5.5C 28.5133,4.47344 29.0133,3.47344 29.5,2.5 Z M 205.5,62.5 C 228.169,60.2533 245.669,68.5866 258,87.5C 270.954,115.857 264.787,139.024 239.5,157C 211.151,169.956 187.985,163.789 170,138.5C 157.593,111.859 162.759,89.3589 185.5,71C 191.888,67.2674 198.555,64.4341 205.5,62.5 Z"/></g>
<g><path style="opacity:0.933" fill="#93c11e" d="M 528.5,14.5 C 533.134,15.9028 537.301,18.2361 541,21.5C 541.79,24.634 541.457,27.634 540,30.5C 505.586,90.3305 470.919,149.997 436,209.5C 428.513,219.82 419.013,227.653 407.5,233C 406.5,233.667 405.5,233.667 404.5,233C 446.225,160.383 487.558,87.5496 528.5,14.5 Z"/></g>
<g><path style="opacity:0.914" fill="#93c11e" d="M 454.5,63.5 C 455.496,63.4142 456.329,63.7476 457,64.5C 459.632,69.9586 462.465,75.292 465.5,80.5C 459.865,94.4345 453.698,108.101 447,121.5C 445.5,119.167 444,116.833 442.5,114.5C 437.167,117.833 431.833,121.167 426.5,124.5C 426.167,124.167 425.833,123.833 425.5,123.5C 435.178,103.478 444.845,83.4781 454.5,63.5 Z"/></g>
<g><path style="opacity:0.907" fill="#48398e" d="M 209.5,201.5 C 215.738,204.619 222.071,207.786 228.5,211C 234.696,212.973 241.029,214.306 247.5,215C 217.298,226.826 187.298,226.16 157.5,213C 152.126,210.319 147.126,207.152 142.5,203.5C 150.717,204.827 159.05,206.994 167.5,210C 183.214,214.891 197.214,212.058 209.5,201.5 Z"/></g>
<g><path style="opacity:0.862" fill="#48398e" d="M 282.5,262.5 C 283.552,262.351 284.552,262.517 285.5,263C 290.088,268.621 295.755,269.954 302.5,267C 304.833,265.5 307.167,264 309.5,262.5C 311.833,264.167 313.833,266.167 315.5,268.5C 303.542,279.964 291.375,280.297 279,269.5C 278.626,268.584 278.126,267.75 277.5,267C 279.24,265.483 280.906,263.983 282.5,262.5 Z"/></g>
<g><path style="opacity:0.926" fill="#48398e" d="M 0.5,279.5 C 3.5,279.5 6.5,279.5 9.5,279.5C 9.5,290.5 9.5,301.5 9.5,312.5C 12.1667,312.5 14.8333,312.5 17.5,312.5C 20.2673,292.733 31.6006,281.733 51.5,279.5C 68.7708,280.938 79.9375,289.938 85,306.5C 89.7377,327.659 82.571,343.159 63.5,353C 38.0597,358.08 22.3931,347.913 16.5,322.5C 14.2573,321.526 11.924,321.192 9.5,321.5C 9.5,332.5 9.5,343.5 9.5,354.5C 6.5,354.5 3.5,354.5 0.5,354.5C 0.5,329.5 0.5,304.5 0.5,279.5 Z M 46.5,290.5 C 64.6511,290.313 74.6511,299.313 76.5,317.5C 74.8245,335.351 65.1579,344.184 47.5,344C 37.0089,341.509 30.5089,335.009 28,324.5C 25.6128,308.26 31.7795,296.927 46.5,290.5 Z"/></g>
<g><path style="opacity:0.971" fill="#48398e" d="M 159.5,279.5 C 162.5,279.5 165.5,279.5 168.5,279.5C 168.5,286.833 168.5,294.167 168.5,301.5C 176.167,301.5 183.833,301.5 191.5,301.5C 191.5,294.5 191.5,287.5 191.5,280.5C 194.5,280.5 197.5,280.5 200.5,280.5C 200.5,305.167 200.5,329.833 200.5,354.5C 197.5,354.5 194.5,354.5 191.5,354.5C 191.5,339.833 191.5,325.167 191.5,310.5C 183.833,310.5 176.167,310.5 168.5,310.5C 168.5,325.167 168.5,339.833 168.5,354.5C 165.5,354.5 162.5,354.5 159.5,354.5C 159.5,329.5 159.5,304.5 159.5,279.5 Z"/></g>
<g><path style="opacity:0.919" fill="#48398e" d="M 96.5,280.5 C 98.9099,280.921 100.743,282.254 102,284.5C 107.667,292.5 113.333,300.5 119,308.5C 119.5,299.173 119.666,289.839 119.5,280.5C 122.5,280.5 125.5,280.5 128.5,280.5C 128.334,289.839 128.5,299.173 129,308.5C 135.5,299.333 142,290.167 148.5,281C 149.5,280.333 150.5,280.333 151.5,281C 153.208,283.043 155.208,284.71 157.5,286C 150.411,296.178 143.078,306.178 135.5,316C 142.637,327.302 149.97,338.469 157.5,349.5C 154.956,353.115 151.623,354.448 147.5,353.5C 141.333,343.833 135.167,334.167 129,324.5C 128.5,334.494 128.334,344.494 128.5,354.5C 125.5,354.5 122.5,354.5 119.5,354.5C 119.666,344.494 119.5,334.494 119,324.5C 112.5,334.333 106,344.167 99.5,354C 95.7466,354.123 92.7466,352.623 90.5,349.5C 97.8817,338.569 104.882,327.403 111.5,316C 104.383,306.272 97.3828,296.438 90.5,286.5C 92.215,284.118 94.215,282.118 96.5,280.5 Z"/></g>
<g><path style="opacity:0.937" fill="#48398e" d="M 207.5,280.5 C 210.5,280.5 213.5,280.5 216.5,280.5C 216.168,289.525 216.502,298.525 217.5,307.5C 229.97,302.326 240.804,304.66 250,314.5C 254.28,321.563 255.613,329.23 254,337.5C 248.056,351.481 237.39,357.481 222,355.5C 217.171,355.042 212.338,354.709 207.5,354.5C 207.5,329.833 207.5,305.167 207.5,280.5 Z M 225.5,315.5 C 238.308,314.131 244.808,319.798 245,332.5C 244.004,338.159 240.838,341.993 235.5,344C 229.258,345.37 222.925,345.87 216.5,345.5C 216.334,337.826 216.5,330.159 217,322.5C 219.416,319.577 222.25,317.243 225.5,315.5 Z"/></g>
<g><path style="opacity:0.973" fill="#48398e" d="M 258.5,280.5 C 261.5,280.5 264.5,280.5 267.5,280.5C 267.5,305.167 267.5,329.833 267.5,354.5C 264.5,354.5 261.5,354.5 258.5,354.5C 258.5,329.833 258.5,305.167 258.5,280.5 Z"/></g>
<g><path style="opacity:0.937" fill="#48398e" d="M 273.5,280.5 C 276.5,280.5 279.5,280.5 282.5,280.5C 282.333,297.837 282.5,315.17 283,332.5C 291.5,315.5 300,298.5 308.5,281.5C 311.768,280.513 315.102,280.18 318.5,280.5C 318.825,297.744 318.492,314.91 317.5,332C 320.98,335.839 320.98,339.506 317.5,343C 318.46,346.73 318.793,350.563 318.5,354.5C 315.5,354.5 312.5,354.5 309.5,354.5C 309.207,350.563 309.54,346.73 310.5,343C 307.648,340.847 307.148,338.347 309,335.5C 309.667,324.5 309.667,313.5 309,302.5C 300.5,319.5 292,336.5 283.5,353.5C 280.232,354.487 276.898,354.82 273.5,354.5C 273.5,329.833 273.5,305.167 273.5,280.5 Z"/></g>
<g><path style="opacity:0.932" fill="#48398e" d="M 363.5,280.5 C 366.5,280.5 369.5,280.5 372.5,280.5C 372.196,290.878 372.696,301.211 374,311.5C 378.495,321.333 385.662,323.833 395.5,319C 398.667,315.845 400.501,312.012 401,307.5C 401.5,298.506 401.666,289.506 401.5,280.5C 404.5,280.5 407.5,280.5 410.5,280.5C 410.952,300.887 410.452,321.221 409,341.5C 402.964,353.93 393.131,358.43 379.5,355C 371.441,353.14 367.441,348.306 367.5,340.5C 369.429,339.62 371.263,338.62 373,337.5C 375.461,339.961 377.961,342.461 380.5,345C 395.085,348.249 401.752,342.416 400.5,327.5C 393.791,330.383 386.791,331.216 379.5,330C 370.673,326.56 365.507,320.06 364,310.5C 363.5,300.506 363.334,290.506 363.5,280.5 Z"/></g>
<g><path style="opacity:0.945" fill="#48398e" d="M 417.5,280.5 C 425.253,280.104 432.92,280.604 440.5,282C 455.398,291.789 458.565,304.623 450,320.5C 443.907,327.922 436.074,330.922 426.5,329.5C 426.5,337.833 426.5,346.167 426.5,354.5C 423.5,354.5 420.5,354.5 417.5,354.5C 417.5,329.833 417.5,305.167 417.5,280.5 Z M 427.5,289.5 C 437.783,289.794 443.783,294.961 445.5,305C 443.611,315.507 437.444,320.34 427,319.5C 426.193,309.423 426.36,299.423 427.5,289.5 Z"/></g>
<g><path style="opacity:0.908" fill="#48398e" d="M 485.5,327.5 C 484.87,332.429 482.87,336.763 479.5,340.5C 476.768,337.384 474.268,334.051 472,330.5C 470.333,338.167 468.667,345.833 467,353.5C 463.943,354.451 460.777,354.784 457.5,354.5C 462.01,330.119 466.843,305.785 472,281.5C 476.737,280.531 481.57,280.197 486.5,280.5C 491.646,305.064 496.979,329.564 502.5,354C 498.848,354.499 495.182,354.665 491.5,354.5C 489.991,345.273 487.991,336.273 485.5,327.5 Z M 485.5,327.5 C 483.26,324.024 481.26,320.357 479.5,316.5C 476.806,320.554 474.639,324.888 473,329.5C 474.502,318.474 476.502,307.474 479,296.5C 481.997,306.651 484.164,316.985 485.5,327.5 Z"/></g>
<g><path style="opacity:0.917" fill="#48398e" d="M 521.5,280.5 C 526.167,280.5 530.833,280.5 535.5,280.5C 540.646,305.064 545.979,329.564 551.5,354C 547.848,354.499 544.182,354.665 540.5,354.5C 536.779,335.063 532.613,315.729 528,296.5C 524.128,315.528 520.128,334.528 516,353.5C 512.943,354.451 509.777,354.784 506.5,354.5C 510.992,329.704 515.992,305.037 521.5,280.5 Z"/></g>
<g><path style="opacity:0.835" fill="#48398e" d="M 386.5,287.5 C 389.719,291.435 392.052,295.935 393.5,301C 392.116,304.876 390.116,308.376 387.5,311.5C 385.004,308.159 382.671,304.659 380.5,301C 382.793,296.618 384.793,292.118 386.5,287.5 Z"/></g>
<g><path style="opacity:0.875" fill="#48398e" d="M 51.5,299.5 C 54.9968,305.16 57.9968,311.16 60.5,317.5C 57.9179,322.333 55.0845,327 52,331.5C 48.3077,327.148 45.4744,322.315 43.5,317C 45.7633,310.974 48.43,305.141 51.5,299.5 Z"/></g>
</svg>
