<?xml version="1.0" encoding="UTF-8"?>
<!DOCTYPE svg PUBLIC "-//W3C//DTD SVG 1.1//EN" "http://www.w3.org/Graphics/SVG/1.1/DTD/svg11.dtd">
<svg xmlns="http://www.w3.org/2000/svg" version="1.1" width="1040px" height="1016px" style="shape-rendering:geometricPrecision; text-rendering:geometricPrecision; image-rendering:optimizeQuality; fill-rule:evenodd; clip-rule:evenodd" xmlns:xlink="http://www.w3.org/1999/xlink">
<g><path style="opacity:1" fill="#47398e" d="M -0.5,-0.5 C 169.833,-0.5 340.167,-0.5 510.5,-0.5C 510.667,23.5023 510.5,47.5023 510,71.5C 504.378,131.925 477.544,180.425 429.5,217C 405.36,233.167 379.026,244.5 350.5,251C 403.837,251.673 457.17,251.506 510.5,250.5C 511.501,276.849 511.335,303.182 510,329.5C 504.283,383.102 481.449,427.935 441.5,464C 410.425,489.371 374.758,504.037 334.5,508C 307.185,509.305 279.851,510.139 252.5,510.5C 253.41,456.502 253.577,402.502 253,348.5C 238.169,414.307 200.669,462.14 140.5,492C 101.988,507.478 61.9883,513.311 20.5,509.5C 13.8333,509.5 7.16667,509.5 0.5,509.5C 0.784479,507.585 0.451145,505.919 -0.5,504.5C -0.5,336.167 -0.5,167.833 -0.5,-0.5 Z M 251.5,40.5 C 252.499,110.331 252.833,180.331 252.5,250.5C 249.5,250.5 246.5,250.5 243.5,250.5C 178.833,249.833 114.167,249.167 49.5,248.5C 148.103,226.108 212.937,166.774 244,70.5C 247.131,60.6436 249.631,50.6436 251.5,40.5 Z"/></g>
<g><path style="opacity:0.251" fill="#3b4697" d="M 1038.5,-0.5 C 1038.83,-0.5 1039.17,-0.5 1039.5,-0.5C 1039.5,168.167 1039.5,336.833 1039.5,505.5C 1027.17,505.5 1014.83,505.5 1002.5,505.5C 1014.32,504.505 1026.32,504.172 1038.5,504.5C 1038.5,336.167 1038.5,167.833 1038.5,-0.5 Z"/></g>
<g><path style="opacity:0.993" fill="#92bf20" d="M 654.5,11.5 C 729.332,10.3344 804.332,10.1678 879.5,11C 839.43,47.185 798.43,82.185 756.5,116C 743.779,125.721 730.779,135.054 717.5,144C 710.199,148.735 702.366,152.235 694,154.5C 690.167,154.667 688.333,152.833 688.5,149C 694.921,132.737 700.755,116.237 706,99.5C 710.947,75.0178 704.947,53.6845 688,35.5C 677.95,25.8961 666.783,17.8961 654.5,11.5 Z"/></g>
<g><path style="opacity:1" fill="#f7f7f9" d="M 62.5,33.5 C 92.1448,35.9753 112.645,50.9753 124,78.5C 127.889,89.1583 127.223,99.4917 122,109.5C 110.753,120.184 97.9197,122.35 83.5,116C 62.9053,106.412 49.072,90.9121 42,69.5C 37.8371,50.7902 44.6705,38.7902 62.5,33.5 Z"/></g>
<g><path style="opacity:1" fill="#020202" d="M 66.5,44.5 C 88.8305,45.6594 104.497,56.4927 113.5,77C 119.3,101.199 109.967,111.199 85.5,107C 64.5528,98.4076 53.3861,82.9076 52,60.5C 53.227,51.7778 58.0603,46.4445 66.5,44.5 Z"/></g>
<g><path style="opacity:0.996" fill="#92bf20" d="M 1020.5,137.5 C 1021.83,174.661 1022.5,212.161 1022.5,250C 1022.17,287.5 1021.83,325 1021.5,362.5C 1012.22,343.719 998.882,328.552 981.5,317C 960.536,306.367 939.202,305.7 917.5,315C 906.158,319.922 894.658,324.422 883,328.5C 879.158,327.985 877.658,325.818 878.5,322C 878.594,318.643 879.427,315.477 881,312.5C 886.604,302.568 892.604,292.901 899,283.5C 913.092,264.985 927.425,246.652 942,228.5C 968.174,198.135 994.341,167.802 1020.5,137.5 Z"/></g>
<g><path style="opacity:0.502" fill="#394695" d="M 252.5,250.5 C 252.833,180.331 252.499,110.331 251.5,40.5C 251.231,38.5714 251.731,36.9047 253,35.5C 253.832,107.335 253.666,179.001 252.5,250.5 Z"/></g>
<g><path style="opacity:0.251" fill="#3a4696" d="M 49.5,248.5 C 114.167,249.167 178.833,249.833 243.5,250.5C 176.499,250.667 109.499,250.5 42.5,250C 44.74,249.023 47.0733,248.523 49.5,248.5 Z"/></g>
<g><path style="opacity:1" fill="#47398e" d="M 1002.5,505.5 C 1014.83,505.5 1027.17,505.5 1039.5,505.5C 1039.5,675.5 1039.5,845.5 1039.5,1015.5C 869.167,1015.5 698.833,1015.5 528.5,1015.5C 527.274,990.821 527.44,966.154 529,941.5C 534.746,882.489 560.913,834.989 607.5,799C 632.54,781.979 659.873,769.979 689.5,763C 635.858,763.469 582.191,763.636 528.5,763.5C 526.705,733.458 527.205,703.458 530,673.5C 538.498,623.657 561.665,582.157 599.5,549C 632.5,522.882 670.167,508.548 712.5,506C 737.157,504.981 761.824,504.481 786.5,504.5C 785.396,558.493 785.23,612.493 786,666.5C 809.112,572.384 868.612,518.884 964.5,506C 977.162,505.5 989.829,505.333 1002.5,505.5 Z M 794.5,764.5 C 859.172,764.328 923.839,764.828 988.5,766C 878.687,793.647 811.687,862.814 787.5,973.5C 786.501,904.002 786.167,834.335 786.5,764.5C 789.167,764.5 791.833,764.5 794.5,764.5 Z"/></g>
<g><path style="opacity:0.251" fill="#3e4696" d="M -0.5,504.5 C 0.451145,505.919 0.784479,507.585 0.5,509.5C 7.16667,509.5 13.8333,509.5 20.5,509.5C 14.021,510.491 7.3543,510.824 0.5,510.5C 0.831894,550.004 0.498561,589.337 -0.5,628.5C -0.5,587.167 -0.5,545.833 -0.5,504.5 Z"/></g>
<g><path style="opacity:0.997" fill="#92bf20" d="M 19.5,652.5 C 29.053,671.893 43.053,687.393 61.5,699C 81.1685,708.265 101.169,708.932 121.5,701C 132.167,696.667 142.833,692.333 153.5,688C 162.9,686.071 165.733,689.571 162,698.5C 152.576,716.577 141.576,733.577 129,749.5C 94.0894,793.282 57.7561,835.949 20,877.5C 19.5,802.501 19.3333,727.501 19.5,652.5 Z"/></g>
<g><path style="opacity:0.516" fill="#404697" d="M 794.5,764.5 C 791.833,764.5 789.167,764.5 786.5,764.5C 786.167,834.335 786.501,904.002 787.5,973.5C 787.477,975.927 786.977,978.26 786,980.5C 785.5,908.167 785.333,835.834 785.5,763.5C 788.713,763.19 791.713,763.523 794.5,764.5 Z"/></g>
<g><path style="opacity:0.992" fill="#92bf20" d="M 344.5,860.5 C 349.827,859.175 352.494,861.175 352.5,866.5C 349.033,877.729 344.867,888.729 340,899.5C 326.602,934.41 334.102,963.91 362.5,988C 370.325,994.082 378.658,999.415 387.5,1004C 312.498,1004.83 237.498,1004.67 162.5,1003.5C 201.765,968.397 241.765,934.23 282.5,901C 296.303,889.932 310.637,879.598 325.5,870C 331.647,866.26 337.98,863.093 344.5,860.5 Z"/></g>
<g><path style="opacity:1" fill="#f8f7f9" d="M 938.5,896.5 C 948.948,895.404 958.948,896.904 968.5,901C 987.174,910.671 999.674,925.504 1006,945.5C 1010.12,969.813 999.951,981.647 975.5,981C 947.455,973.956 929.622,956.456 922,928.5C 919.376,913.409 924.876,902.743 938.5,896.5 Z"/></g>
<g><path style="opacity:1" fill="#010101" d="M 947.5,906.5 C 968.646,907.329 983.813,917.329 993,936.5C 1001.59,961.894 992.756,972.728 966.5,969C 943.592,959.79 932.425,942.957 933,918.5C 935.976,912.005 940.809,908.005 947.5,906.5 Z"/></g>
</svg>
