<?xml version="1.0" encoding="UTF-8"?>
<!DOCTYPE svg PUBLIC "-//W3C//DTD SVG 1.1//EN" "http://www.w3.org/Graphics/SVG/1.1/DTD/svg11.dtd">
<svg xmlns="http://www.w3.org/2000/svg" version="1.1" width="198px" height="198px" style="shape-rendering:geometricPrecision; text-rendering:geometricPrecision; image-rendering:optimizeQuality; fill-rule:evenodd; clip-rule:evenodd" xmlns:xlink="http://www.w3.org/1999/xlink">
<g><path style="opacity:0.978" fill="#93c01e" d="M -0.5,77.5 C -0.5,73.5 -0.5,69.5 -0.5,65.5C 0.699136,62.4375 2.19914,59.4375 4,56.5C 10.3333,50.1667 16.6667,43.8333 23,37.5C 30.4997,45.1794 32.4997,54.1794 29,64.5C 27.6233,66.7538 26.1233,68.9205 24.5,71C 28,74.5 31.5,78 35,81.5C 50.0141,66.6528 64.8474,51.6528 79.5,36.5C 76.5,32.8333 73.1667,29.5 69.5,26.5C 58.3258,34.7436 47.4925,34.4103 37,25.5C 36.3333,24.8333 36.3333,24.1667 37,23.5C 43.1667,17.3333 49.3333,11.1667 55.5,5C 64.8512,-0.994556 74.1845,-0.994556 83.5,5C 88.0148,9.68193 92.6815,14.1819 97.5,18.5C 102.319,14.1819 106.985,9.68193 111.5,5C 120.815,-0.994556 130.149,-0.994556 139.5,5C 146.015,11.3478 152.348,17.8478 158.5,24.5C 148.199,34.3226 137.199,34.9893 125.5,26.5C 121.275,29.536 118.108,33.2027 116,37.5C 130.667,52.1667 145.333,66.8333 160,81.5C 163.5,78 167,74.5 170.5,71C 164.395,63.4085 162.895,54.9085 166,45.5C 167.23,42.2677 169.23,39.6011 172,37.5C 178.333,43.8333 184.667,50.1667 191,56.5C 196.538,65.6283 196.871,74.9617 192,84.5C 187.167,89.3333 182.333,94.1667 177.5,99C 182.7,103.865 187.533,109.032 192,114.5C 195.333,121.833 195.333,129.167 192,136.5C 185.325,144.849 177.825,152.016 169.5,158C 160.515,147.499 160.181,136.665 168.5,125.5C 165.85,122.349 163.016,119.349 160,116.5C 144.986,131.347 130.153,146.347 115.5,161.5C 118.15,164.651 120.984,167.651 124,170.5C 135.627,162.082 146.793,162.582 157.5,172C 150.833,178.667 144.167,185.333 137.5,192C 128.5,196.667 119.5,196.667 110.5,192C 106.318,187.651 101.985,183.485 97.5,179.5C 93.0149,183.485 88.6816,187.651 84.5,192C 75.5,196.667 66.5,196.667 57.5,192C 50.8333,185.333 44.1667,178.667 37.5,172C 48.2068,162.582 59.3734,162.082 71,170.5C 74.5856,167.616 77.2522,164.283 79,160.5C 64.3333,145.833 49.6667,131.167 35,116.5C 31.9838,119.349 29.1504,122.349 26.5,125.5C 34.8187,136.665 34.4853,147.499 25.5,158C 24.8333,158.667 24.1667,158.667 23.5,158C 17.3333,151.833 11.1667,145.667 5,139.5C -1,130.167 -1,120.833 5,111.5C 9.16667,107.333 13.3333,103.167 17.5,99C 10.1023,92.7893 4.10234,85.6227 -0.5,77.5 Z M 96.5,54.5 C 112.248,68.7453 127.581,83.5786 142.5,99C 127.653,114.014 112.653,128.847 97.5,143.5C 82.3472,128.847 67.3472,114.014 52.5,99C 67.3685,84.2985 82.0352,69.4652 96.5,54.5 Z"/></g>
<g><path style="opacity:0.955" fill="#93c01e" d="M 96.5,79.5 C 103.952,85.1175 110.619,91.6175 116.5,99C 110.696,105.971 104.363,112.471 97.5,118.5C 90.6811,112.181 84.0144,105.681 77.5,99C 84.036,92.6315 90.3694,86.1315 96.5,79.5 Z"/></g>
</svg>
