<svg id="Слой_1" data-name="Слой 1" xmlns="http://www.w3.org/2000/svg" viewBox="0 0 31.91 30.55"><defs><style>.cls-1{fill:#225ca8;}.cls-2{fill:#95c11f;}</style></defs><path class="cls-1" d="M20.62,14.46a0,0,0,0,0,0,0,2.8,2.8,0,0,0-.2-.32.35.35,0,0,0-.05-.08c-.23-.35-.48-.67-.68-1-.06-.1-.14-.2-.2-.31l-.42-.63c-.19-.27-.35-.55-.53-.82s-.48-.73-.73-1.1c-.1-.14-.18-.3-.29-.44s-.24-.35-.34-.53c-.42-.67-.88-1.3-1.29-2-.09-.13-.18-.26-.26-.39s-.26-.38-.38-.58-.39-.58-.57-.88-.47-.68-.68-1l-.34-.5c-.09-.15-.19-.29-.29-.44s-.32-.51-.49-.76-.5-.8-.8-1.16c-.23,0-.26.21-.37.32l-.39.59-.57.86-.11.17-.67,1c-.05.08-.1.17-.16.25-.15.23-.3.46-.46.68L8.86,6a2.13,2.13,0,0,1-.16.25c-.21.3-.4.61-.61.91l-.26.39c-.13.19-.23.4-.38.58s-.37.58-.57.86a.91.91,0,0,1-.11.16c-.2.32-.41.63-.62,1l-.2.3-.48.71L5,11.86a1.07,1.07,0,0,1-.15.22L4.26,13a1.15,1.15,0,0,1-.2.29c-.16.2-.26.44-.42.64s-.41.64-.62.95L3,14.93l-.66,1-.2.31-.44.66c-.16.24-.33.48-.48.72a1.32,1.32,0,0,1-.16.25l-.6.91a1.46,1.46,0,0,1-.21.28c-.11.08-.09.22-.16.32V31.92L.17,32c.32,0,.64,0,1,0s.64,0,1,0,.65,0,1,0,.64,0,1,0,.65,0,1,0,.64,0,1,0,.65,0,1,0,.64,0,1,0,.64,0,1,0h.45ZM3.05,18.63l9-13.7,5.76,8.71L14.14,14l-.78,5.45-4.45-5Z" transform="translate(-0.05 -1.45)"/><path class="cls-2" d="M31.48,19.73c-.11-.18-.23-.35-.35-.53l-.29-.43-.57-.86a2.13,2.13,0,0,1-.16-.25l-.52-.77-.44-.66-.2-.3c-.22-.34-.45-.66-.66-1l-.06-.08c-.2-.31-.41-.61-.61-.91s-.23-.35-.35-.53-.2-.28-.3-.43c-.2-.3-.41-.6-.61-.91l-.11-.16a5.85,5.85,0,0,0-.6-.81s-.07,0-.11,0L12.07,32h.69q.48,0,1,0c.33,0,.65,0,1,0s.64,0,1,0,.65,0,1,0,.64,0,1,0,.64,0,1,0,.64,0,1,0,.64,0,1,0,.64,0,1,0,.64,0,1,0,.65,0,1,0,.64,0,1,0,.65,0,1,0,.64,0,1,0,.65,0,1,0,.64,0,1,0,.65,0,1,0,.64,0,1,0,.65,0,1,0a2.13,2.13,0,0,0,.87-.07V20.53C31.84,20.24,31.63,20,31.48,19.73Zm-4.54,1.83-2.38,2.76-.68-4-2.75.95,4.51-6.84L32,24Z" transform="translate(-0.05 -1.45)"/></svg>