<svg id="Слой_1" data-name="Слой 1" xmlns="http://www.w3.org/2000/svg" viewBox="0 0 25.53 32"><defs><style>.cls-1{fill:#225ca8;}.cls-2{fill:#95c11f;}</style></defs><path class="cls-1" d="M9,1.69a.75.75,0,0,0,0,.17,8,8,0,0,1-1,2.74c-.14.22-.33.5-.63,1A4.7,4.7,0,0,0,7,6a9,9,0,0,0-.93,3.1,10.4,10.4,0,0,0,.11,2.67v-.15a12.56,12.56,0,0,0-1.41,3.08,13,13,0,0,0-.31,6.17,4.37,4.37,0,0,1,.91-1.67c.68-.79,1.15-.72,1.94-1.54a6.61,6.61,0,0,0,1.28-2c.53-1.22.29-1.47.71-2.25a3.84,3.84,0,0,1,2.53-2c1.79-.24,3.21,1.48,3.65,2a6,6,0,0,1,.68,1,4.3,4.3,0,0,1,5.61-2.68,4,4,0,0,1,2.47,3.49c0,.59-.31,1.07,0,1.65.11.23.29.45,1.13,1s1.31.72,1.6.92c.57.38,1.14,1.29,1,3.65a11.31,11.31,0,0,0,.72-3.2,12.37,12.37,0,0,0-2.13-7.7,7.7,7.7,0,0,0,0-2.86c-.28-1.5-.91-2.28-1.82-4.17A31.49,31.49,0,0,1,23.34,1,.78.78,0,0,0,22.86.6c-.44-.07-.93.58-2.27,3-.49.91-.89,1.68-1.18,2.26a23.62,23.62,0,0,0-3.1-.07,22.3,22.3,0,0,0-2.69.28l-1.86-4L9.93.64A1.87,1.87,0,0,0,9,1.69Z" transform="translate(-3.67)"/><path class="cls-1" d="M16.29,32a11.15,11.15,0,0,1-2.83-.36A12.42,12.42,0,0,1,7.1,27.33,13.59,13.59,0,0,1,4,21.5a13.83,13.83,0,0,1,1.77-10,8,8,0,0,1,.78-5.56,4,4,0,0,1,.23-.34A7,7,0,0,0,7.5,4.31a8.47,8.47,0,0,0,.39-1.18A6.08,6.08,0,0,1,9.49.25L9.74,0l.3.17a5.21,5.21,0,0,1,2.28,2.22,5.07,5.07,0,0,1,.31.83,7.93,7.93,0,0,0,.35,1,7.79,7.79,0,0,0,.87,1.47,11.33,11.33,0,0,1,2.46-.29,12,12,0,0,1,2.39.24l.51-.13a16.79,16.79,0,0,1,1.36-3C21.26,1.32,22,0,23.06.15a1.3,1.3,0,0,1,.87.59L24,.8l0,.07a34.28,34.28,0,0,0,1.25,3.31c.3.66.55,1.18.77,1.63a9.52,9.52,0,0,1,1,2.53,8.7,8.7,0,0,1,.07,3.26A13.51,13.51,0,0,1,29,21.27a13.47,13.47,0,0,1-3.44,6.41,12.55,12.55,0,0,1-4.64,3.41A12.25,12.25,0,0,1,16.29,32ZM9.91,1.17a4.77,4.77,0,0,0-.61.88,5.43,5.43,0,0,0-.5,1.32,8.92,8.92,0,0,1-.45,1.31,6.82,6.82,0,0,1-.82,1.41l-.21.31c-.75,1.15-1,2.86-.61,5.08l0,.17-.1.14a13,13,0,0,0-1.74,9.5,12.54,12.54,0,0,0,2.91,5.42,11.52,11.52,0,0,0,5.89,4,10.85,10.85,0,0,0,6.82-.51,11.65,11.65,0,0,0,4.3-3.17,12.71,12.71,0,0,0,3.22-6A12.53,12.53,0,0,0,26.17,12l-.1-.16,0-.18a8,8,0,0,0,0-3.08,9,9,0,0,0-.9-2.32c-.22-.46-.48-1-.78-1.66-.47-1.07-.9-2.19-1.27-3.33a.4.4,0,0,0-.21-.16c-.09,0-.31.1-.61.47A10,10,0,0,0,21.38,3,15.73,15.73,0,0,0,20,6l-.08.25-1.23.31-.1,0a9.85,9.85,0,0,0-2.29-.24,10.26,10.26,0,0,0-2.53.32l-.29.08-.19-.23a8.42,8.42,0,0,1-1.18-1.91,8.73,8.73,0,0,1-.39-1.06,4.54,4.54,0,0,0-.26-.7A4.05,4.05,0,0,0,9.91,1.17Z" transform="translate(-3.67)"/><path class="cls-1" d="M28.14,22.91a.42.42,0,0,1-.41-.33c-.68-3.15-1.53-4-2.12-4.17l-.11,0a2.2,2.2,0,0,1-1.52-1,1.77,1.77,0,0,1-.17-1.18,3.9,3.9,0,0,0-.88-3.07,3.56,3.56,0,0,0-2.58-1.29,3.78,3.78,0,0,0-3.67,3.68.41.41,0,0,1-.4.4.43.43,0,0,1-.44-.37,3.93,3.93,0,0,0-3.74-3.64A3.73,3.73,0,0,0,9,14.09a.43.43,0,0,1-.57.19.42.42,0,0,1-.18-.57,4.56,4.56,0,0,1,3.86-2.61,4.56,4.56,0,0,1,4.13,2.76A4.56,4.56,0,0,1,20.28,11h.09a4.38,4.38,0,0,1,3.2,1.59,4.74,4.74,0,0,1,1.08,3.74,1,1,0,0,0,.06.65,1.49,1.49,0,0,0,1,.55l.12,0c1.21.33,2.1,1.91,2.72,4.8a.42.42,0,0,1-.32.5Z" transform="translate(-3.67)"/><path class="cls-1" d="M4.39,21.55l-.15,0A.42.42,0,0,1,4,21,5.71,5.71,0,0,1,6.33,17.8l.17-.1a2.4,2.4,0,0,0,1-.77,2.42,2.42,0,0,0,.37-1.44.43.43,0,0,1,.41-.43.42.42,0,0,1,.43.42,3.18,3.18,0,0,1-.51,1.92,3.31,3.31,0,0,1-1.24,1l-.16.09a5,5,0,0,0-2,2.74A.42.42,0,0,1,4.39,21.55Z" transform="translate(-3.67)"/><circle class="cls-2" cx="8.57" cy="15.51" r="1.1"/><circle class="cls-2" cx="16.92" cy="15.51" r="1.1"/><path class="cls-2" d="M13.65,25.53a4.18,4.18,0,0,0,.09,2.84,4.25,4.25,0,0,0,2.54,2.33,3,3,0,0,0,1.31-.37c1.34-.76,2-2.63,1.72-4.73" transform="translate(-3.67)"/><path class="cls-2" d="M18.44,22.19a2.1,2.1,0,0,1-2.3,1.67A2,2,0,0,1,14.4,22.2,1.63,1.63,0,0,1,14.8,21a2.07,2.07,0,0,1,1.54-.47,2.07,2.07,0,0,1,1.55.29A1.58,1.58,0,0,1,18.44,22.19Z" transform="translate(-3.67)"/><path class="cls-1" d="M21.27,23.54a.4.4,0,0,1-.15,0,.42.42,0,0,1-.25-.54l.7-1.88a.44.44,0,0,1,.55-.24.42.42,0,0,1,.24.54l-.7,1.88A.41.41,0,0,1,21.27,23.54Z" transform="translate(-3.67)"/><path class="cls-1" d="M10.78,30.28a.42.42,0,0,1-.42-.42v-2a.43.43,0,0,1,.85,0v2A.42.42,0,0,1,10.78,30.28Z" transform="translate(-3.67)"/><path class="cls-1" d="M12.11,31.1a.42.42,0,0,1-.42-.42v-1.5a.42.42,0,1,1,.84,0v1.5A.42.42,0,0,1,12.11,31.1Z" transform="translate(-3.67)"/><path class="cls-1" d="M18.44,26.15a3.65,3.65,0,0,1-2.05-.69,3.7,3.7,0,0,1-2.55.58,3.39,3.39,0,0,1-1.36-.56c-1.84-1.23-1.87-4-1.86-4.51a.42.42,0,0,1,.43-.41.42.42,0,0,1,.41.43c0,.28,0,2.78,1.49,3.79a2.56,2.56,0,0,0,1,.43,3,3,0,0,0,2.17-.6l.27-.21.26.23a2.72,2.72,0,0,0,2.43.57,2.37,2.37,0,0,0,1.22-1,.42.42,0,0,1,.71.45A3.2,3.2,0,0,1,19.38,26,2.92,2.92,0,0,1,18.44,26.15Z" transform="translate(-3.67)"/><path class="cls-1" d="M16.41,27.63a.47.47,0,0,1-.47-.46V25a.47.47,0,1,1,.93,0v2.13A.47.47,0,0,1,16.41,27.63Z" transform="translate(-3.67)"/><path class="cls-2" d="M10.31,3.74a.7.7,0,0,0-.36.11.79.79,0,0,0-.29.47c-.11.39-.13.14-.65,1.26a9.18,9.18,0,0,0-.49,1.18,3.88,3.88,0,0,0-.08,1.49.31.31,0,0,0,.15.12c.21.06.45-.2.55-.29.7-.7,1.36-.5,2.15-1.39a1,1,0,0,0,.28-.45c.08-.32-.05-.62-.43-1.24C10.93,4.66,10.65,4.23,10.31,3.74Z" transform="translate(-3.67)"/><path class="cls-2" d="M22.51,3.74a.67.67,0,0,1,.35.11.79.79,0,0,1,.29.47c.11.39.14.14.65,1.26a9.18,9.18,0,0,1,.49,1.18,4,4,0,0,1,.09,1.49.3.3,0,0,1-.16.12c-.21.06-.45-.2-.55-.29-.7-.7-1.35-.5-2.14-1.39a1,1,0,0,1-.29-.45c-.08-.32.06-.62.44-1.24C21.89,4.66,22.16,4.23,22.51,3.74Z" transform="translate(-3.67)"/></svg>