<?xml version="1.0" encoding="utf-8"?>
<!-- Generator: Adobe Illustrator 26.0.1, SVG Export Plug-In . SVG Version: 6.00 Build 0)  -->
<svg version="1.1" id="Слой_1" xmlns="http://www.w3.org/2000/svg" xmlns:xlink="http://www.w3.org/1999/xlink" x="0px" y="0px"
	 viewBox="0 0 66 18.9" style="enable-background:new 0 0 66 18.9;" xml:space="preserve">
<style type="text/css">
	.st0{fill:#FFFFFF;}
</style>
<path class="st0" d="M0,16.4c1-0.9,8.6-7.5,14.7-11.3c2.6-1.6,4.6-2.6,6.1-3.2c2.2-1,3.3-1.4,4.5-1.6c2.4-0.3,4.1,0.9,7.5,2.9
	c2.1,1.2,5.2,3,9.2,5.1c0.5-0.5,1.3-1.1,2.3-1.6c0,0,1.3-0.7,2.7-1c3.6-0.8,11.7,5.4,11.7,5.4c2,1.5,4.5,3.6,7.3,6.4
	c-1.6-0.9-2.8-1.1-3.7-1.1c-0.4,0-2,0-2,0s-5.1,0.3-9.6,2.4c-0.5,0-0.7,0.1-0.6,0.1c3.5-2.1,4-3.3,3.9-4c-0.1-0.6-0.8-0.7-2.4-1.8
	c-1.1-0.8-2-1.5-2.5-2c0.2-0.7,0-1.1-0.1-1.4c-0.7-1.3-3-1.4-4.6-0.8c-1.2,0.4-1.9,1.2-2.1,1.5c-1.3,1.4-3.7,3.1-8.8,4.7
	c0-0.3-0.1-0.9-0.5-1.4c-0.7-0.8-1.8-0.9-2.2-0.9c-1.6,0-2.9,1-3.2,1.2c-1.4,1.1-4.4,2.4-11.3,3.3c3.9-1.1,6.8-2.6,8.6-3.8
	c2.8-1.8,3.3-2.8,3.2-3.5C28,8.6,25.7,7.7,26,6.2c0-0.2,0.2-0.5,0.4-1.1c0.6-1.3,0.9-1.5,0.8-1.9c-0.2-0.7-1.5-1.1-2.6-1.1
	c-1.7,0-3,0.8-3.3,1c-3.8,2.5-7.9,4.4-11.6,7C7.4,11.7,4.2,13.9,0,16.4z"/>
</svg>
