<svg id="Слой_1" data-name="Слой 1" xmlns="http://www.w3.org/2000/svg" viewBox="0 0 32 26.99"><defs><style>.cls-1{fill:#225ca8;}.cls-2{fill:#95c11f;}</style></defs><path class="cls-1" d="M6.76,10.61l4.14,4.07,3.48,12.94-7.22,1a4.85,4.85,0,0,0,.13-3c-.4-1.3-1.33-2-2.89-3.22-1.07-.86-2.59-2.12-4.4-3.75,1.46.25,2-.26,2.17-.39.93-.91.62-3.35-1.38-5.71l5.05.78Z" transform="translate(0 -1.61)"/><path class="cls-1" d="M18.93,6.63c-.55-.31-.72-.81-1.54-2.43C16.81,3.06,16.31,2.15,16,1.61c-.31.54-.81,1.45-1.39,2.59-.82,1.62-1,2.12-1.54,2.43-.3.17-1.28.6-3.28-.49L16,28.6,22.21,6.14C20.21,7.23,19.23,6.8,18.93,6.63Z" transform="translate(0 -1.61)"/><path class="cls-1" d="M25.24,10.61,21.1,14.68,17.62,27.62l7.22,1a4.85,4.85,0,0,1-.13-3c.4-1.3,1.33-2,2.89-3.22,1.07-.86,2.59-2.12,4.4-3.75-1.46.25-2-.26-2.17-.39-.93-.91-.62-3.35,1.38-5.71l-5.05.78Z" transform="translate(0 -1.61)"/><path class="cls-2" d="M12.82,13.06l1.56-1.86.67.62,3-4.14L19.66,10,16,24.59Z" transform="translate(0 -1.61)"/></svg>