<svg id="Слой_1" data-name="Слой 1" xmlns="http://www.w3.org/2000/svg" viewBox="0 0 30.93 32"><defs><style>.cls-1{fill:#95c11f;}.cls-2{fill:#225ca8;}</style></defs><path class="cls-1" d="M30.92,14.75,16.17,0l2.38,7.39a8.77,8.77,0,0,1-.16,1.15c-.41,2.06-1.17,2.51-1,3.71,0,.43.13.26.6,1.8.21.67.35,1.22.44,1.58a1.66,1.66,0,0,0,1.23.66c.3,0,.49-.15.76,0s.24.26.55.52a3.67,3.67,0,0,0,.57.36,4.28,4.28,0,0,1,.93.73,2.91,2.91,0,0,0-1.17-.16c-.24,0-.35.06-.66.11a6.51,6.51,0,0,1-1.2.08,2.64,2.64,0,0,1-1.88.79c-.16,1-.31,2.08-.47,3.11a1.39,1.39,0,0,1,.47.49,2,2,0,0,1,.11,1.07,2.63,2.63,0,0,0,.9,1.64c.48.59.37,2.25-2.11,6.87l14.5-14.5A1.86,1.86,0,0,0,30.92,14.75Z" transform="translate(-0.54)"/><path class="cls-2" d="M15.05,28.78A15.64,15.64,0,0,0,15.38,26a2.79,2.79,0,0,0-.29-1.45c-.23-.45-.46-.52-.71-.85-.58-.76-.4-1.53-.52-2.92a11.52,11.52,0,0,0-.49-2.46,2.57,2.57,0,0,0-1.23-.54c-.73-.1-1.17.21-1.72-.11-.09-.06-.43-.25-.41-.52s.22-.33.41-.44a13.91,13.91,0,0,1,3.06-.92l.68-1.37A3.12,3.12,0,0,1,13.83,13a3.21,3.21,0,0,1,.28-1.12c.5-1.44,0-1.74.38-3s1.06-1.25,1.14-2.24a2.84,2.84,0,0,0-.4-1.64c-.3-.52-.37-1.77.53-4.93L1,14.87a1.67,1.67,0,0,0,0,2.37L15.78,32A5.2,5.2,0,0,1,15.05,28.78Z" transform="translate(-0.54)"/></svg>