<?xml version="1.0" standalone="no"?>
<!DOCTYPE svg PUBLIC "-//W3C//DTD SVG 20010904//EN"
 "http://www.w3.org/TR/2001/REC-SVG-20010904/DTD/svg10.dtd">
<svg version="1.0" xmlns="http://www.w3.org/2000/svg"
 width="207.000000pt" height="198.000000pt" viewBox="0 0 207.000000 198.000000"
 preserveAspectRatio="xMidYMid meet">

<g transform="translate(0.000000,198.000000) scale(0.100000,-0.100000)"
fill="#48398e" stroke="none">
<path fill="#48398e" d="M682 1740 c4 -296 -1 -284 175 -462 70 -70 131 -128 135 -128 4 0 8
114 8 253 l0 252 -160 160 -161 160 3 -235z"/>
<path fill="#48398e" d="M1223 1818 l-153 -153 0 -260 0 -260 139 140 c178 180 172 165 169
463 l-3 222 -152 -152z"/>
<path fill="#48398e" d="M330 1615 l0 -85 90 0 90 0 0 85 0 85 -90 0 -90 0 0 -85z"/>
<path fill="#48398e" d="M1560 1615 l0 -85 85 0 85 0 0 85 0 85 -85 0 -85 0 0 -85z"/>
<path fill="#48398e" d="M165 1191 l160 -161 252 0 c139 0 253 4 253 9 0 4 -57 64 -127 132
-182 177 -171 173 -463 177 l-235 3 160 -160z"/>
<path fill="#48398e" d="M1585 1336 c-72 -23 -98 -43 -230 -175 l-130 -131 260 0 260 0 160
160 160 160 -220 -1 c-148 0 -233 -4 -260 -13z"/>
<path fill="#48398e" d="M967 1052 l-57 -58 63 -62 63 -62 59 60 59 60 -59 60 c-33 33 -62 60
-65 60 -3 0 -31 -26 -63 -58z"/>
<path fill="#48398e" d="M162 807 c-83 -84 -152 -156 -152 -161 0 -4 102 -6 228 -4 291 5 280
0 462 183 l135 135 -260 0 -260 0 -153 -153z"/>
<path fill="#48398e" d="M1365 821 c182 -179 167 -173 470 -178 l230 -4 -160 160 -160 161
-260 0 -260 0 140 -139z"/>
<path fill="#48398e" d="M863 707 c-182 -183 -177 -170 -181 -467 l-3 -235 161 160 160 160
-2 258 -3 258 -132 -134z"/>
<path fill="#48398e" d="M1070 575 l0 -260 155 -155 156 -155 -3 245 c-3 230 -4 247 -25 285
-12 22 -80 98 -152 170 l-131 130 0 -260z"/>
<path fill="#48398e" d="M337 474 c-4 -4 -7 -45 -7 -91 l0 -83 90 0 91 0 -3 88 -3 87 -80 3
c-45 1 -84 0 -88 -4z"/>
<path fill="#48398e" d="M1560 390 l0 -90 85 0 85 0 0 90 0 90 -85 0 -85 0 0 -90z"/>
</g>
</svg>
