<?xml version="1.0" encoding="utf-8"?><svg viewBox="0 0 1717.49 2000" xmlns="http://www.w3.org/2000/svg" xmlns:xlink="http://www.w3.org/1999/xlink"><style>:root>svg{display:none}:root>svg:target{display:block}</style><svg viewBox="0 0 946 284" id="logo" xmlns="http://www.w3.org/2000/svg"><path d="M890.5.5c3.631 1.108 6.631 3.274 9 6.5 4.848 2.789 9.848 3.122 15 1a46.958 46.958 0 0012-7.5c3 2.333 5.667 5 8 8-12.569 13.094-26.902 15.594-43 7.5a36.253 36.253 0 01-8-9.5c2.378-2.052 4.711-4.052 7-6zM512.5 24.5h12v43a25.87 25.87 0 0010-1c7.975-31.485 27.975-44.651 60-39.5 25.234 11.288 35.734 30.788 31.5 58.5-5.867 23.85-21.033 36.85-45.5 39-22.7-2.194-37.533-14.194-44.5-36a70.529 70.529 0 01-1.5-9h-10v44h-12v-99zm63 14c20.634-.202 33.134 9.798 37.5 30 1.948 21.358-7.219 35.191-27.5 41.5-21.532.481-34.032-10.019-37.5-31.5-.736-20.39 8.431-33.724 27.5-40zM725.5 24.5h12v28h31v-27h12v98h-12v-59h-31v59h-12v-99zM641.5 25.5c1.175-.219 2.175.114 3 1l26.5 37c.5-12.662.667-25.329.5-38h12c-.167 12.338 0 24.671.5 37L710.5 26c4.514.947 8.18 3.447 11 7.5a1676.757 1676.757 0 01-29 39.5 2889.761 2889.761 0 0128.5 42.5c.667 1 .667 2 0 3a84.635 84.635 0 00-7.5 4.5c-1.444.781-2.777.614-4-.5l-25.5-39c-.5 13.33-.667 26.663-.5 40h-12c.167-13.337 0-26.67-.5-40a2496.88 2496.88 0 00-26.5 39.5c-4.544-.435-8.544-2.268-12-5.5a1914.93 1914.93 0 0029-44.5 1596.943 1596.943 0 00-28-39.5c2.382-3.048 5.048-5.715 8-8zM789.5 25.5h12c-.167 12.338 0 24.671.5 37 17.192-8.295 32.192-5.295 45 9 10.875 20.447 6.709 36.947-12.5 49.5a41.451 41.451 0 01-14 3c-10.341.466-20.675.3-31-.5v-98zm29 45c12.958.791 20.291 7.625 22 20.5-.777 9.228-5.444 15.561-14 19a120.132 120.132 0 01-25 1.5c-.166-10.339 0-20.672.5-31 4.427-5.289 9.927-8.622 16.5-10zM857.5 25.5h12v98h-12v-98zM877.5 25.5h12c-.167 23.336 0 46.669.5 70l35.5-69a43.123 43.123 0 0113-1c.323 23.045-.01 46.045-1 69 3.893 4.741 3.893 9.408 0 14a61.234 61.234 0 011 15h-12a62.792 62.792 0 011-15.5c-3.805-4.286-3.805-8.62 0-13a880.435 880.435 0 01-1.5-41.5l-35.5 69a43.117 43.117 0 01-13 1v-98zm56 60h-2c.667-2.667 1.333-2.667 2 0zm-2 30h2c-.667 2.667-1.333 2.667-2 0zM417.5 29.5c13.306-1.508 25.306 1.659 36 9.5a2210.707 2210.707 0 01-39.5 66.5 983.696 983.696 0 00-20-37 6338.57 6338.57 0 00-50.5 94c-.667 1.333-1.333 1.333-2 0a168.789 168.789 0 00-8.5-13 5741.947 5741.947 0 01-53 87c-.5-18.33-.667-36.664-.5-55 28.677-2.677 44.343-18.343 47-47-1.063-21.294-11.397-36.127-31-44.5a45.19 45.19 0 00-16-2.5c-.333-18.679 0-37.345 1-56 38.234 1.95 67.568 18.95 88 51a1231.788 1231.788 0 0121.5-36c7.292-8.887 16.458-14.553 27.5-17zM-.5 234.5v-200c1.531-2.18 3.698-3.18 6.5-3 25.984 2.664 42.984 16.331 51 41a1034.915 1034.915 0 012.5 38c5.24-1.872 9.74-4.872 13.5-9C97.175 47.16 138.675 24.993 197.5 35c47.516 15.683 72.516 48.517 75 98.5.234 19.747-5.099 37.747-16 54-10.036-1.685-18.703-6.018-26-13-13.432 9.91-28.432 13.41-45 10.5 19.091 10.023 39.424 15.523 61 16.5-7.349 8.518-16.016 15.351-26 20.5-20.843.831-36.009-8.002-45.5-26.5-8.397 16.039-21.564 21.872-39.5 17.5a535.83 535.83 0 00-35-6 248.098 248.098 0 01-12-14.5 3.646 3.646 0 011-1.5 83.602 83.602 0 0124-1 196.715 196.715 0 0034.5 6.5 63.01 63.01 0 0015.5-2.5c-14.611-.047-25.111-6.547-31.5-19.5-3.178 5.009-7.678 8.176-13.5 9.5a284.875 284.875 0 00-31 5.5c-6.907-8.481-11.74-18.148-14.5-29a605.899 605.899 0 01-4.5-24 6.202 6.202 0 00-3.5-2 16.993 16.993 0 01-6.5 2c.167 32.335 0 64.668-.5 97a863.78 863.78 0 01-58.5 1zm166-148c27.231-.148 44.397 12.852 51.5 39 2.095 27.662-10.072 45.495-36.5 53.5-29.448 2.865-47.948-9.968-55.5-38.5-2.028-20.441 5.472-36.275 22.5-47.5 5.799-3.082 11.799-5.248 18-6.5zM460.5 42.5a55.094 55.094 0 0110.5 6c1.967 3.498 1.633 6.832-1 10a10245.74 10245.74 0 01-97 166c-7.08 8.857-15.746 15.524-26 20 2.06-5.795 4.727-11.461 8-17a2363107.96 2363107.96 0 01105.5-185z"/><path d="M580.5 50.5c4.565 7.302 8.232 15.136 11 23.5a99.263 99.263 0 01-10 18.5 107.104 107.104 0 01-12-18.5 744.06 744.06 0 0011-23.5zm-188 37a121.559 121.559 0 0110 15.5 881.858 881.858 0 01-17 37.5 29.804 29.804 0 01-4.5-6 322.585 322.585 0 00-14.5 9c7.449-18.917 16.116-37.583 26-56zM590.5 150.5c11.364-.854 22.364.646 33 4.5 17.292 13.04 20.792 29.207 10.5 48.5-8.148 9.99-18.648 14.323-31.5 13v33h-12v-99zm13 13c17.599.755 25.099 9.755 22.5 27-4.692 10.259-12.526 14.592-23.5 13a411.206 411.206 0 011-40zM518.5 151.5h12a302.475 302.475 0 001.5 41c6.416 13.36 16.249 16.527 29.5 9.5 4.841-5.186 7.341-11.353 7.5-18.5.5-10.661.667-21.328.5-32h12c.453 25.377-.047 50.71-1.5 76-6.251 19.218-19.418 26.718-39.5 22.5-8.86-2.86-15.193-8.527-19-17 2.792-2.902 6.125-5.069 10-6.5 7.283 12.156 17.283 14.989 30 8.5 5.969-6.377 8.302-13.877 7-22.5-2.957 2.312-6.291 3.812-10 4.5-20.871 3.831-34.037-4.336-39.5-24.5a840.27 840.27 0 01-.5-41zM663.5 151.5h19l20 98c-4.822.565-9.322-.101-13.5-2l-16-76a2153.518 2153.518 0 00-17 77c-4.066.964-8.233 1.297-12.5 1a4254.073 4254.073 0 0120-98zm66 0h19l20 98c-4.822.565-9.322-.101-13.5-2l-16-76a2153.518 2153.518 0 00-17 77c-4.066.964-8.233 1.297-12.5 1a4254.073 4254.073 0 0120-98z"/><path d="M549.5 161.5c3.548 5.256 6.548 10.923 9 17a148.454 148.454 0 01-8.5 14 105.1 105.1 0 01-8.5-14.5 377.136 377.136 0 018-16.5zM672.5 199.5a143.811 143.811 0 019 17.5l-8.5 14.5a110.834 110.834 0 01-9.5-14.5 433.386 433.386 0 009-17.5zM166.5 214.5a78.853 78.853 0 0115 7.5 80.83 80.83 0 0020 5c-16.607 7.078-33.94 9.411-52 7-16.192-2.226-30.859-8.059-44-17.5 7.293 1.023 14.626 2.856 22 5.5 14.589 4.929 27.589 2.429 39-7.5z"/></svg><svg viewBox="0 0 556 381" id="logo-color" xmlns="http://www.w3.org/2000/svg"><path d="M489.5-.5h3c9.219.683 17.886 3.516 26 8.5 1.074.739 1.741 1.739 2 3A7257.84 7257.84 0 00480 81.5c-.893 1.211-1.726 1.211-2.5 0a1093.159 1093.159 0 00-21-39l-55 102c-.667 1.333-1.333 1.333-2 0l-8-13c-.667-1.333-1.333-1.333-2 0l-57 94a900.602 900.602 0 01-1-60c25.981-1.146 42.814-14.146 50.5-39 4.501-28.502-6.332-48.668-32.5-60.5a49.185 49.185 0 00-18-2.5v-61c42.53 1.507 75.03 20.173 97.5 56a901.503 901.503 0 0020-35c9.654-14.574 23.154-22.574 40.5-24zM29.5 2.5c26.637.227 45.803 12.227 57.5 36a83.813 83.813 0 014 14 650.114 650.114 0 001.5 36c6.274-2.058 11.441-5.725 15.5-11C131.684 23.067 173.184-1.433 232.5 4c45.372 9.371 74.872 36.205 88.5 80.5 7.081 29.433 3.414 57.433-11 84-.777 1.715-2.11 2.715-4 3-11.01-1.162-20.177-5.829-27.5-14-6.816 6.241-14.816 10.074-24 11.5l-24 1c20.685 10.671 42.685 16.338 66 17-8.515 9.189-18.182 16.856-29 23-22.071.3-38.405-9.2-49-28.5a205.572 205.572 0 01-11 13.5 27.538 27.538 0 01-11 5 100.2 100.2 0 01-20 0 998.998 998.998 0 00-39-7 83.872 83.872 0 01-14-16 67.403 67.403 0 0117.5-3.5 476.978 476.978 0 0135.5 7c10.12 1.652 20.12 1.152 30-1.5-15.964.356-27.631-6.478-35-20.5-3.451 4.897-8.118 8.064-14 9.5a542.467 542.467 0 00-36 6c-11.01-17.191-17.177-36.025-18.5-56.5-1.117-1.624-2.617-2.624-4.5-3a28.737 28.737 0 01-7 2c.167 35.335 0 70.668-.5 106a1016.268 1016.268 0 01-63.5 1c-.167-72.667 0-145.334.5-218l1.5-3zm176 60c22.669-2.247 40.169 6.087 52.5 25 12.954 28.357 6.787 51.524-18.5 69.5-28.349 12.956-51.515 6.789-69.5-18.5-12.407-26.641-7.241-49.141 15.5-67.5 6.388-3.733 13.055-6.566 20-8.5zM528.5 14.5c4.634 1.403 8.801 3.736 12.5 7 .79 3.134.457 6.134-1 9a23762.99 23762.99 0 01-104 179c-7.487 10.32-16.987 18.153-28.5 23.5-1 .667-2 .667-3 0a23521.08 23521.08 0 00124-218.5z"/><path d="M454.5 63.5c.996-.086 1.829.248 2.5 1a231.186 231.186 0 008.5 16 567.352 567.352 0 01-18.5 41l-4.5-7-16 10-1-1 29-60zM209.5 201.5l19 9.5a96.305 96.305 0 0019 4c-30.202 11.826-60.202 11.16-90-2a86.323 86.323 0 01-15-9.5c8.217 1.327 16.55 3.494 25 6.5 15.714 4.891 29.714 2.058 42-8.5zM282.5 262.5a4.934 4.934 0 013 .5c4.588 5.621 10.255 6.954 17 4l7-4.5a25.658 25.658 0 016 6c-11.958 11.464-24.125 11.797-36.5 1a9.454 9.454 0 00-1.5-2.5 208.311 208.311 0 005-4.5zM.5 279.5h9v33h8c2.767-19.767 14.1-30.767 34-33 17.27 1.438 28.438 10.438 33.5 27 4.738 21.159-2.429 36.659-21.5 46.5-25.44 5.08-41.107-5.087-47-30.5a13.115 13.115 0 00-7-1v33h-9v-75zm46 11c18.151-.187 28.151 8.813 30 27-1.675 17.851-11.342 26.684-29 26.5-10.491-2.491-16.991-8.991-19.5-19.5-2.387-16.24 3.78-27.573 18.5-34zM159.5 279.5h9v22h23v-21h9v74h-9v-44h-23v44h-9v-75zM96.5 280.5c2.41.421 4.243 1.754 5.5 4l17 24c.5-9.327.666-18.661.5-28h9c-.166 9.339 0 18.673.5 28l19.5-27.5c1-.667 2-.667 3 0a21.53 21.53 0 006 5 762.827 762.827 0 01-22 30 1121.954 1121.954 0 0022 33.5c-2.544 3.615-5.877 4.948-10 4l-18.5-29c-.5 9.994-.666 19.994-.5 30h-9c.166-10.006 0-20.006-.5-30L99.5 354c-3.753.123-6.753-1.377-9-4.5a580.589 580.589 0 0021-33.5 1398.366 1398.366 0 01-21-29.5c1.715-2.382 3.715-4.382 6-6zM207.5 280.5h9a183.078 183.078 0 001 27c12.47-5.174 23.304-2.84 32.5 7 4.28 7.063 5.613 14.73 4 23-5.944 13.981-16.61 19.981-32 18a282.811 282.811 0 00-14.5-1v-74zm18 35c12.808-1.369 19.308 4.298 19.5 17-.996 5.659-4.162 9.493-9.5 11.5a69.558 69.558 0 01-19 1.5c-.166-7.674 0-15.341.5-23 2.416-2.923 5.25-5.257 8.5-7zM258.5 280.5h9v74h-9v-74zM273.5 280.5h9c-.167 17.337 0 34.67.5 52l25.5-51a25.879 25.879 0 0110-1 670.389 670.389 0 01-1 51.5c3.48 3.839 3.48 7.506 0 11 .96 3.73 1.293 7.563 1 11.5h-9c-.293-3.937.04-7.77 1-11.5-2.852-2.153-3.352-4.653-1.5-7.5.667-11 .667-22 0-33l-25.5 51a25.879 25.879 0 01-10 1v-74zM363.5 280.5h9a199.68 199.68 0 001.5 31c4.495 9.833 11.662 12.333 21.5 7.5 3.167-3.155 5.001-6.988 5.5-11.5.5-8.994.666-17.994.5-27h9a651.475 651.475 0 01-1.5 61c-6.036 12.43-15.869 16.93-29.5 13.5-8.059-1.86-12.059-6.694-12-14.5a43.286 43.286 0 005.5-3l7.5 7.5c14.585 3.249 21.252-2.584 20-17.5-6.709 2.883-13.709 3.716-21 2.5-8.827-3.44-13.993-9.94-15.5-19.5-.5-9.994-.666-19.994-.5-30zM417.5 280.5a98.746 98.746 0 0123 1.5c14.898 9.789 18.065 22.623 9.5 38.5-6.093 7.422-13.926 10.422-23.5 9v25h-9v-74zm10 9c10.283.294 16.283 5.461 18 15.5-1.889 10.507-8.056 15.34-18.5 14.5a154.309 154.309 0 01.5-30zM485.5 327.5c-.63 4.929-2.63 9.263-6 13a82.501 82.501 0 01-7.5-10l-5 23c-3.057.951-6.223 1.284-9.5 1a2826.39 2826.39 0 0114.5-73 55.155 55.155 0 0114.5-1 4791.404 4791.404 0 0016 73.5 60.931 60.931 0 01-11 .5 241.414 241.414 0 00-6-27zm0 0a86.778 86.778 0 01-6-11 59.24 59.24 0 00-6.5 13 379.263 379.263 0 016-33 196.994 196.994 0 016.5 31zM521.5 280.5h14a4791.404 4791.404 0 0016 73.5 60.931 60.931 0 01-11 .5 1281.473 1281.473 0 00-12.5-58 4316.096 4316.096 0 01-12 57c-3.057.951-6.223 1.284-9.5 1a1814.872 1814.872 0 0115-74z"/><path d="M386.5 287.5c3.219 3.935 5.552 8.435 7 13.5a34.06 34.06 0 01-6 10.5 118.886 118.886 0 01-7-10.5 115.349 115.349 0 006-13.5zM51.5 299.5a113.398 113.398 0 019 18 148.58 148.58 0 01-8.5 14 48.193 48.193 0 01-8.5-14.5 138.258 138.258 0 018-17.5z"/></svg><svg viewBox="0 0 556 373" id="logo-vertic" xmlns="http://www.w3.org/2000/svg"><path d="M482.5-.5h17c6.904 1.943 13.57 4.776 20 8.5a3.944 3.944 0 011 2 1871.17 1871.17 0 01-41 71c-.832.688-1.498.521-2-.5a524.425 524.425 0 00-21-38 3664.768 3664.768 0 00-54.5 101c-.718.951-1.551 1.117-2.5.5a234.997 234.997 0 01-7.5-12.5c-1-1.333-2-1.333-3 0a4233.12 4233.12 0 01-57 94c-.5-20.331-.667-40.664-.5-61 31.841-2.174 49.174-19.174 52-51-1.504-23.51-13.17-39.677-35-48.5a58.103 58.103 0 00-17-2.5v-60c42.693.589 75.193 18.922 97.5 55a737.27 737.27 0 0127-44c7.572-7.2 16.405-11.868 26.5-14zM31.5 1.5c32.37 2.545 52.203 19.545 59.5 51 .5 11.662.666 23.329.5 35 6.132-1.317 11.299-4.317 15.5-9l15-28C154.054 8.369 195.887-6.131 247.5 7c48.723 18.258 74.389 53.425 77 105.5.073 21.383-5.594 41.05-17 59a61.002 61.002 0 01-21-7.5 20.231 20.231 0 01-7.5-7.5c-10.135 9.269-22.135 13.602-36 13a84.49 84.49 0 00-12.5-.5c20.563 11.187 42.563 16.853 66 17-7.83 9.496-17.163 17.163-28 23-22.829 1.005-39.663-8.495-50.5-28.5-7.282 15.559-19.449 22.059-36.5 19.5a1207.933 1207.933 0 00-43-7 90.479 90.479 0 01-15-17 69.521 69.521 0 0126-2 284.215 284.215 0 0040 7.5 73.28 73.28 0 0018-3.5c-16.166.965-28.166-5.535-36-19.5-3.385 4.207-7.718 7.04-13 8.5a195.62 195.62 0 01-26 4 35.68 35.68 0 00-10 3.5c-11.779-17.503-18.279-36.836-19.5-58-3.494-3.48-7.161-3.48-11 0l-1 105a9.457 9.457 0 01-2.5 1.5c-20.33.5-40.664.667-61 .5-.167-73.001 0-146 .5-219 .985-1.314 2.152-2.314 3.5-3zm177 60c25.545-.593 43.379 10.74 53.5 34 7.072 28.343-2.095 49.51-27.5 63.5-21.602 8.151-40.769 4.317-57.5-11.5-18-23.333-18-46.667 0-70 8.875-8.687 19.375-14.02 31.5-16zM528.5 13.5l11 5.5c2.745 5.062 2.245 9.896-1.5 14.5a20123.693 20123.693 0 00-95 165c-9.128 15.295-21.628 26.962-37.5 35-1.021-.502-1.188-1.168-.5-2a35578.607 35578.607 0 00123.5-218z"/><path d="M454.5 62.5c.876-.13 1.543.203 2 1a396.84 396.84 0 019 16.5 1954.318 1954.318 0 00-16.5 38.5c-.423 1.456-1.256 1.956-2.5 1.5a23.162 23.162 0 00-4.5-6.5c-4.983 4.565-10.483 7.565-16.5 9a1239.434 1239.434 0 0029-60zM208.5 201.5a12.93 12.93 0 015 .5c10.092 7.421 21.425 11.587 34 12.5-27.888 11.796-55.888 11.962-84 .5a108.477 108.477 0 01-21-12 416.1 416.1 0 0132 8c12.933 2.103 24.266-1.063 34-9.5zM283.5 255.5a4.934 4.934 0 013 .5c4.588 5.621 10.255 6.954 17 4l7-4.5a25.658 25.658 0 016 6c-11.958 11.464-24.125 11.797-36.5 1a9.454 9.454 0 00-1.5-2.5 208.311 208.311 0 005-4.5zM.5 272.5h9v33h8c2.767-19.767 14.1-30.767 34-33 17.27 1.438 28.438 10.438 33.5 27 4.738 21.159-2.429 36.659-21.5 46.5-25.44 5.08-41.107-5.087-47-30.5a13.115 13.115 0 00-7-1v33h-9v-75zm46 11c18.151-.187 28.151 8.813 30 27-1.675 17.851-11.342 26.684-29 26.5-10.491-2.491-16.991-8.991-19.5-19.5-2.387-16.24 3.78-27.573 18.5-34zM159.5 272.5h9v22h23v-21h9v74h-9v-44h-23v44h-9v-75zM96.5 273.5c2.41.421 4.243 1.754 5.5 4l17 24c.5-9.327.666-18.661.5-28h9c-.166 9.339 0 18.673.5 28l19.5-27.5c1-.667 2-.667 3 0a21.53 21.53 0 006 5 762.827 762.827 0 01-22 30 1121.954 1121.954 0 0022 33.5c-2.544 3.615-5.877 4.948-10 4l-18.5-29c-.5 9.994-.666 19.994-.5 30h-9c.166-10.006 0-20.006-.5-30L99.5 347c-3.753.123-6.753-1.377-9-4.5a580.589 580.589 0 0021-33.5 1398.366 1398.366 0 01-21-29.5c1.715-2.382 3.715-4.382 6-6zM207.5 273.5h9a183.078 183.078 0 001 27c12.47-5.174 23.304-2.84 32.5 7 4.28 7.063 5.613 14.73 4 23-5.944 13.981-16.61 19.981-32 18a282.811 282.811 0 00-14.5-1v-74zm18 35c12.808-1.369 19.308 4.298 19.5 17-.996 5.659-4.162 9.493-9.5 11.5a69.558 69.558 0 01-19 1.5c-.166-7.674 0-15.341.5-23 2.416-2.923 5.25-5.257 8.5-7zM258.5 273.5h9v74h-9v-74zM274.5 273.5h9c-.167 17.337 0 34.67.5 52l25.5-51a25.879 25.879 0 0110-1 670.389 670.389 0 01-1 51.5c3.48 3.839 3.48 7.506 0 11 .96 3.73 1.293 7.563 1 11.5h-9c-.293-3.937.04-7.77 1-11.5-2.852-2.153-3.352-4.653-1.5-7.5.667-11 .667-22 0-33l-25.5 51a25.879 25.879 0 01-10 1v-74zM363.5 273.5h9a199.68 199.68 0 001.5 31c4.495 9.833 11.662 12.333 21.5 7.5 3.167-3.155 5.001-6.988 5.5-11.5.5-8.994.666-17.994.5-27h9a651.475 651.475 0 01-1.5 61c-6.036 12.43-15.869 16.93-29.5 13.5-8.059-1.86-12.059-6.694-12-14.5a43.286 43.286 0 005.5-3l7.5 7.5c14.585 3.249 21.252-2.584 20-17.5-6.709 2.883-13.709 3.716-21 2.5-8.827-3.44-13.993-9.94-15.5-19.5-.5-9.994-.666-19.994-.5-30zM417.5 273.5a98.746 98.746 0 0123 1.5c14.898 9.789 18.065 22.623 9.5 38.5-6.093 7.422-13.926 10.422-23.5 9v25h-9v-74zm10 9c10.283.294 16.283 5.461 18 15.5-1.889 10.507-8.056 15.34-18.5 14.5a154.309 154.309 0 01.5-30zM485.5 320.5c-.63 4.929-2.63 9.263-6 13a82.501 82.501 0 01-7.5-10l-5 23c-3.057.951-6.223 1.284-9.5 1a2826.39 2826.39 0 0114.5-73 55.155 55.155 0 0114.5-1 4791.404 4791.404 0 0016 73.5 60.931 60.931 0 01-11 .5 241.414 241.414 0 00-6-27zm0 0a86.778 86.778 0 01-6-11 59.24 59.24 0 00-6.5 13 379.263 379.263 0 016-33 196.994 196.994 0 016.5 31zM521.5 273.5h14a4791.404 4791.404 0 0016 73.5 60.931 60.931 0 01-11 .5 1281.473 1281.473 0 00-12.5-58 4316.096 4316.096 0 01-12 57c-3.057.951-6.223 1.284-9.5 1a1814.872 1814.872 0 0115-74z"/><path d="M386.5 280.5c3.219 3.935 5.552 8.435 7 13.5a34.06 34.06 0 01-6 10.5 118.886 118.886 0 01-7-10.5 115.349 115.349 0 006-13.5zM51.5 292.5a113.398 113.398 0 019 18 148.58 148.58 0 01-8.5 14 48.193 48.193 0 01-8.5-14.5 138.258 138.258 0 018-17.5z"/></svg><svg viewBox="0 0 198 198" id="pattern1" xmlns="http://www.w3.org/2000/svg"><path d="M-.5 77.5v-12c1.2-3.063 2.7-6.063 4.5-9l19-19c7.5 7.68 9.5 16.68 6 27a69.049 69.049 0 01-4.5 6.5L35 81.5a2829.107 2829.107 0 0044.5-45c-3-3.667-6.333-7-10-10-11.174 8.244-22.008 7.91-32.5-1-.667-.667-.667-1.333 0-2L55.5 5c9.351-5.995 18.684-5.995 28 0a266.813 266.813 0 0014 13.5 266.695 266.695 0 0014-13.5c9.315-5.995 18.649-5.995 28 0a523.103 523.103 0 0119 19.5c-10.301 9.823-21.301 10.49-33 2-4.225 3.036-7.392 6.703-9.5 11l44 44L170.5 71c-6.105-7.592-7.605-16.092-4.5-25.5 1.23-3.232 3.23-5.899 6-8l19 19c5.538 9.128 5.871 18.462 1 28L177.5 99a158.709 158.709 0 0114.5 15.5c3.333 7.333 3.333 14.667 0 22-6.675 8.349-14.175 15.516-22.5 21.5-8.985-10.501-9.319-21.335-1-32.5a107.985 107.985 0 00-8.5-9 2829.553 2829.553 0 00-44.5 45 107.985 107.985 0 008.5 9c11.627-8.418 22.793-7.918 33.5 1.5l-20 20c-9 4.667-18 4.667-27 0a229.592 229.592 0 00-13-12.5 229.424 229.424 0 00-13 12.5c-9 4.667-18 4.667-27 0l-20-20c10.707-9.418 21.873-9.918 33.5-1.5 3.586-2.884 6.252-6.217 8-10l-44-44a108.018 108.018 0 00-8.5 9c8.319 11.165 7.985 21.999-1 32.5-.667.667-1.333.667-2 0L5 139.5c-6-9.333-6-18.667 0-28L17.5 99c-7.398-6.21-13.398-13.377-18-21.5zm97-23a960.676 960.676 0 0146 44.5 2829.553 2829.553 0 01-45 44.5 2831.24 2831.24 0 01-45-44.5 2763.019 2763.019 0 0044-44.5z"/><path d="M96.5 79.5c7.452 5.618 14.119 12.118 20 19.5a174.774 174.774 0 01-19 19.5 551.388 551.388 0 01-20-19.5 521.47 521.47 0 0019-19.5z"/></svg><svg viewBox="0 0 2067 2407" id="pattern2" xmlns="http://www.w3.org/2000/svg"><path d="M1320.5-.5h13c56.81 8.576 87.48 41.576 92 99-2.97 50.804-28.97 82.971-78 96.5-44.94 7.106-80.11-8.061-105.5-45.5-18-34-18-68 0-102 18.44-28.638 44.61-44.638 78.5-48zm-993 209c41.571-2.464 73.738 13.536 96.5 48 20.73 40.526 17.396 78.859-10 115-29.219 30.735-64.386 40.569-105.5 29.5-48.558-19.268-71.058-55.101-67.5-107.5 7.413-41.08 30.913-68.247 70.5-81.5a736.39 736.39 0 0116-3.5zM1458.5 297.5a89.888 89.888 0 0016 8c2.98.826 5.65 2.159 8 4 .47 1.406 1.47 2.073 3 2 1.65.16 2.99.826 4 2 .47 1.406 1.47 2.073 3 2 1.65.16 2.99.826 4 2 .47 1.406 1.47 2.073 3 2 .99-.172 1.66.162 2 1 .47 1.406 1.47 2.073 3 2 .99-.172 1.66.162 2 1 .47 1.406 1.47 2.073 3 2 1.93.61 3.6 1.61 5 3 .47 1.406 1.47 2.073 3 2 .47 1.406 1.47 2.073 3 2 .47 1.406 1.47 2.073 3 2 .47 1.406 1.47 2.073 3 2 .67 0 1 .333 1 1 .47 1.406 1.47 2.073 3 2 .76 1.762 2.1 2.762 4 3 .76 1.762 2.1 2.762 4 3 .67 0 1 .333 1 1 .76 1.762 2.1 2.762 4 3 .67 0 1 .333 1 1 1.08 2.087 2.75 3.42 5 4a6.575 6.575 0 013 3c5.33 6 11 11.667 17 17a6.575 6.575 0 013 3c.58 2.249 1.91 3.915 4 5 .67 0 1 .333 1 1 .24 1.904 1.24 3.238 3 4 .67 0 1 .333 1 1-.07 1.527.59 2.527 2 3 .67 0 1 .333 1 1-.07 1.527.59 2.527 2 3-.07 1.527.59 2.527 2 3-.07 1.527.59 2.527 2 3-.07 1.527.59 2.527 2 3-.07 1.527.59 2.527 2 3 1.17 1.014 1.84 2.347 2 4-.07 1.527.59 2.527 2 3 4.12 6.567 7.45 13.567 10 21-.1 2.053.57 3.72 2 5 .9.709 1.24 1.709 1 3-.1 2.053.57 3.72 2 5 7.7 22.054 11.7 44.887 12 68.5-1.96 141.172-3.96 282.338-6 423.5 2.51 34.367 10.51 67.37 24 99-.1 2.05.57 3.72 2 5 2.84 4.35 5.17 9.02 7 14 .25 2.17 1.25 3.84 3 5 1.17 1.01 1.84 2.35 2 4-.07 1.53.59 2.53 2 3 .84.34 1.17 1.01 1 2-.07 1.53.59 2.53 2 3-.07 1.53.59 2.53 2 3 1.69 1.7 3.03 3.7 4 6-.07 1.53.59 2.53 2 3-.07 1.53.59 2.53 2 3-.07 1.53.59 2.53 2 3 .67 0 1 .33 1 1-.07 1.53.59 2.53 2 3 .67 0 1 .33 1 1 .24 1.9 1.24 3.24 3 4 .67 0 1 .33 1 1 .24 1.9 1.24 3.24 3 4 1 .33 1.67 1 2 2-.09 1 .25 1.83 1 2.5-1.29.49-2.63.66-4 .5-72.53.02-143.87-9.15-214-27.5-16.59-4.58-32.59-10.41-48-17.5-1.28-1.43-2.95-2.1-5-2-1.65-.16-2.99-.83-4-2-1.93-1.79-4.26-2.79-7-3a35.379 35.379 0 01-10-5c-1.16-1.75-2.83-2.75-5-3-1.65-.16-2.99-.83-4-2-1.16-1.75-2.83-2.75-5-3-.99.17-1.66-.16-2-1-.47-1.41-1.47-2.07-3-2-.47-1.41-1.47-2.07-3-2-2.35-.84-4.35-2.17-6-4-.47-1.41-1.47-2.07-3-2-.47-1.41-1.47-2.07-3-2-.67 0-1-.33-1-1-.47-1.41-1.47-2.07-3-2-.67 0-1-.33-1-1-.47-1.41-1.47-2.07-3-2-.67 0-1-.33-1-1-.76-1.76-2.1-2.76-4-3-1-.33-1.67-1-2-2-1.41-2.41-3.41-4.08-6-5-4.67-4-9-8.33-13-13-.58-2.25-1.91-3.92-4-5-1-.333-1.67-1-2-2-.24-1.904-1.24-3.238-3-4-.67 0-1-.333-1-1 .07-1.527-.59-2.527-2-3-.67 0-1-.333-1-1 .07-1.527-.59-2.527-2-3 .07-1.527-.59-2.527-2-3 .07-1.527-.59-2.527-2-3 .07-1.527-.59-2.527-2-3 .07-1.527-.59-2.527-2-3-1.17-1.014-1.84-2.347-2-4 .07-1.527-.59-2.527-2-3a50.358 50.358 0 01-6-12c.1-2.053-.57-3.72-2-5-11.45-26.304-19.12-53.804-23-82.5-4-27.027-6.5-54.193-7.5-81.5-.67-36.667-.67-73.333 0-110a7639.09 7639.09 0 019-179c2.73-55.294-6.1-108.627-26.5-160 .1-2.053-.57-3.72-2-5-1.51-1.681-2.51-3.681-3-6-1.63-5.919-4.29-11.253-8-16-1.51-1.681-2.51-3.681-3-6 .07-1.527-.59-2.527-2-3-.84-.342-1.17-1.008-1-2 .07-1.527-.59-2.527-2-3-.84-.342-1.17-1.008-1-2 .07-1.527-.59-2.527-2-3 .07-1.527-.59-2.527-2-3 .07-1.527-.59-2.527-2-3 .07-1.527-.59-2.527-2-3 .07-1.527-.59-2.527-2-3 .07-1.527-.59-2.527-2-3-.67 0-1-.333-1-1 .07-1.527-.59-2.527-2-3-.24-1.904-1.24-3.238-3-4 .09-.996-.25-1.829-1-2.5.92-.278 1.58-.778 2-1.5 81.38-12.395 160.38-3.562 237 26.5 5.34 2.003 10.34 4.503 15 7.5z"/><path d="M1206.5 263.5c-.42.722-1.08 1.222-2 1.5.75.671 1.09 1.504 1 2.5-4.27-2.535-3.94-3.868 1-4zM1205.5 267.5c1.76.762 2.76 2.096 3 4-1.76-.762-2.76-2.096-3-4zM1208.5 271.5c1.41.473 2.07 1.473 2 3-1.41-.473-2.07-1.473-2-3zM1211.5 275.5c1.41.473 2.07 1.473 2 3-1.41-.473-2.07-1.473-2-3zM1213.5 278.5c1.41.473 2.07 1.473 2 3-1.41-.473-2.07-1.473-2-3zM1215.5 281.5c1.41.473 2.07 1.473 2 3-1.41-.473-2.07-1.473-2-3zm2 3c1.41.473 2.07 1.473 2 3-1.41-.473-2.07-1.473-2-3zM1219.5 287.5c1.41.473 2.07 1.473 2 3-1.41-.473-2.07-1.473-2-3zM1221.5 290.5c1.41.473 2.07 1.473 2 3-1.41-.473-2.07-1.473-2-3zM1224.5 295.5c1.41.473 2.07 1.473 2 3-1.41-.473-2.07-1.473-2-3zM1458.5 297.5c5.92 1.626 11.25 4.293 16 8a89.888 89.888 0 01-16-8zM1227.5 300.5c1.41.473 2.07 1.473 2 3-1.41-.473-2.07-1.473-2-3zM1482.5 309.5c1.53-.073 2.53.594 3 2-1.53.073-2.53-.594-3-2zM1489.5 313.5c1.53-.073 2.53.594 3 2-1.53.073-2.53-.594-3-2zM1496.5 317.5c1.53-.073 2.53.594 3 2-1.53.073-2.53-.594-3-2zM1076.5 320.5c47.35-1.758 81.18 18.576 101.5 61 14.69 42.562 6.19 79.728-25.5 111.5-31.65 25.571-66.65 31.238-105 17-37.92-18.295-57.916-48.628-60-91 2.777-46.411 25.78-77.744 69-94a370.814 370.814 0 0120-4.5zM1232.5 309.5c3.71 4.747 6.37 10.081 8 16a90.056 90.056 0 01-8-16zM1501.5 320.5c1.53-.073 2.53.594 3 2-1.53.073-2.53-.594-3-2zM1506.5 323.5c1.53-.073 2.53.594 3 2-1.53.073-2.53-.594-3-2zM1514.5 328.5c1.53-.073 2.53.594 3 2-1.53.073-2.53-.594-3-2zm3 2c1.53-.073 2.53.594 3 2-1.53.073-2.53-.594-3-2zM1243.5 331.5c1.43 1.28 2.1 2.947 2 5-1.43-1.28-2.1-2.947-2-5zM1520.5 332.5c1.53-.073 2.53.594 3 2-1.53.073-2.53-.594-3-2zM1523.5 334.5c1.53-.073 2.53.594 3 2-1.53.073-2.53-.594-3-2zM1527.5 337.5c1.53-.073 2.53.594 3 2-1.53.073-2.53-.594-3-2zM1530.5 339.5c1.9.238 3.24 1.238 4 3-1.9-.238-3.24-1.238-4-3zM1534.5 342.5c1.9.238 3.24 1.238 4 3-1.9-.238-3.24-1.238-4-3zM1539.5 346.5c1.9.238 3.24 1.238 4 3-1.9-.238-3.24-1.238-4-3zm5 4c2.25.58 3.92 1.913 5 4-2.25-.58-3.92-1.913-5-4zM1552.5 357.5a68.648 68.648 0 0117 17c-6-5.333-11.67-11-17-17zM1572.5 377.5c2.09 1.085 3.42 2.751 4 5-2.09-1.085-3.42-2.751-4-5zm5 6c1.76.762 2.76 2.096 3 4-1.76-.762-2.76-2.096-3-4zm4 5c1.41.473 2.07 1.473 2 3-1.41-.473-2.07-1.473-2-3zM1584.5 392.5c1.41.473 2.07 1.473 2 3-1.41-.473-2.07-1.473-2-3zM1586.5 395.5c1.41.473 2.07 1.473 2 3-1.41-.473-2.07-1.473-2-3zm2 3c1.41.473 2.07 1.473 2 3-1.41-.473-2.07-1.473-2-3zM1590.5 401.5c1.41.473 2.07 1.473 2 3-1.41-.473-2.07-1.473-2-3zM1592.5 404.5c1.41.473 2.07 1.473 2 3-1.41-.473-2.07-1.473-2-3zM1596.5 411.5c1.41.473 2.07 1.473 2 3-1.41-.473-2.07-1.473-2-3zM1608.5 435.5c1.43 1.28 2.1 2.947 2 5-1.43-1.28-2.1-2.947-2-5zM1611.5 443.5c1.43 1.28 2.1 2.947 2 5-1.43-1.28-2.1-2.947-2-5zM438.5 492.5c1.28 1.431 2.947 2.098 5 2 6.066 1.539 11.733 3.872 17 7 1.28 1.431 2.947 2.098 5 2 2.985.826 5.651 2.159 8 4 3.015 2.174 6.349 3.841 10 5 3.651 1.159 6.985 2.826 10 5 .473 1.406 1.473 2.073 3 2 1.653.16 2.986.826 4 2 .473 1.406 1.473 2.073 3 2 1.653.16 2.986.826 4 2 .473 1.406 1.473 2.073 3 2 .992-.172 1.658.162 2 1 .473 1.406 1.473 2.073 3 2 .992-.172 1.658.162 2 1 .473 1.406 1.473 2.073 3 2 .992-.172 1.658.162 2 1 .473 1.406 1.473 2.073 3 2 .473 1.406 1.473 2.073 3 2 .473 1.406 1.473 2.073 3 2 .473 1.406 1.473 2.073 3 2 .473 1.406 1.473 2.073 3 2 .473 1.406 1.473 2.073 3 2 .667 0 1 .333 1 1 .473 1.406 1.473 2.073 3 2 .667 0 1 .333 1 1 .473 1.406 1.473 2.073 3 2 .667 0 1 .333 1 1 .762 1.762 2.096 2.762 4 3 .667 0 1 .333 1 1 .762 1.762 2.096 2.762 4 3 1 .333 1.667 1 2 2 1.411 2.414 3.411 4.081 6 5 5 4.333 9.667 9 14 14 .919 2.589 2.586 4.589 5 6 1 .333 1.667 1 2 2 .238 1.904 1.238 3.238 3 4 .667 0 1 .333 1 1-.073 1.527.594 2.527 2 3 .667 0 1 .333 1 1-.073 1.527.594 2.527 2 3 .667 0 1 .333 1 1-.073 1.527.594 2.527 2 3-.073 1.527.594 2.527 2 3-.073 1.527.594 2.527 2 3-.073 1.527.594 2.527 2 3 .838.342 1.172 1.008 1 2-.073 1.527.594 2.527 2 3 1.508 1.681 2.508 3.681 3 6 1.159 3.651 2.826 6.985 5 10 9.548 18.832 15.715 38.832 18.5 60a302.818 302.818 0 012.5 29.5c-1.968 141.003-3.968 282-6 423 2.177 33.05 9.51 64.89 22 95.5-.098 2.05.569 3.72 2 5 1.508 1.68 2.508 3.68 3 6 .96 4.59 2.96 8.59 6 12 1.508 1.68 2.508 3.68 3 6-.073 1.53.594 2.53 2 3 1.174 1.01 1.84 2.35 2 4-.073 1.53.594 2.53 2 3-.073 1.53.594 2.53 2 3 1.39 1.4 2.39 3.07 3 5-.073 1.53.594 2.53 2 3 1.474.94 2.474 2.27 3 4-.073 1.53.594 2.53 2 3 .238 1.9 1.238 3.24 3 4 .238 1.9 1.238 3.24 3 4 .667 0 1 .33 1 1-.073 1.53.594 2.53 2 3 1 .33 1.667 1 2 2 .238 1.9 1.238 3.24 3 4 .667 0 1 .33 1 1-7.482.99-15.148 1.33-23 1a850.529 850.529 0 01-166-19.5c-17.103-3.76-33.77-8.59-50-14.5-1.28-1.43-2.947-2.1-5-2-2.286-.09-4.286-.76-6-2-1.28-1.43-2.947-2.1-5-2-3.637-.76-6.97-2.1-10-4-1.28-1.43-2.947-2.1-5-2-1.653-.16-2.986-.83-4-2-1.28-1.43-2.947-2.1-5-2a90.056 90.056 0 01-16-8c-.473-1.41-1.473-2.07-3-2-1.653-.16-2.986-.83-4-2-1.159-1.75-2.826-2.75-5-3-1.934-.61-3.601-1.61-5-3-.473-1.41-1.473-2.07-3-2-.473-1.41-1.473-2.07-3-2-.473-1.41-1.473-2.07-3-2-.473-1.41-1.473-2.07-3-2-.762-1.76-2.096-2.76-4-3-.473-1.41-1.473-2.07-3-2-.667 0-1-.33-1-1-.762-1.76-2.096-2.76-4-3-.667 0-1-.33-1-1-1.085-2.09-2.751-3.42-5-4a6.575 6.575 0 01-3-3c-5-5.67-10.333-11-16-16a6.575 6.575 0 01-3-3c-.238-1.9-1.238-3.24-3-4-.667 0-1-.33-1-1-.238-1.9-1.238-3.24-3-4-.667 0-1-.33-1-1 .073-1.53-.594-2.53-2-3 .073-1.53-.594-2.53-2-3a14.567 14.567 0 01-4-6c.073-1.53-.594-2.53-2-3-.838-.34-1.172-1.01-1-2 .073-1.53-.594-2.53-2-3-1.174-1.01-1.84-2.35-2-4-1.159-3.65-2.826-6.98-5-10-2.451-3.24-4.118-6.91-5-11 .098-2.05-.569-3.72-2-5-7.384-18.67-12.884-38-16.5-58a637.814 637.814 0 01-9-77 2311.103 2311.103 0 01-1-130c2.779-65.52 5.946-131.02 9.5-196.5-.049-41.509-6.382-82.009-19-121.5.098-2.053-.569-3.72-2-5a114.067 114.067 0 01-5-13c.098-2.053-.569-3.72-2-5-.838-.342-1.172-1.008-1-2 .098-2.053-.569-3.72-2-5a89.72 89.72 0 01-8-16c-.25-2.174-1.25-3.841-3-5-1.174-1.014-1.84-2.347-2-4 .073-1.527-.594-2.527-2-3-.838-.342-1.172-1.008-1-2 .073-1.527-.594-2.527-2-3-.838-.342-1.172-1.008-1-2 .073-1.527-.594-2.527-2-3 .073-1.527-.594-2.527-2-3 .073-1.527-.594-2.527-2-3 .073-1.527-.594-2.527-2-3 .073-1.527-.594-2.527-2-3-.667 0-1-.333-1-1 .073-1.527-.594-2.527-2-3 .073-1.527-.594-2.527-2-3-.667 0-1-.333-1-1-.238-1.904-1.238-3.238-3-4-.438.065-.772-.101-1-.5 68.516-11.057 136.182-7.057 203 12a258.392 258.392 0 0121 7.5z"/><path d="M215.5 473.5c1.762.762 2.762 2.096 3 4-1.762-.762-2.762-2.096-3-4zM219.5 478.5c1.406.473 2.073 1.473 2 3-1.406-.473-2.073-1.473-2-3zM1730.5 482.5c1.71 1.238 3.71 1.905 6 2 4.01.998 7.34 2.998 10 6 .47 1.406 1.47 2.073 3 2 1 .333 1.67 1 2 2 4 4.667 8.33 9 13 13a6.575 6.575 0 013 3c.24 1.904 1.24 3.238 3 4 .67 0 1 .333 1 1 .24 1.904 1.24 3.238 3 4 .67 0 1 .333 1 1-.07 1.527.59 2.527 2 3 .67 0 1 .333 1 1-.07 1.527.59 2.527 2 3-.07 1.527.59 2.527 2 3 .67 0 1 .333 1 1-.07 1.527.59 2.527 2 3-.07 1.527.59 2.527 2 3-.07 1.527.59 2.527 2 3-.07 1.527.59 2.527 2 3 64.59-7.99 127.59-1.157 189 20.5 3.32 1.04 6.32 2.54 9 4.5 3.02 2.174 6.35 3.841 10 5 1.65.16 2.99.826 4 2 .47 1.406 1.47 2.073 3 2 2.35.84 4.35 2.174 6 4 .47 1.406 1.47 2.073 3 2 .76 1.762 2.1 2.762 4 3 .67 0 1 .333 1 1 1.08 2.087 2.75 3.42 5 4 3 2.333 5.67 5 8 8 .58 2.249 1.91 3.915 4 5 1 .333 1.67 1 2 2-.07 1.527.59 2.527 2 3 .67 0 1 .333 1 1-.07 1.527.59 2.527 2 3-.07 1.527.59 2.527 2 3-.07 1.527.59 2.527 2 3 .84.342 1.17 1.008 1 2-.07 1.527.59 2.527 2 3a151.077 151.077 0 0115 36v2a127.448 127.448 0 01-8 26c-1.43 1.28-2.1 2.947-2 5a50.358 50.358 0 01-6 12c-1.41.473-2.07 1.473-2 3-1.41.473-2.07 1.473-2 3-1.41.473-2.07 1.473-2 3 0 .667-.33 1-1 1-1.41.473-2.07 1.473-2 3 0 .667-.33 1-1 1-1.41.473-2.07 1.473-2 3 0 .667-.33 1-1 1-1.76.762-2.76 2.096-3 4 0 .667-.33 1-1 1-1.76.762-2.76 2.096-3 4 0 .667-.33 1-1 1-1.41.473-2.07 1.473-2 3 0 .667-.33 1-1 1-1.76.762-2.76 2.096-3 4-.8 6.587-1.3 13.254-1.5 20-.63 71.006-1.63 142.006-3 213-2.44 9.848-5.94 19.181-10.5 28-1.43 1.28-2.1 2.95-2 5a35.379 35.379 0 01-5 10c-1.75 1.16-2.75 2.83-3 5 .17.99-.16 1.66-1 2-1.41.47-2.07 1.47-2 3 .17.99-.16 1.66-1 2-1.41.47-2.07 1.47-2 3-1.41.47-2.07 1.47-2 3-1.41.47-2.07 1.47-2 3 0 .67-.33 1-1 1-1.41.47-2.07 1.47-2 3 0 .67-.33 1-1 1-1.41.47-2.07 1.47-2 3-.33 1-1 1.67-2 2-1.76.76-2.76 2.1-3 4a6.603 6.603 0 01-3 3c-4.67 4-9 8.33-13 13a6.603 6.603 0 01-3 3c-1.9.24-3.24 1.24-4 3 0 .67-.33 1-1 1-1.53-.07-2.53.59-3 2 0 .67-.33 1-1 1-1.53-.07-2.53.59-3 2-2.48 2.74-5.48 4.74-9 6-1.53-.07-2.53.59-3 2-1.01 1.17-2.35 1.84-4 2-2.17.25-3.84 1.25-5 3-1.01 1.17-2.35 1.84-4 2-2.05-.1-3.72.57-5 2-.34.84-1.01 1.17-2 1-2.05-.1-3.72.57-5 2-41.88 16.25-84.21 17.09-127 2.5-4.31-1.37-8.31-3.21-12-5.5-1.28-1.43-2.95-2.1-5-2-2.98-.83-5.65-2.16-8-4-.47-1.41-1.47-2.07-3-2-1.65-.16-2.99-.83-4-2-.47-1.41-1.47-2.07-3-2-.47-1.41-1.47-2.07-3-2-.47-1.41-1.47-2.07-3-2-.47-1.41-1.47-2.07-3-2-.67 0-1-.33-1-1-.47-1.41-1.47-2.07-3-2-.67 0-1-.33-1-1-.76-1.76-2.1-2.76-4-3a6.603 6.603 0 01-3-3c-4-4.67-8.33-9-13-13a6.603 6.603 0 01-3-3c-.24-1.9-1.24-3.24-3-4-.67 0-1-.33-1-1-.24-1.9-1.24-3.24-3-4 .07-1.53-.59-2.53-2-3-.67 0-1-.33-1-1 .07-1.53-.59-2.53-2-3-1.39-1.4-2.39-3.07-3-5 .07-1.53-.59-2.53-2-3-1.17-1.01-1.84-2.35-2-4-.58-2.83-1.91-5.16-4-7-.21-2.74-1.21-5.07-3-7-3.28-5.57-5.78-11.566-7.5-18a2362.876 2362.876 0 01-4-347 660.275 660.275 0 0115-116c2.55-11.091 6.72-21.425 12.5-31 1.41-.473 2.07-1.473 2-3 1.41-.473 2.07-1.473 2-3 0-.667.33-1 1-1 2-1.333 3.67-3 5-5 0-.667.33-1 1-1 1.53.073 2.53-.594 3-2 1.34-1.293 3.01-2.126 5-2.5 3.86-.81 7.52-.643 11 .5zm180 140c.47 1.406 1.47 2.073 3 2 .33 1 1 1.667 2 2 .33 1 1 1.667 2 2a275.91 275.91 0 003 4c.49 2.319 1.49 4.319 3 6 1.74 7.893 1.07 15.559-2 23-1.41.473-2.07 1.473-2 3-.67 0-1 .333-1 1-2 1.333-3.67 3-5 5-10.31 6.915-20.97 7.582-32 2-.47-1.406-1.47-2.073-3-2-1.33-2-3-3.667-5-5 .07-1.527-.59-2.527-2-3a49.992 49.992 0 01-4-15 49.992 49.992 0 014-15c1.76-.762 2.76-2.096 3-4a6.575 6.575 0 003-3c1.53.073 2.53-.594 3-2 2.32-.492 4.32-1.492 6-3 8.22-1.727 16.22-1.06 24 2zM221.5 481.5c1.406.473 2.073 1.473 2 3-1.406-.473-2.073-1.473-2-3z"/><path d="M1730.5 482.5c2.4-.241 4.4.426 6 2-2.29-.095-4.29-.762-6-2zm-16 2c-.47 1.406-1.47 2.073-3 2 .47-1.406 1.47-2.073 3-2zM224.5 485.5c1.406.473 2.073 1.473 2 3-1.406-.473-2.073-1.473-2-3zM1710.5 487.5c-1.33 2-3 3.667-5 5 .67-2.667 2.33-4.333 5-5zM226.5 488.5c1.406.473 2.073 1.473 2 3-1.406-.473-2.073-1.473-2-3zM1746.5 490.5c1.53-.073 2.53.594 3 2-1.53.073-2.53-.594-3-2zM228.5 491.5c1.406.473 2.073 1.473 2 3-1.406-.473-2.073-1.473-2-3zM438.5 492.5c2.053-.098 3.72.569 5 2-2.053.098-3.72-.569-5-2zM1704.5 493.5c.07 1.527-.59 2.527-2 3-.07-1.527.59-2.527 2-3zM230.5 494.5c1.406.473 2.073 1.473 2 3-1.406-.473-2.073-1.473-2-3zM1751.5 494.5c5.33 3.333 9.67 7.667 13 13-4.67-4-9-8.333-13-13zM1702.5 496.5c.07 1.527-.59 2.527-2 3-.07-1.527.59-2.527 2-3zM232.5 497.5c1.406.473 2.073 1.473 2 3-1.406-.473-2.073-1.473-2-3zM460.5 501.5c2.053-.098 3.72.569 5 2-2.053.098-3.72-.569-5-2zM235.5 502.5c1.406.473 2.073 1.473 2 3-1.406-.473-2.073-1.473-2-3zM473.5 507.5c3.92.627 7.253 2.293 10 5-3.651-1.159-6.985-2.826-10-5zM238.5 507.5c1.406.473 2.073 1.473 2 3-1.406-.473-2.073-1.473-2-3zM1767.5 510.5c1.76.762 2.76 2.096 3 4-1.76-.762-2.76-2.096-3-4zM242.5 514.5c1.75 1.159 2.75 2.826 3 5-1.75-1.159-2.75-2.826-3-5zM1771.5 515.5c1.76.762 2.76 2.096 3 4-1.76-.762-2.76-2.096-3-4zM493.5 517.5c1.527-.073 2.527.594 3 2-1.527.073-2.527-.594-3-2zM500.5 521.5c1.527-.073 2.527.594 3 2-1.527.073-2.527-.594-3-2zM1775.5 520.5c1.41.473 2.07 1.473 2 3-1.41-.473-2.07-1.473-2-3zM507.5 525.5c1.527-.073 2.527.594 3 2-1.527.073-2.527-.594-3-2zM1778.5 524.5c1.41.473 2.07 1.473 2 3-1.41-.473-2.07-1.473-2-3zM512.5 528.5c1.527-.073 2.527.594 3 2-1.527.073-2.527-.594-3-2zM-.5 632.5v-10c5.32-48.497 31.654-78.997 79-91.5 49.395-7.219 85.895 10.948 109.5 54.5 17.899 45.563 9.066 85.063-26.5 118.5-37.981 27.509-77.314 29.509-118 6-26.749-19-41.416-44.833-44-77.5zM1780.5 527.5c1.41.473 2.07 1.473 2 3-1.41-.473-2.07-1.473-2-3zM517.5 531.5c1.527-.073 2.527.594 3 2-1.527.073-2.527-.594-3-2zM1783.5 531.5c1.41.473 2.07 1.473 2 3-1.41-.473-2.07-1.473-2-3zM522.5 534.5c1.527-.073 2.527.594 3 2-1.527.073-2.527-.594-3-2zM1785.5 534.5c1.41.473 2.07 1.473 2 3-1.41-.473-2.07-1.473-2-3zM253.5 535.5c1.431 1.28 2.098 2.947 2 5-1.431-1.28-2.098-2.947-2-5zM525.5 536.5c1.527-.073 2.527.594 3 2-1.527.073-2.527-.594-3-2zM1787.5 537.5c1.41.473 2.07 1.473 2 3-1.41-.473-2.07-1.473-2-3zM528.5 538.5c1.527-.073 2.527.594 3 2-1.527.073-2.527-.594-3-2zM531.5 540.5c1.527-.073 2.527.594 3 2-1.527.073-2.527-.594-3-2zM1789.5 540.5c1.41.473 2.07 1.473 2 3-1.41-.473-2.07-1.473-2-3zM534.5 542.5c1.527-.073 2.527.594 3 2-1.527.073-2.527-.594-3-2zM256.5 542.5c1.431 1.28 2.098 2.947 2 5-1.431-1.28-2.098-2.947-2-5zM537.5 544.5c1.527-.073 2.527.594 3 2-1.527.073-2.527-.594-3-2zM541.5 547.5c1.527-.073 2.527.594 3 2-1.527.073-2.527-.594-3-2zM545.5 550.5c1.527-.073 2.527.594 3 2-1.527.073-2.527-.594-3-2zM549.5 553.5c1.904.238 3.238 1.238 4 3-1.904-.238-3.238-1.238-4-3zm5 4c1.904.238 3.238 1.238 4 3-1.904-.238-3.238-1.238-4-3zM263.5 560.5c1.431 1.28 2.098 2.947 2 5-1.431-1.28-2.098-2.947-2-5zM560.5 562.5c2.589.919 4.589 2.586 6 5-2.589-.919-4.589-2.586-6-5zM1989.5 568.5c3.92.627 7.25 2.293 10 5-3.65-1.159-6.98-2.826-10-5zM2003.5 575.5c1.53-.073 2.53.594 3 2-1.53.073-2.53-.594-3-2zM2012.5 581.5c1.53-.073 2.53.594 3 2-1.53.073-2.53-.594-3-2zM580.5 581.5c2.414 1.411 4.081 3.411 5 6-2.414-1.411-4.081-3.411-5-6zM2015.5 583.5c1.9.238 3.24 1.238 4 3-1.9-.238-3.24-1.238-4-3zM2020.5 587.5c2.25.58 3.92 1.913 5 4-2.25-.58-3.92-1.913-5-4zM587.5 589.5c1.762.762 2.762 2.096 3 4-1.762-.762-2.762-2.096-3-4zM591.5 594.5c1.406.473 2.073 1.473 2 3-1.406-.473-2.073-1.473-2-3zm3 4c1.406.473 2.073 1.473 2 3-1.406-.473-2.073-1.473-2-3zM2033.5 599.5c2.09 1.085 3.42 2.751 4 5-2.09-1.085-3.42-2.751-4-5zM597.5 602.5c1.406.473 2.073 1.473 2 3-1.406-.473-2.073-1.473-2-3zM599.5 605.5c1.406.473 2.073 1.473 2 3-1.406-.473-2.073-1.473-2-3zM2039.5 606.5c1.41.473 2.07 1.473 2 3-1.41-.473-2.07-1.473-2-3zM601.5 608.5c1.406.473 2.073 1.473 2 3-1.406-.473-2.073-1.473-2-3zM2042.5 610.5c1.41.473 2.07 1.473 2 3-1.41-.473-2.07-1.473-2-3zM603.5 611.5c1.406.473 2.073 1.473 2 3-1.406-.473-2.073-1.473-2-3zM2044.5 613.5c1.41.473 2.07 1.473 2 3-1.41-.473-2.07-1.473-2-3zM606.5 616.5c1.406.473 2.073 1.473 2 3-1.406-.473-2.073-1.473-2-3zM2046.5 616.5c1.41.473 2.07 1.473 2 3-1.41-.473-2.07-1.473-2-3zM1886.5 620.5c-1.68 1.508-3.68 2.508-6 3 1.41-2.039 3.41-3.039 6-3zM1910.5 622.5c1.53-.073 2.53.594 3 2-1.53.073-2.53-.594-3-2zM2049.5 621.5c1.41.473 2.07 1.473 2 3-1.41-.473-2.07-1.473-2-3zM1880.5 623.5c-.47 1.406-1.47 2.073-3 2 .47-1.406 1.47-2.073 3-2zM1915.5 626.5c1.33 0 2 .667 2 2-1-.333-1.67-1-2-2zM1874.5 628.5c-.24 1.904-1.24 3.238-3 4 .24-1.904 1.24-3.238 3-4zM611.5 625.5c2.707 2.747 4.373 6.08 5 10-2.174-3.015-3.841-6.349-5-10zM1920.5 632.5c2.04 1.411 3.04 3.411 3 6-1.51-1.681-2.51-3.681-3-6zM1921.5 661.5c.07 1.527-.59 2.527-2 3-.07-1.527.59-2.527 2-3zM1871.5 662.5c1.41.473 2.07 1.473 2 3-1.41-.473-2.07-1.473-2-3zM1918.5 665.5c-.67 2.667-2.33 4.333-5 5 1.33-2 3-3.667 5-5zM1878.5 670.5c1.53-.073 2.53.594 3 2-1.53.073-2.53-.594-3-2zM753.5 695.5c.473 1.406 1.473 2.073 3 2 .473 1.406 1.473 2.073 3 2 .667 0 1 .333 1 1 1.085 2.087 2.751 3.42 5 4 3.667 3 7 6.333 10 10 .58 2.249 1.913 3.915 4 5 1 .333 1.667 1 2 2 .238 1.904 1.238 3.238 3 4 .667 0 1 .333 1 1-.073 1.527.594 2.527 2 3 .667 0 1 .333 1 1-.073 1.527.594 2.527 2 3 .667 0 1 .333 1 1-.073 1.527.594 2.527 2 3-.073 1.527.594 2.527 2 3 .667 0 1 .333 1 1-.073 1.527.594 2.527 2 3-.073 1.527.594 2.527 2 3-.073 1.527.594 2.527 2 3 .834 1.248 2.167 1.915 4 2 1.545-.011 2.878-.344 4-1 59.8-6.733 118.133-.399 175 19 1.28 1.431 2.947 2.098 5 2 8.536 2.603 16.54 6.27 24 11 .47 1.406 1.47 2.073 3 2 .99-.172 1.66.162 2 1 .47 1.406 1.47 2.073 3 2 .47 1.406 1.47 2.073 3 2 .67 0 1 .333 1 1 .47 1.406 1.47 2.073 3 2 .67 0 1 .333 1 1 .76 1.762 2.1 2.762 4 3a6.575 6.575 0 013 3c2.33 3 5 5.667 8 8a6.575 6.575 0 013 3c.24 1.904 1.24 3.238 3 4 .67 0 1 .333 1 1-.07 1.527.59 2.527 2 3 .67 0 1 .333 1 1-.07 1.527.59 2.527 2 3-.07 1.527.59 2.527 2 3 .84.342 1.17 1.008 1 2-.07 1.527.59 2.527 2 3 1.17 1.014 1.84 2.347 2 4 .49 2.319 1.49 4.319 3 6 2.12 2.588 3.46 5.588 4 9-.1 2.053.57 3.72 2 5 2.11 4.742 3.78 9.742 5 15-1.96 10.887-5.3 21.22-10 31-1.43 1.28-2.1 2.947-2 5 .17.992-.16 1.658-1 2-1.75 1.159-2.75 2.826-3 5 .17.992-.16 1.658-1 2-1.41.473-2.07 1.473-2 3-1.41.473-2.07 1.473-2 3 0 .667-.33 1-1 1-1.41.473-2.07 1.473-2 3-1.76.762-2.76 2.096-3 4 0 .667-.33 1-1 1-1.41.473-2.07 1.473-2 3 0 .667-.33 1-1 1-1.76.762-2.76 2.096-3 4 0 .667-.33 1-1 1-1.41.473-2.07 1.473-2 3 0 .667-.33 1-1 1-1.76.762-2.76 2.096-3 4 0 .667-.33 1-1 1-.96.453-1.79 1.119-2.5 2-.5 5.991-.67 11.991-.5 18-.14 71.34-.98 142.67-2.5 214-1.77 8.49-4.61 16.49-8.5 24-1.43 1.28-2.1 2.95-2 5-.49 2.32-1.49 4.32-3 6-1.51 1.68-2.51 3.68-3 6-.49 2.32-1.49 4.32-3 6-1.75 1.16-2.75 2.83-3 5-.61 1.93-1.61 3.6-3 5-1.41.47-2.07 1.47-2 3-1.41.47-2.07 1.47-2 3 0 .67-.33 1-1 1-1.406.47-2.073 1.47-2 3-1.406.47-2.073 1.47-2 3 0 .67-.333 1-1 1-1.762.76-2.762 2.1-3 4-.333 1-1 1.67-2 2-2.087 1.08-3.42 2.75-4 5a102.562 102.562 0 01-12 12c-2.249.58-3.915 1.91-5 4-.333 1-1 1.67-2 2-1.527-.07-2.527.59-3 2 0 .67-.333 1-1 1-1.904.24-3.238 1.24-4 3-1.527-.07-2.527.59-3 2-1.527-.07-2.527.59-3 2-1.527-.07-2.527.59-3 2-1.527-.07-2.527.59-3 2-1.014 1.17-2.347 1.84-4 2-1.527-.07-2.527.59-3 2-2.349 1.84-5.015 3.17-8 4-2.053-.1-3.72.57-5 2-22.753 10.35-46.753 15.35-72 15-22.595.35-44.261-3.65-65-12-1.28-1.43-2.947-2.1-5-2a66.142 66.142 0 01-17-8c-.473-1.41-1.473-2.07-3-2-.992.17-1.658-.16-2-1-.473-1.41-1.473-2.07-3-2-.992.17-1.658-.16-2-1-.473-1.41-1.473-2.07-3-2-.473-1.41-1.473-2.07-3-2-.667 0-1-.33-1-1-.473-1.41-1.473-2.07-3-2-.667 0-1-.33-1-1-.473-1.41-1.473-2.07-3-2-1-.33-1.667-1-2-2-.762-1.76-2.096-2.76-4-3-4.667-4-9-8.33-13-13-.58-2.25-1.913-3.92-4-5-1-.33-1.667-1-2-2 .073-1.53-.594-2.53-2-3-.667 0-1-.33-1-1 .073-1.53-.594-2.53-2-3-.667 0-1-.33-1-1 .073-1.53-.594-2.53-2-3 .073-1.53-.594-2.53-2-3-1.39-1.4-2.39-3.07-3-5-.25-2.17-1.25-3.84-3-5a68.872 68.872 0 01-7-14c.098-2.05-.569-3.72-2-5-1.431-1.28-2.098-2.95-2-5 .098-2.05-.569-3.72-2-5-.768-.76-1.268-1.76-1.5-3a2136.586 2136.586 0 01-7-280 1500.945 1500.945 0 019-135 420.678 420.678 0 017-40c2.101-10.134 5.268-19.801 9.5-29 1.431-1.28 2.098-2.947 2-5-.172-.992.162-1.658 1-2 1.75-1.159 2.75-2.826 3-5 1.406-.473 2.073-1.473 2-3 1.762-.762 2.762-2.096 3-4a6.547 6.547 0 013-3c1.527.073 2.527-.594 3-2 3.591-3.306 7.925-4.639 13-4 6.044-.317 11.377 1.349 16 5zm163 133c1.28 1.431 2.947 2.098 5 2 .473 1.406 1.473 2.073 3 2 2 2.667 4.333 5 7 7 6.256 10.479 6.589 21.146 1 32-1.406.473-2.073 1.473-2 3-1.667 1-3 2.333-4 4-1.527-.073-2.527.594-3 2-1.653.16-2.986.826-4 2-9.824 3.319-19.157 2.319-28-3-.473-1.406-1.473-2.073-3-2 0-.667-.333-1-1-1-.238-1.904-1.238-3.238-3-4 .073-1.527-.594-2.527-2-3-3.486-7.878-3.819-15.878-1-24 1.174-1.014 1.84-2.347 2-4 .901-.79 1.568-1.79 2-3 2-1.333 3.667-3 5-5 1.21-.432 2.21-1.099 3-2 1.653-.16 2.986-.826 4-2 6.237-2.129 12.571-2.462 19-1zM2058.5 688.5c.1 2.053-.57 3.72-2 5-.1-2.053.57-3.72 2-5z"/><path d="M724.5 694.5c-.473 1.406-1.473 2.073-3 2 .473-1.406 1.473-2.073 3-2zM753.5 695.5c1.527-.073 2.527.594 3 2-1.527.073-2.527-.594-3-2zM756.5 697.5c1.527-.073 2.527.594 3 2-1.527.073-2.527-.594-3-2zM718.5 699.5c-.238 1.904-1.238 3.238-3 4 .238-1.904 1.238-3.238 3-4zM760.5 700.5c2.249.58 3.915 1.913 5 4-2.249-.58-3.915-1.913-5-4zM715.5 703.5c.073 1.527-.594 2.527-2 3-.073-1.527.594-2.527 2-3zM2050.5 705.5c.07 1.527-.59 2.527-2 3-.07-1.527.59-2.527 2-3zM713.5 706.5c-.25 2.174-1.25 3.841-3 5 .25-2.174 1.25-3.841 3-5zM2048.5 708.5c.07 1.527-.59 2.527-2 3-.07-1.527.59-2.527 2-3zM2046.5 711.5c.07 1.527-.59 2.527-2 3-.07-1.527.59-2.527 2-3zM709.5 713.5c.098 2.053-.569 3.72-2 5-.098-2.053.569-3.72 2-5zM775.5 714.5c2.087 1.085 3.42 2.751 4 5-2.087-1.085-3.42-2.751-4-5zM2043.5 715.5c.07 1.527-.59 2.527-2 3-.07-1.527.59-2.527 2-3zM2040.5 719.5c.07 1.527-.59 2.527-2 3-.07-1.527.59-2.527 2-3zM781.5 721.5c1.762.762 2.762 2.096 3 4-1.762-.762-2.762-2.096-3-4zM2037.5 723.5c-.24 1.904-1.24 3.238-3 4 .24-1.904 1.24-3.238 3-4zM785.5 726.5c1.406.473 2.073 1.473 2 3-1.406-.473-2.073-1.473-2-3zM2033.5 728.5c-.24 1.904-1.24 3.238-3 4 .24-1.904 1.24-3.238 3-4zM788.5 730.5c1.406.473 2.073 1.473 2 3-1.406-.473-2.073-1.473-2-3zM791.5 734.5c1.406.473 2.073 1.473 2 3-1.406-.473-2.073-1.473-2-3zM2029.5 733.5c.07 1.527-.59 2.527-2 3-.07-1.527.59-2.527 2-3zM793.5 737.5c1.406.473 2.073 1.473 2 3-1.406-.473-2.073-1.473-2-3zM2026.5 737.5c-.24 1.904-1.24 3.238-3 4 .24-1.904 1.24-3.238 3-4zM796.5 741.5c1.406.473 2.073 1.473 2 3-1.406-.473-2.073-1.473-2-3zM798.5 744.5c1.406.473 2.073 1.473 2 3-1.406-.473-2.073-1.473-2-3zM800.5 747.5c1.406.473 2.073 1.473 2 3-1.406-.473-2.073-1.473-2-3zM802.5 750.5c2.554.888 5.221 1.221 8 1-1.122.656-2.455.989-4 1-1.833-.085-3.166-.752-4-2zM985.5 770.5c2.053-.098 3.72.569 5 2-2.053.098-3.72-.569-5-2zM1014.5 783.5c1.53-.073 2.53.594 3 2-1.53.073-2.53-.594-3-2zM1019.5 786.5c1.53-.073 2.53.594 3 2-1.53.073-2.53-.594-3-2zm3 2c1.53-.073 2.53.594 3 2-1.53.073-2.53-.594-3-2zM1026.5 791.5c1.53-.073 2.53.594 3 2-1.53.073-2.53-.594-3-2zM1030.5 794.5c1.9.238 3.24 1.238 4 3-1.9-.238-3.24-1.238-4-3zM1037.5 800.5c3.67 1.667 6.33 4.333 8 8-3-2.333-5.67-5-8-8zM1048.5 811.5c1.76.762 2.76 2.096 3 4-1.76-.762-2.76-2.096-3-4zM1052.5 816.5c1.41.473 2.07 1.473 2 3-1.41-.473-2.07-1.473-2-3zM1055.5 820.5c1.41.473 2.07 1.473 2 3-1.41-.473-2.07-1.473-2-3zM1057.5 823.5c1.41.473 2.07 1.473 2 3-1.41-.473-2.07-1.473-2-3zM916.5 828.5c2.053-.098 3.72.569 5 2-2.053.098-3.72-.569-5-2zM897.5 829.5c-1.014 1.174-2.347 1.84-4 2 .787-1.604 2.12-2.271 4-2zM921.5 830.5c1.527-.073 2.527.594 3 2-1.527.073-2.527-.594-3-2zM1060.5 828.5c1.41.473 2.07 1.473 2 3-1.41-.473-2.07-1.473-2-3zM924.5 832.5c3.333 1.333 5.667 3.667 7 7-2.667-2-5-4.333-7-7zM890.5 833.5c-1.333 2-3 3.667-5 5 .667-2.667 2.333-4.333 5-5zM1064.5 835.5c2.04 1.411 3.04 3.411 3 6-1.51-1.681-2.51-3.681-3-6zM883.5 841.5c-.16 1.653-.826 2.986-2 4-.271-1.88.396-3.213 2-4zM1071.5 850.5c1.43 1.28 2.1 2.947 2 5-1.43-1.28-2.1-2.947-2-5zM882.5 869.5c1.406.473 2.073 1.473 2 3-1.406-.473-2.073-1.473-2-3zM932.5 871.5c.073 1.527-.594 2.527-2 3-.073-1.527.594-2.527 2-3zM884.5 872.5c1.762.762 2.762 2.096 3 4-1.762-.762-2.762-2.096-3-4zM888.5 877.5c1.527-.073 2.527.594 3 2-1.527.073-2.527-.594-3-2zM926.5 878.5c-.473 1.406-1.473 2.073-3 2 .473-1.406 1.473-2.073 3-2zM923.5 880.5c-.787 1.604-2.12 2.271-4 2 1.014-1.174 2.347-1.84 4-2zM1068.5 901.5c.1 2.053-.57 3.72-2 5-.1-2.053.57-3.72 2-5zM1065.5 908.5c-.25 2.174-1.25 3.841-3 5 .25-2.174 1.25-3.841 3-5zM1061.5 915.5c.07 1.527-.59 2.527-2 3-.07-1.527.59-2.527 2-3zM1059.5 918.5c.07 1.527-.59 2.527-2 3-.07-1.527.59-2.527 2-3zM1056.5 922.5c.07 1.527-.59 2.527-2 3-.07-1.527.59-2.527 2-3zM1054.5 925.5c-.24 1.904-1.24 3.238-3 4 .24-1.904 1.24-3.238 3-4zM1050.5 930.5c.07 1.527-.59 2.527-2 3-.07-1.527.59-2.527 2-3zM1047.5 934.5c-.24 1.904-1.24 3.238-3 4 .24-1.904 1.24-3.238 3-4zM1043.5 939.5c.07 1.527-.59 2.527-2 3-.07-1.527.59-2.527 2-3zM1040.5 943.5c-.24 1.904-1.24 3.238-3 4 .24-1.904 1.24-3.238 3-4zM1036.5 948.5c.04 1.256-.46 2.256-1.5 3-.17 5.848-.67 11.515-1.5 17-.17-6.009 0-12.009.5-18 .71-.881 1.54-1.547 2.5-2zM1293.5 949.5c1.43 1.28 2.1 2.947 2 5-1.43-1.28-2.1-2.947-2-5zM1301.5 966.5c1.41.473 2.07 1.473 2 3-1.41-.473-2.07-1.473-2-3zM1305.5 973.5c1.41.473 2.07 1.473 2 3-1.41-.473-2.07-1.473-2-3zM1307.5 976.5c1.41.473 2.07 1.473 2 3-1.41-.473-2.07-1.473-2-3zm2 3c1.41.473 2.07 1.473 2 3-1.41-.473-2.07-1.473-2-3zm2 3c1.41.473 2.07 1.473 2 3-1.41-.473-2.07-1.473-2-3zM1313.5 985.5c1.41.473 2.07 1.473 2 3-1.41-.473-2.07-1.473-2-3zM1316.5 989.5c1.41.473 2.07 1.473 2 3-1.41-.473-2.07-1.473-2-3zM1319.5 993.5c1.76.762 2.76 2.096 3 4-1.76-.762-2.76-2.096-3-4zM1324.5 999.5c2.09 1.08 3.42 2.75 4 5-2.09-1.08-3.42-2.75-4-5zM2008.5 1002.5c.1 2.05-.57 3.72-2 5-.1-2.05.57-3.72 2-5zM1684.5 1011.5c1.79 1.93 2.79 4.26 3 7-1.79-1.93-2.79-4.26-3-7zM1341.5 1017.5c2.59.92 4.59 2.59 6 5-2.59-.92-4.59-2.59-6-5zM2001.5 1017.5c-.25 2.17-1.25 3.84-3 5 .25-2.17 1.25-3.84 3-5zM1687.5 1018.5c2.09 1.84 3.42 4.17 4 7-2.09-1.84-3.42-4.17-4-7zM1349.5 1024.5c1.9.24 3.24 1.24 4 3-1.9-.24-3.24-1.24-4-3zM1997.5 1024.5c.07 1.53-.59 2.53-2 3-.07-1.53.59-2.53 2-3zM1354.5 1028.5c1.53-.07 2.53.59 3 2-1.53.07-2.53-.59-3-2zM1693.5 1029.5c1.41.47 2.07 1.47 2 3-1.41-.47-2.07-1.47-2-3zM1994.5 1029.5c.07 1.53-.59 2.53-2 3-.07-1.53.59-2.53 2-3zM1358.5 1031.5c1.53-.07 2.53.59 3 2-1.53.07-2.53-.59-3-2zM1362.5 1034.5c1.53-.07 2.53.59 3 2-1.53.07-2.53-.59-3-2zM1992.5 1032.5c.07 1.53-.59 2.53-2 3-.07-1.53.59-2.53 2-3zM1365.5 1036.5c1.53-.07 2.53.59 3 2-1.53.07-2.53-.59-3-2zM1990.5 1035.5c.07 1.53-.59 2.53-2 3-.07-1.53.59-2.53 2-3zM1643.5 1039.5c1.43 1.28 2.1 2.95 2 5-1.43-1.28-2.1-2.95-2-5zM1698.5 1037.5c1.41.47 2.07 1.47 2 3-1.41-.47-2.07-1.47-2-3zM1987.5 1039.5c.07 1.53-.59 2.53-2 3-.07-1.53.59-2.53 2-3zM1374.5 1042.5c1.53-.07 2.53.59 3 2-1.53.07-2.53-.59-3-2zM1701.5 1041.5c1.41.47 2.07 1.47 2 3-1.41-.47-2.07-1.47-2-3zM1377.5 1044.5c1.53-.07 2.53.59 3 2-1.53.07-2.53-.59-3-2zM1984.5 1043.5c.07 1.53-.59 2.53-2 3-.07-1.53.59-2.53 2-3zM1703.5 1044.5c1.76.76 2.76 2.1 3 4-1.76-.76-2.76-2.1-3-4zM1382.5 1047.5c2.17.25 3.84 1.25 5 3-2.17-.25-3.84-1.25-5-3zM1980.5 1048.5c-.24 1.9-1.24 3.24-3 4 .24-1.9 1.24-3.24 3-4zm-273 1c1.76.76 2.76 2.1 3 4-1.76-.76-2.76-2.1-3-4zM1391.5 1052.5c2.17.25 3.84 1.25 5 3-2.17-.25-3.84-1.25-5-3zM1406.5 1060.5c2.74.21 5.07 1.21 7 3-2.74-.21-5.07-1.21-7-3zM1713.5 1056.5c4.67 4 9 8.33 13 13a40.364 40.364 0 01-13-13zM1974.5 1055.5a40.364 40.364 0 01-13 13c4-4.67 8.33-9 13-13zM1652.5 1058.5c1.75 1.16 2.75 2.83 3 5-1.75-1.16-2.75-2.83-3-5zM1417.5 1065.5c2.05-.1 3.72.57 5 2-2.05.1-3.72-.57-5-2zM1657.5 1067.5c1.41.47 2.07 1.47 2 3-1.41-.47-2.07-1.47-2-3zM1958.5 1071.5c-.76 1.76-2.1 2.76-4 3 .76-1.76 2.1-2.76 4-3zM1729.5 1072.5c1.9.24 3.24 1.24 4 3-1.9-.24-3.24-1.24-4-3zM1660.5 1072.5c1.41.47 2.07 1.47 2 3-1.41-.47-2.07-1.47-2-3zM1734.5 1076.5c1.53-.07 2.53.59 3 2-1.53.07-2.53-.59-3-2zM1953.5 1075.5c-.47 1.41-1.47 2.07-3 2 .47-1.41 1.47-2.07 3-2zM1662.5 1075.5c1.41.47 2.07 1.47 2 3-1.41-.47-2.07-1.47-2-3zM1949.5 1078.5c-.47 1.41-1.47 2.07-3 2 .47-1.41 1.47-2.07 3-2zM1738.5 1079.5c1.53-.07 2.53.59 3 2-1.53.07-2.53-.59-3-2zM1741.5 1081.5c1.53-.07 2.53.59 3 2-1.53.07-2.53-.59-3-2zm3 2c1.53-.07 2.53.59 3 2-1.53.07-2.53-.59-3-2zM1668.5 1084.5c1.41.47 2.07 1.47 2 3-1.41-.47-2.07-1.47-2-3zM1747.5 1085.5c1.53-.07 2.53.59 3 2-1.53.07-2.53-.59-3-2zM1937.5 1086.5c-.47 1.41-1.47 2.07-3 2 .47-1.41 1.47-2.07 3-2zM1670.5 1087.5c1.41.47 2.07 1.47 2 3-1.41-.47-2.07-1.47-2-3zM1754.5 1089.5c1.53-.07 2.53.59 3 2-1.53.07-2.53-.59-3-2zM1930.5 1090.5c-1.16 1.75-2.83 2.75-5 3 1.16-1.75 2.83-2.75 5-3zM1672.5 1090.5c1.41.47 2.07 1.47 2 3-1.41-.47-2.07-1.47-2-3zM1921.5 1095.5c-1.28 1.43-2.95 2.1-5 2 1.28-1.43 2.95-2.1 5-2zM1675.5 1094.5c1.41.47 2.07 1.47 2 3-1.41-.47-2.07-1.47-2-3zM1765.5 1095.5c2.05-.1 3.72.57 5 2-2.05.1-3.72-.57-5-2zM1914.5 1098.5c-1.28 1.43-2.95 2.1-5 2 1.28-1.43 2.95-2.1 5-2zM1678.5 1098.5c1.76.76 2.76 2.1 3 4-1.76-.76-2.76-2.1-3-4zM1682.5 1103.5c1.76.76 2.76 2.1 3 4-1.76-.76-2.76-2.1-3-4zM1687.5 1109.5c1.31.65 2.31 1.65 3 3-2.14 1.29-4.14 1.29-6 0 1.37.16 2.71-.01 4-.5-.75-.67-1.09-1.5-1-2.5zM301.5 1148.5c1.431 1.28 2.098 2.95 2 5-1.431-1.28-2.098-2.95-2-5zM308.5 1164.5c2.174 3.02 3.841 6.35 5 10-2.707-2.75-4.373-6.08-5-10zM315.5 1178.5c1.406.47 2.073 1.47 2 3-1.406-.47-2.073-1.47-2-3zM318.5 1183.5c1.406.47 2.073 1.47 2 3-1.406-.47-2.073-1.47-2-3zm6 9c1.406.47 2.073 1.47 2 3-1.406-.47-2.073-1.47-2-3zM1315.5 1196.5c41.59-2.46 73.75 13.54 96.5 48 20.73 40.53 17.4 78.86-10 115-28.23 29.74-62.4 39.91-102.5 30.5-40.05-13.38-63.55-40.88-70.5-82.5-3.7-44.77 13.8-78.27 52.5-100.5 10.98-5.07 22.31-8.57 34-10.5zM326.5 1195.5c1.406.47 2.073 1.47 2 3-1.406-.47-2.073-1.47-2-3zM329.5 1199.5c1.762.76 2.762 2.1 3 4-1.762-.76-2.762-2.1-3-4zm4 5c1.762.76 2.762 2.1 3 4-1.762-.76-2.762-2.1-3-4zM690.5 1205.5c1.431 1.28 2.098 2.95 2 5-1.431-1.28-2.098-2.95-2-5zM1022.5 1206.5c.1 2.05-.57 3.72-2 5-.1-2.05.57-3.72 2-5zM339.5 1211.5c5.667 5 11 10.33 16 16a60.87 60.87 0 01-16-16zM694.5 1215.5c1.431 1.28 2.098 2.95 2 5-1.431-1.28-2.098-2.95-2-5zM1017.5 1217.5c.04 2.59-.96 4.59-3 6 .49-2.32 1.49-4.32 3-6zM358.5 1230.5c2.249.58 3.915 1.91 5 4-2.249-.58-3.915-1.91-5-4zM1011.5 1229.5c-.25 2.17-1.25 3.84-3 5 .25-2.17 1.25-3.84 3-5zM364.5 1235.5c1.904.24 3.238 1.24 4 3-1.904-.24-3.238-1.24-4-3zM703.5 1234.5c1.75 1.16 2.75 2.83 3 5-1.75-1.16-2.75-2.83-3-5zM369.5 1239.5c1.527-.07 2.527.59 3 2-1.527.07-2.527-.59-3-2zM1005.5 1239.5c.07 1.53-.59 2.53-2 3-.07-1.53.59-2.53 2-3zM372.5 1241.5c1.904.24 3.238 1.24 4 3-1.904-.24-3.238-1.24-4-3zM653.5 1243.5c1.431 1.28 2.098 2.95 2 5-1.431-1.28-2.098-2.95-2-5zM376.5 1244.5c1.527-.07 2.527.59 3 2-1.527.07-2.527-.59-3-2zM1003.5 1242.5c.07 1.53-.59 2.53-2 3-.07-1.53.59-2.53 2-3zm-294 2c1.406.47 2.073 1.47 2 3-1.406-.47-2.073-1.47-2-3zM379.5 1246.5c1.527-.07 2.527.59 3 2-1.527.07-2.527-.59-3-2zM1000.5 1246.5c.07 1.53-.594 2.53-2 3-.073-1.53.594-2.53 2-3zM382.5 1248.5c1.527-.07 2.527.59 3 2-1.527.07-2.527-.59-3-2zM711.5 1247.5c1.406.47 2.073 1.47 2 3-1.406-.47-2.073-1.47-2-3zM385.5 1250.5c1.527-.07 2.527.59 3 2-1.527.07-2.527-.59-3-2zM998.5 1249.5c.073 1.53-.594 2.53-2 3-.073-1.53.594-2.53 2-3zM714.5 1251.5c1.406.47 2.073 1.47 2 3-1.406-.47-2.073-1.47-2-3zM995.5 1253.5c-.238 1.9-1.238 3.24-3 4 .238-1.9 1.238-3.24 3-4zM393.5 1255.5c2.174.25 3.841 1.25 5 3-2.174-.25-3.841-1.25-5-3zM717.5 1255.5c1.406.47 2.073 1.47 2 3-1.406-.47-2.073-1.47-2-3zM402.5 1260.5c1.527-.07 2.527.59 3 2-1.527.07-2.527-.59-3-2zm256-6c2.508 3.68 4.508 7.68 6 12-3.04-3.41-5.04-7.41-6-12zM721.5 1260.5c2.087 1.08 3.42 2.75 4 5-2.087-1.08-3.42-2.75-4-5zM990.5 1259.5c-.58 2.25-1.913 3.92-4 5 .58-2.25 1.913-3.92 4-5zM421.5 1270.5c2.053-.1 3.72.57 5 2-2.053.1-3.72-.57-5-2zM667.5 1272.5c1.406.47 2.073 1.47 2 3-1.406-.47-2.073-1.47-2-3zM430.5 1274.5c2.053-.1 3.72.57 5 2-2.053.1-3.72-.57-5-2zM974.5 1276.5c-1.085 2.09-2.751 3.42-5 4 1.085-2.09 2.751-3.42 5-4zM738.5 1278.5c1.904.24 3.238 1.24 4 3-1.904-.24-3.238-1.24-4-3zM445.5 1280.5c2.053-.1 3.72.57 5 2-2.053.1-3.72-.57-5-2zM671.5 1279.5c1.406.47 2.073 1.47 2 3-1.406-.47-2.073-1.47-2-3zM967.5 1282.5c-.473 1.41-1.473 2.07-3 2 .473-1.41 1.473-2.07 3-2zM456.5 1284.5c2.053-.1 3.72.57 5 2-2.053.1-3.72-.57-5-2zM673.5 1282.5c1.406.47 2.073 1.47 2 3-1.406-.47-2.073-1.47-2-3zM744.5 1283.5c1.527-.07 2.527.59 3 2-1.527.07-2.527-.59-3-2zM748.5 1286.5c1.527-.07 2.527.59 3 2-1.527.07-2.527-.59-3-2zM963.5 1285.5c-.762 1.76-2.096 2.76-4 3 .762-1.76 2.096-2.76 4-3zM752.5 1289.5c1.527-.07 2.527.59 3 2-1.527.07-2.527-.59-3-2zM959.5 1288.5c-.473 1.41-1.473 2.07-3 2 .473-1.41 1.473-2.07 3-2zM956.5 1290.5c-.473 1.41-1.473 2.07-3 2 .473-1.41 1.473-2.07 3-2zM678.5 1290.5c1.406.47 2.073 1.47 2 3-1.406-.47-2.073-1.47-2-3zM755.5 1291.5c1.527-.07 2.527.59 3 2-1.527.07-2.527-.59-3-2zM327.5 1293.5c41.571-2.46 73.738 13.54 96.5 48 21.015 41.12 17.349 79.78-11 116-29.127 29.99-63.961 39.49-104.5 28.5-48.591-19.29-71.091-55.12-67.5-107.5 7.413-41.08 30.913-68.25 70.5-81.5a780.341 780.341 0 0116-3.5zM953.5 1292.5c-.473 1.41-1.473 2.07-3 2 .473-1.41 1.473-2.07 3-2zM760.5 1294.5c1.527-.07 2.527.59 3 2-1.527.07-2.527-.59-3-2zM950.5 1294.5c-.473 1.41-1.473 2.07-3 2 .473-1.41 1.473-2.07 3-2zM765.5 1297.5c1.527-.07 2.527.59 3 2-1.527.07-2.527-.59-3-2zM683.5 1297.5c1.406.47 2.073 1.47 2 3-1.406-.47-2.073-1.47-2-3zM943.5 1298.5c-.473 1.41-1.473 2.07-3 2 .473-1.41 1.473-2.07 3-2zM685.5 1300.5c1.762.76 2.762 2.1 3 4-1.762-.76-2.762-2.1-3-4zM932.5 1304.5c-1.28 1.43-2.947 2.1-5 2 1.28-1.43 2.947-2.1 5-2zM688.5 1304.5c1.762.76 2.762 2.1 3 4-1.762-.76-2.762-2.1-3-4zM785.5 1307.5c2.053-.1 3.72.57 5 2-2.053.1-3.72-.57-5-2zM692.5 1309.5c1.406.47 2.073 1.47 2 3-1.406-.47-2.073-1.47-2-3zM696.5 1314.5c1.762.76 2.762 2.1 3 4-1.762-.76-2.762-2.1-3-4zM700.5 1319.5c.789.28 1.456.78 2 1.5-8.51.82-16.844.66-25-.5 7.852.33 15.518-.01 23-1zM1426.5 1480.5c1.28 1.43 2.95 2.1 5 2 6.07 1.54 11.73 3.87 17 7 1.28 1.43 2.95 2.1 5 2 2.98.83 5.65 2.16 8 4 3.02 2.17 6.35 3.84 10 5 2.98.83 5.65 2.16 8 4 1.16 1.75 2.83 2.75 5 3 1.65.16 2.99.83 4 2 .47 1.41 1.47 2.07 3 2 1.65.16 2.99.83 4 2 .47 1.41 1.47 2.07 3 2 .99-.17 1.66.16 2 1 .47 1.41 1.47 2.07 3 2 .99-.17 1.66.16 2 1 .47 1.41 1.47 2.07 3 2 .99-.17 1.66.16 2 1 .47 1.41 1.47 2.07 3 2 .47 1.41 1.47 2.07 3 2 .47 1.41 1.47 2.07 3 2 .47 1.41 1.47 2.07 3 2 .47 1.41 1.47 2.07 3 2 .47 1.41 1.47 2.07 3 2 .67 0 1 .33 1 1 .47 1.41 1.47 2.07 3 2 .67 0 1 .33 1 1 .47 1.41 1.47 2.07 3 2 .67 0 1 .33 1 1 .76 1.76 2.1 2.76 4 3 .67 0 1 .33 1 1 .76 1.76 2.1 2.76 4 3 1 .33 1.67 1 2 2 1.74 2.74 4.07 4.74 7 6 4.67 4 9 8.33 13 13 .92 2.59 2.59 4.59 5 6 1 .33 1.67 1 2 2 .24 1.9 1.24 3.24 3 4 .67 0 1 .33 1 1-.07 1.53.59 2.53 2 3 .67 0 1 .33 1 1-.07 1.53.59 2.53 2 3 .67 0 1 .33 1 1-.07 1.53.59 2.53 2 3-.07 1.53.59 2.53 2 3-.07 1.53.59 2.53 2 3-.07 1.53.59 2.53 2 3 .84.34 1.17 1.01 1 2-.07 1.53.59 2.53 2 3 1.51 1.68 2.51 3.68 3 6 1.49 4.32 3.49 8.32 6 12 12.94 27.76 19.6 57.1 20 88-1.95 141.01-3.95 282.01-6 423 2.24 32.88 9.57 64.55 22 95-.1 2.05.57 3.72 2 5 1.51 1.68 2.51 3.68 3 6 .63 3.92 2.29 7.25 5 10 1.84 2.35 3.17 5.02 4 8-.07 1.53.59 2.53 2 3 .84.34 1.17 1.01 1 2-.07 1.53.59 2.53 2 3 .84.34 1.17 1.01 1 2-.07 1.53.59 2.53 2 3 3.03 3.71 5.69 7.71 8 12-.07 1.53.59 2.53 2 3 .24 1.9 1.24 3.24 3 4 .24 1.9 1.24 3.24 3 4 .67 0 1 .33 1 1-.07 1.53.59 2.53 2 3 1 .33 1.67 1 2 2 .24 1.9 1.24 3.24 3 4 .67 0 1 .33 1 1-7.48.99-15.15 1.33-23 1-66.83-.9-132.5-10.07-197-27.5-15.51-4.44-30.51-9.94-45-16.5-1.28-1.43-2.95-2.1-5-2-1.65-.16-2.99-.83-4-2-1.28-1.43-2.95-2.1-5-2a90.225 90.225 0 01-16-8c-1.16-1.75-2.83-2.75-5-3-.99.17-1.66-.16-2-1-1.16-1.75-2.83-2.75-5-3-1.93-.61-3.6-1.61-5-3-.47-1.41-1.47-2.07-3-2-.47-1.41-1.47-2.07-3-2-.47-1.41-1.47-2.07-3-2-.47-1.41-1.47-2.07-3-2-.47-1.41-1.47-2.07-3-2-.67 0-1-.33-1-1-.47-1.41-1.47-2.07-3-2-.67 0-1-.33-1-1-.76-1.76-2.1-2.76-4-3-.67 0-1-.33-1-1-1.08-2.09-2.75-3.42-5-4a6.603 6.603 0 01-3-3c-5-5.67-10.33-11-16-16a6.603 6.603 0 01-3-3c-.24-1.9-1.24-3.24-3-4-.67 0-1-.33-1-1-.24-1.9-1.24-3.24-3-4-.67 0-1-.33-1-1 .07-1.53-.59-2.53-2-3 .07-1.53-.59-2.53-2-3-1.83-1.65-3.16-3.65-4-6 .07-1.53-.59-2.53-2-3-.84-.34-1.17-1.01-1-2 .07-1.53-.59-2.53-2-3-1.51-1.68-2.51-3.68-3-6-.83-2.98-2.16-5.65-4-8-2.45-3.24-4.12-6.91-5-11 .1-2.05-.57-3.72-2-5-12-31.83-19.5-64.83-22.5-99-1.9-18.63-3.24-37.29-4-56-.67-36.33-.67-72.67 0-109 2.23-59.7 5.23-119.37 9-179 2.99-57.22-6.51-112.22-28.5-165 .1-2.05-.57-3.72-2-5a112.86 112.86 0 01-9-18c.07-1.53-.59-2.53-2-3-1.17-1.01-1.84-2.35-2-4 .07-1.53-.59-2.53-2-3-.84-.34-1.17-1.01-1-2 .07-1.53-.59-2.53-2-3-.84-.34-1.17-1.01-1-2 .07-1.53-.59-2.53-2-3 .07-1.53-.59-2.53-2-3 .07-1.53-.59-2.53-2-3 .07-1.53-.59-2.53-2-3 .07-1.53-.59-2.53-2-3-.67 0-1-.33-1-1 .07-1.53-.59-2.53-2-3 .07-1.53-.59-2.53-2-3-.67 0-1-.33-1-1 .07-1.53-.59-2.53-2-3-2.49-.96-2.49-1.79 0-2.5 67.94-9.97 134.94-5.64 201 13 7.21 2.23 14.21 4.73 21 7.5z"/><path d="M1204.5 1462.5c1.41.47 2.07 1.47 2 3-1.41-.47-2.07-1.47-2-3zm3 4c1.41.47 2.07 1.47 2 3-1.41-.47-2.07-1.47-2-3zM1209.5 1469.5c1.41.47 2.07 1.47 2 3-1.41-.47-2.07-1.47-2-3zM1212.5 1473.5c1.41.47 2.07 1.47 2 3-1.41-.47-2.07-1.47-2-3zM1214.5 1476.5c1.41.47 2.07 1.47 2 3-1.41-.47-2.07-1.47-2-3zm2 3c1.41.47 2.07 1.47 2 3-1.41-.47-2.07-1.47-2-3zM1426.5 1480.5c2.05-.1 3.72.57 5 2-2.05.1-3.72-.57-5-2zM1218.5 1482.5c1.41.47 2.07 1.47 2 3-1.41-.47-2.07-1.47-2-3zM1220.5 1485.5c1.41.47 2.07 1.47 2 3-1.41-.47-2.07-1.47-2-3zM1448.5 1489.5c2.05-.1 3.72.57 5 2-2.05.1-3.72-.57-5-2zM1223.5 1490.5c1.41.47 2.07 1.47 2 3-1.41-.47-2.07-1.47-2-3zM1461.5 1495.5c3.92.63 7.25 2.29 10 5a35.379 35.379 0 01-10-5zM1226.5 1495.5c1.41.47 2.07 1.47 2 3-1.41-.47-2.07-1.47-2-3zM1230.5 1502.5c1.41.47 2.07 1.47 2 3-1.41-.47-2.07-1.47-2-3zM1479.5 1504.5c2.17.25 3.84 1.25 5 3-2.17-.25-3.84-1.25-5-3zM1488.5 1509.5c1.53-.07 2.53.59 3 2-1.53.07-2.53-.59-3-2zM1495.5 1513.5c1.53-.07 2.53.59 3 2-1.53.07-2.53-.59-3-2zM1500.5 1516.5c1.53-.07 2.53.59 3 2-1.53.07-2.53-.59-3-2zM1072.5 1517.5c51.82-3.53 87.66 18.47 107.5 66 13.14 48.59-.7 87.43-41.5 116.5-36.08 19.85-71.74 19.18-107-2-36.295-27.11-49.795-62.95-40.5-107.5 12.57-40.74 39.74-65.07 81.5-73zM1505.5 1519.5c1.53-.07 2.53.59 3 2-1.53.07-2.53-.59-3-2zM1510.5 1522.5c1.53-.07 2.53.59 3 2-1.53.07-2.53-.59-3-2zM1241.5 1523.5c1.43 1.28 2.1 2.95 2 5-1.43-1.28-2.1-2.95-2-5zM1513.5 1524.5c1.53-.07 2.53.59 3 2-1.53.07-2.53-.59-3-2zm3 2c1.53-.07 2.53.59 3 2-1.53.07-2.53-.59-3-2zm3 2c1.53-.07 2.53.59 3 2-1.53.07-2.53-.59-3-2zm3 2c1.53-.07 2.53.59 3 2-1.53.07-2.53-.59-3-2zM1525.5 1532.5c1.53-.07 2.53.59 3 2-1.53.07-2.53-.59-3-2zM1529.5 1535.5c1.53-.07 2.53.59 3 2-1.53.07-2.53-.59-3-2zm4 3c1.53-.07 2.53.59 3 2-1.53.07-2.53-.59-3-2zM1537.5 1541.5c1.9.24 3.24 1.24 4 3-1.9-.24-3.24-1.24-4-3zm5 4c1.9.24 3.24 1.24 4 3-1.9-.24-3.24-1.24-4-3zM471.5 1591.5c4.349 2.84 9.016 5.17 14 7 2.985.83 5.651 2.16 8 4 .473 1.41 1.473 2.07 3 2 1.653.16 2.986.83 4 2 1.159 1.75 2.826 2.75 5 3 .992-.17 1.658.16 2 1 .473 1.41 1.473 2.07 3 2 1.653.16 2.986.83 4 2 .473 1.41 1.473 2.07 3 2 .473 1.41 1.473 2.07 3 2 .992-.17 1.658.16 2 1 .473 1.41 1.473 2.07 3 2 .473 1.41 1.473 2.07 3 2 .473 1.41 1.473 2.07 3 2 .473 1.41 1.473 2.07 3 2 .473 1.41 1.473 2.07 3 2 .473 1.41 1.473 2.07 3 2 .667 0 1 .33 1 1 .473 1.41 1.473 2.07 3 2 .667 0 1 .33 1 1 .473 1.41 1.473 2.07 3 2 .667 0 1 .33 1 1 .473 1.41 1.473 2.07 3 2 1 .33 1.667 1 2 2 .762 1.76 2.096 2.76 4 3 1 .33 1.667 1 2 2 1.411 2.41 3.411 4.08 6 5 5 4.33 9.667 9 14 14 .919 2.59 2.586 4.59 5 6 1 .33 1.667 1 2 2 .238 1.9 1.238 3.24 3 4 .667 0 1 .33 1 1 .238 1.9 1.238 3.24 3 4-.073 1.53.594 2.53 2 3 .667 0 1 .33 1 1-.073 1.53.594 2.53 2 3-.073 1.53.594 2.53 2 3-.073 1.53.594 2.53 2 3-.073 1.53.594 2.53 2 3 .838.34 1.172 1.01 1 2-.073 1.53.594 2.53 2 3 1.174 1.01 1.84 2.35 2 4a68.872 68.872 0 007 14c12.777 27.45 19.443 56.45 20 87-1.963 141.17-3.963 282.34-6 423.5 2.177 33.05 9.51 64.89 22 95.5-.098 2.05.569 3.72 2 5 1.508 1.68 2.508 3.68 3 6 .627 3.92 2.293 7.25 5 10 1.841 2.35 3.174 5.02 4 8-.073 1.53.594 2.53 2 3 .838.34 1.172 1.01 1 2-.073 1.53.594 2.53 2 3 .838.34 1.172 1.01 1 2-.073 1.53.594 2.53 2 3a62.61 62.61 0 016 9c-.073 1.53.594 2.53 2 3-.073 1.53.594 2.53 2 3 .667 0 1 .33 1 1-.073 1.53.594 2.53 2 3 .238 1.9 1.238 3.24 3 4 .667 0 1 .33 1 1-.073 1.53.594 2.53 2 3 1 .33 1.667 1 2 2 .238 1.9 1.238 3.24 3 4 .667 0 1 .33 1 1-7.148.99-14.481 1.32-22 1-68.237-.9-135.237-10.4-201-28.5-17.686-5.06-34.686-11.56-51-19.5-1.926-1.79-4.259-2.79-7-3a50.358 50.358 0 01-12-6c-1.159-1.75-2.826-2.75-5-3-1.653-.16-2.986-.83-4-2-.473-1.41-1.473-2.07-3-2-.992.17-1.658-.16-2-1-.473-1.41-1.473-2.07-3-2-.992.17-1.658-.16-2-1-.473-1.41-1.473-2.07-3-2-.473-1.41-1.473-2.07-3-2-.473-1.41-1.473-2.07-3-2-.473-1.41-1.473-2.07-3-2-.667 0-1-.33-1-1-.473-1.41-1.473-2.07-3-2-.762-1.76-2.096-2.76-4-3-.667 0-1-.33-1-1-.473-1.41-1.473-2.07-3-2-1-.33-1.667-1-2-2-.762-1.76-2.096-2.76-4-3a6.575 6.575 0 01-3-3c-5-5.67-10.333-11-16-16a6.575 6.575 0 01-3-3c-.238-1.9-1.238-3.24-3-4-.667 0-1-.33-1-1-.238-1.9-1.238-3.24-3-4-.667 0-1-.33-1-1 .073-1.53-.594-2.53-2-3 .073-1.53-.594-2.53-2-3a14.567 14.567 0 01-4-6c.073-1.53-.594-2.53-2-3-.838-.34-1.172-1.01-1-2 .073-1.53-.594-2.53-2-3-1.508-1.68-2.508-3.68-3-6-.826-2.98-2.159-5.65-4-8-2.451-3.24-4.118-6.91-5-11 .098-2.05-.569-3.72-2-5-12.003-31.83-19.503-64.83-22.5-99a878.992 878.992 0 01-4-55c-.667-37-.667-74 0-111 2.3-59.7 5.3-119.37 9-179 2.9-56.88-6.6-111.55-28.5-164 .098-2.05-.569-3.72-2-5a113.197 113.197 0 01-9-18c.073-1.53-.594-2.53-2-3-1.174-1.01-1.84-2.35-2-4 .073-1.53-.594-2.53-2-3-.838-.34-1.172-1.01-1-2 .073-1.53-.594-2.53-2-3-.838-.34-1.172-1.01-1-2 .073-1.53-.594-2.53-2-3 .073-1.53-.594-2.53-2-3 .073-1.53-.594-2.53-2-3 .073-1.53-.594-2.53-2-3 .073-1.53-.594-2.53-2-3 .073-1.53-.594-2.53-2-3-.667 0-1-.33-1-1 .073-1.53-.594-2.53-2-3-.667 0-1-.33-1-1 .073-1.53-.594-2.53-2-3-1.733-.51-2.066-1.34-1-2.5 77.101-11.63 152.434-4.63 226 21a204.095 204.095 0 0130 13.5zM1548.5 1550.5c2.93 1.26 5.26 3.26 7 6-2.93-1.26-5.26-3.26-7-6z"/><path d="M216.5 1559.5c1.406.47 2.073 1.47 2 3-1.406-.47-2.073-1.47-2-3zm3 4c1.406.47 2.073 1.47 2 3-1.406-.47-2.073-1.47-2-3zM222.5 1567.5c1.406.47 2.073 1.47 2 3-1.406-.47-2.073-1.47-2-3zM1568.5 1569.5c2.41 1.41 4.08 3.41 5 6-2.41-1.41-4.08-3.41-5-6zM224.5 1570.5c1.406.47 2.073 1.47 2 3-1.406-.47-2.073-1.47-2-3zM226.5 1573.5c1.406.47 2.073 1.47 2 3-1.406-.47-2.073-1.47-2-3zM228.5 1576.5c1.406.47 2.073 1.47 2 3-1.406-.47-2.073-1.47-2-3zM1575.5 1577.5c1.76.76 2.76 2.1 3 4-1.76-.76-2.76-2.1-3-4zM230.5 1579.5c1.406.47 2.073 1.47 2 3-1.406-.47-2.073-1.47-2-3zM232.5 1582.5c1.406.47 2.073 1.47 2 3-1.406-.47-2.073-1.47-2-3zM1579.5 1582.5c1.41.47 2.07 1.47 2 3-1.41-.47-2.07-1.47-2-3zm3 4c1.41.47 2.07 1.47 2 3-1.41-.47-2.07-1.47-2-3zM235.5 1587.5c1.406.47 2.073 1.47 2 3-1.406-.47-2.073-1.47-2-3zM1585.5 1590.5c1.41.47 2.07 1.47 2 3-1.41-.47-2.07-1.47-2-3zM238.5 1592.5c1.406.47 2.073 1.47 2 3-1.406-.47-2.073-1.47-2-3zM1587.5 1593.5c1.41.47 2.07 1.47 2 3-1.41-.47-2.07-1.47-2-3zm-1116-2c5.253 1.29 9.919 3.63 14 7-4.984-1.83-9.651-4.16-14-7zm1118 5c1.41.47 2.07 1.47 2 3-1.41-.47-2.07-1.47-2-3zM242.5 1599.5c1.406.47 2.073 1.47 2 3-1.406-.47-2.073-1.47-2-3zM1591.5 1599.5c1.41.47 2.07 1.47 2 3-1.41-.47-2.07-1.47-2-3zM493.5 1602.5c1.527-.07 2.527.59 3 2-1.527.07-2.527-.59-3-2zM500.5 1606.5c2.174.25 3.841 1.25 5 3-2.174-.25-3.841-1.25-5-3zM1594.5 1604.5c1.41.47 2.07 1.47 2 3-1.41-.47-2.07-1.47-2-3zM507.5 1610.5c1.527-.07 2.527.59 3 2-1.527.07-2.527-.59-3-2zM-.5 1717.5v-10c5.32-48.5 31.654-79 79-91.5 49.39-7.22 85.89 10.95 109.5 54.5 17.9 45.56 9.067 85.06-26.5 118.5-42 30-84 30-126 0-21.75-19-33.75-42.83-36-71.5zM514.5 1614.5c1.527-.07 2.527.59 3 2-1.527.07-2.527-.59-3-2zM517.5 1616.5c1.527-.07 2.527.59 3 2-1.527.07-2.527-.59-3-2zM522.5 1619.5c1.527-.07 2.527.59 3 2-1.527.07-2.527-.59-3-2zM1599.5 1613.5c3.04 3.41 5.04 7.41 6 12-2.51-3.68-4.51-7.68-6-12zM253.5 1620.5c1.431 1.28 2.098 2.95 2 5-1.431-1.28-2.098-2.95-2-5zM525.5 1621.5c1.527-.07 2.527.59 3 2-1.527.07-2.527-.59-3-2zM528.5 1623.5c1.527-.07 2.527.59 3 2-1.527.07-2.527-.59-3-2zm3 2c1.527-.07 2.527.59 3 2-1.527.07-2.527-.59-3-2zM534.5 1627.5c1.527-.07 2.527.59 3 2-1.527.07-2.527-.59-3-2zM537.5 1629.5c1.527-.07 2.527.59 3 2-1.527.07-2.527-.59-3-2zM541.5 1632.5c1.527-.07 2.527.59 3 2-1.527.07-2.527-.59-3-2zm4 3c1.527-.07 2.527.59 3 2-1.527.07-2.527-.59-3-2zM549.5 1638.5c1.527-.07 2.527.59 3 2-1.527.07-2.527-.59-3-2zM554.5 1642.5c1.904.24 3.238 1.24 4 3-1.904-.24-3.238-1.24-4-3zm6 5c2.589.92 4.589 2.59 6 5-2.589-.92-4.589-2.59-6-5zM580.5 1666.5c2.414 1.41 4.081 3.41 5 6-2.414-1.41-4.081-3.41-5-6zM587.5 1674.5c1.762.76 2.762 2.1 3 4-1.762-.76-2.762-2.1-3-4zM1741.5 1683.5c.47 1.41 1.47 2.07 3 2 .47 1.41 1.47 2.07 3 2 .67 0 1 .33 1 1 1.08 2.09 2.75 3.42 5 4 3.67 3 7 6.33 10 10 .58 2.25 1.91 3.92 4 5 1 .33 1.67 1 2 2 .24 1.9 1.24 3.24 3 4 .67 0 1 .33 1 1-.07 1.53.59 2.53 2 3 .67 0 1 .33 1 1-.07 1.53.59 2.53 2 3 .67 0 1 .33 1 1-.07 1.53.59 2.53 2 3-.07 1.53.59 2.53 2 3 .67 0 1 .33 1 1-.07 1.53.59 2.53 2 3-.07 1.53.59 2.53 2 3-.07 1.53.59 2.53 2 3 .83 1.25 2.17 1.91 4 2 1.55-.01 2.88-.34 4-1 64.47-7.1 127.14.73 188 23.5 5.55 2.61 10.89 5.44 16 8.5.47 1.41 1.47 2.07 3 2 .99-.17 1.66.16 2 1 .47 1.41 1.47 2.07 3 2 .47 1.41 1.47 2.07 3 2 .67 0 1 .33 1 1 .47 1.41 1.47 2.07 3 2 .67 0 1 .33 1 1 .76 1.76 2.1 2.76 4 3 1.33.67 2.33 1.67 3 3 2.33 3 5 5.67 8 8 1.33.67 2.33 1.67 3 3 .24 1.9 1.24 3.24 3 4 .67 0 1 .33 1 1-.07 1.53.59 2.53 2 3 .67 0 1 .33 1 1-.07 1.53.59 2.53 2 3-.07 1.53.59 2.53 2 3 .84.34 1.17 1.01 1 2-.07 1.53.59 2.53 2 3 1.17 1.01 1.84 2.35 2 4 .83 2.98 2.16 5.65 4 8 4.32 8.3 7.65 16.96 10 26v2c-1.79 9.71-4.79 19.04-9 28-1.43 1.28-2.1 2.95-2 5-.49 2.32-1.49 4.32-3 6-1.41.47-2.07 1.47-2 3 .17.99-.16 1.66-1 2-1.41.47-2.07 1.47-2 3-1.41.47-2.07 1.47-2 3-1.41.47-2.07 1.47-2 3 0 .67-.33 1-1 1-1.41.47-2.07 1.47-2 3 0 .67-.33 1-1 1-1.76.76-2.76 2.1-3 4 0 .67-.33 1-1 1-1.41.47-2.07 1.47-2 3-.33 1-1 1.67-2 2-1.41.47-2.07 1.47-2 3 0 .67-.33 1-1 1-1.76.76-2.76 2.1-3 4 0 .67-.33 1-1 1-.96.45-1.79 1.12-2.5 2-.5 6.66-.67 13.33-.5 20-.14 71.01-.97 142.01-2.5 213-3.11 11.19-7.28 21.86-12.5 32a35.379 35.379 0 00-5 10c-.49 2.32-1.49 4.32-3 6-1.41.47-2.07 1.47-2 3 .17.99-.16 1.66-1 2-1.41.47-2.07 1.47-2 3-1.41.47-2.07 1.47-2 3-1.41.47-2.07 1.47-2 3-1.41.47-2.07 1.47-2 3 0 .67-.33 1-1 1-1.41.47-2.07 1.47-2 3 0 .67-.33 1-1 1-1.76.76-2.76 2.1-3 4-.33 1-1 1.67-2 2-2.09 1.08-3.42 2.75-4 5-3.67 4.33-7.67 8.33-12 12-2.25.58-3.92 1.91-5 4-.33 1-1 1.67-2 2-1.9.24-3.24 1.24-4 3-1.9.24-3.24 1.24-4 3-1.53-.07-2.53.59-3 2-1.53-.07-2.53.59-3 2-1.53-.07-2.53.59-3 2-1.53-.07-2.53.59-3 2-.34.84-1.01 1.17-2 1-2.17.25-3.84 1.25-5 3-2.35 1.84-5.02 3.17-8 4-2.05-.1-3.72.57-5 2-.34.84-1.01 1.17-2 1-2.05-.1-3.72.57-5 2-31.32 12-63.65 15.17-97 9.5-11.51-1.79-22.51-4.96-33-9.5-1.28-1.43-2.95-2.1-5-2a66.189 66.189 0 01-17-8c-.47-1.41-1.47-2.07-3-2-.99.17-1.66-.16-2-1-.47-1.41-1.47-2.07-3-2-.99.17-1.66-.16-2-1-.47-1.41-1.47-2.07-3-2-.47-1.41-1.47-2.07-3-2-.67 0-1-.33-1-1-.47-1.41-1.47-2.07-3-2-.67 0-1-.33-1-1-.47-1.41-1.47-2.07-3-2-1-.33-1.67-1-2-2-.76-1.76-2.1-2.76-4-3-4.67-4-9-8.33-13-13-.58-2.25-1.91-3.92-4-5-1-.33-1.67-1-2-2 .07-1.53-.59-2.53-2-3-.67 0-1-.33-1-1 .07-1.53-.59-2.53-2-3-.67 0-1-.33-1-1 .07-1.53-.59-2.53-2-3 .07-1.53-.59-2.53-2-3-1.39-1.4-2.39-3.07-3-5-.25-2.17-1.25-3.84-3-5-2.84-4.35-5.17-9.02-7-14 .1-2.05-.57-3.72-2-5-2.1-4.11-3.93-8.44-5.5-13-11.21-132.33-11.21-264.66 0-397a525.58 525.58 0 019-58c2.1-10.13 5.27-19.8 9.5-29 1.43-1.28 2.1-2.95 2-5-.17-.99.16-1.66 1-2 1.41-.47 2.07-1.47 2-3-.17-.99.16-1.66 1-2 1.41-.47 2.07-1.47 2-3 1.76-.76 2.76-2.1 3-4a6.603 6.603 0 013-3c1.53.07 2.53-.59 3-2 1.53.07 2.53-.59 3-2 .76-.77 1.76-1.27 3-1.5 8.44-1.7 16.1-.2 23 4.5zm163 133c1.28 1.43 2.95 2.1 5 2 .47 1.41 1.47 2.07 3 2 2 2.67 4.33 5 7 7 5.32 8.85 6.32 18.19 3 28-1.17 1.01-1.84 2.35-2 4-1.41.47-2.07 1.47-2 3-1.67 1-3 2.33-4 4-1.53-.07-2.53.59-3 2-2.32.49-4.32 1.49-6 3-9.25 2.19-17.92.86-26-4-.47-1.41-1.47-2.07-3-2 0-.67-.33-1-1-1-.24-1.9-1.24-3.24-3-4 .07-1.53-.59-2.53-2-3-3.49-7.88-3.82-15.88-1-24 1.17-1.01 1.84-2.35 2-4 .9-.79 1.57-1.79 2-3 2-1.33 3.67-3 5-5 1.21-.43 2.21-1.1 3-2 1.65-.16 2.99-.83 4-2 3.47-.74 6.97-1.41 10.5-2 2.82.53 5.65.86 8.5 1zM591.5 1679.5c1.762.76 2.762 2.1 3 4-1.762-.76-2.762-2.1-3-4z"/><path d="M1715.5 1680.5c-.47 1.41-1.47 2.07-3 2 .47-1.41 1.47-2.07 3-2zM1712.5 1682.5c-.47 1.41-1.47 2.07-3 2 .47-1.41 1.47-2.07 3-2zM1741.5 1683.5c1.53-.07 2.53.59 3 2-1.53.07-2.53-.59-3-2zM594.5 1683.5c1.406.47 2.073 1.47 2 3-1.406-.47-2.073-1.47-2-3zM1744.5 1685.5c1.53-.07 2.53.59 3 2-1.53.07-2.53-.59-3-2zM597.5 1687.5c1.406.47 2.073 1.47 2 3-1.406-.47-2.073-1.47-2-3zM1706.5 1687.5c-.24 1.9-1.24 3.24-3 4 .24-1.9 1.24-3.24 3-4zM1748.5 1688.5c2.25.58 3.92 1.91 5 4-2.25-.58-3.92-1.91-5-4zM599.5 1690.5c1.406.47 2.073 1.47 2 3-1.406-.47-2.073-1.47-2-3zM1703.5 1691.5c.07 1.53-.59 2.53-2 3-.07-1.53.59-2.53 2-3zM601.5 1693.5c1.406.47 2.073 1.47 2 3-1.406-.47-2.073-1.47-2-3zM1700.5 1696.5c.07 1.53-.59 2.53-2 3-.07-1.53.59-2.53 2-3zM603.5 1696.5c1.406.47 2.073 1.47 2 3-1.406-.47-2.073-1.47-2-3zm3 5c1.406.47 2.073 1.47 2 3-1.406-.47-2.073-1.47-2-3zM1697.5 1701.5c.1 2.05-.57 3.72-2 5-.1-2.05.57-3.72 2-5zM1763.5 1702.5c2.09 1.08 3.42 2.75 4 5-2.09-1.08-3.42-2.75-4-5zM1769.5 1709.5c1.76.76 2.76 2.1 3 4-1.76-.76-2.76-2.1-3-4zM1773.5 1714.5c1.41.47 2.07 1.47 2 3-1.41-.47-2.07-1.47-2-3zM610.5 1708.5c3.374 4.08 5.707 8.75 7 14a68.872 68.872 0 01-7-14zM1776.5 1718.5c1.41.47 2.07 1.47 2 3-1.41-.47-2.07-1.47-2-3zM1779.5 1722.5c1.41.47 2.07 1.47 2 3-1.41-.47-2.07-1.47-2-3zM1781.5 1725.5c1.41.47 2.07 1.47 2 3-1.41-.47-2.07-1.47-2-3zM1784.5 1729.5c1.41.47 2.07 1.47 2 3-1.41-.47-2.07-1.47-2-3zM1786.5 1732.5c1.41.47 2.07 1.47 2 3-1.41-.47-2.07-1.47-2-3zM1788.5 1735.5c1.41.47 2.07 1.47 2 3-1.41-.47-2.07-1.47-2-3zM1790.5 1738.5c2.55.89 5.22 1.22 8 1-1.12.66-2.45.99-4 1-1.83-.09-3.17-.75-4-2zM2002.5 1771.5c1.53-.07 2.53.59 3 2-1.53.07-2.53-.59-3-2zM753.5 1780.5c.473 1.41 1.473 2.07 3 2 .473 1.41 1.473 2.07 3 2 .667 0 1 .33 1 1 1.085 2.09 2.751 3.42 5 4 3.667 3 7 6.33 10 10 .58 2.25 1.913 3.92 4 5 1 .33 1.667 1 2 2 .238 1.9 1.238 3.24 3 4 .667 0 1 .33 1 1-.073 1.53.594 2.53 2 3 .667 0 1 .33 1 1-.073 1.53.594 2.53 2 3 .667 0 1 .33 1 1-.073 1.53.594 2.53 2 3 1.474.94 2.474 2.27 3 4-.073 1.53.594 2.53 2 3-.073 1.53.594 2.53 2 3-.073 1.53.594 2.53 2 3 .652 1.23 1.819 1.89 3.5 2 1.385-.01 2.551-.35 3.5-1 61.073-6.91 120.74-.41 179 19.5 4.896 1.9 9.563 4.07 14 6.5 2.35 1.84 5.02 3.17 8 4 1.65.16 2.99.83 4 2 .47 1.41 1.47 2.07 3 2 .99-.17 1.66.16 2 1 .47 1.41 1.47 2.07 3 2 .47 1.41 1.47 2.07 3 2 .67 0 1 .33 1 1 .47 1.41 1.47 2.07 3 2 .67 0 1 .33 1 1 .76 1.76 2.1 2.76 4 3 1 .33 1.67 1 2 2a58.03 58.03 0 009 9c1.33.67 2.33 1.67 3 3 .24 1.9 1.24 3.24 3 4 .67 0 1 .33 1 1-.07 1.53.59 2.53 2 3 .67 0 1 .33 1 1-.07 1.53.59 2.53 2 3-.07 1.53.59 2.53 2 3 2.42 2.51 4.09 5.51 5 9 .83 2.98 2.16 5.65 4 8 4.49 8.46 7.82 17.46 10 27-1.56 8.33-3.89 16.33-7 24-1.43 1.28-2.1 2.95-2 5 .17.99-.16 1.66-1 2-1.43 1.28-2.1 2.95-2 5 .17.99-.16 1.66-1 2-1.75 1.16-2.75 2.83-3 5 .17.99-.16 1.66-1 2-1.41.47-2.07 1.47-2 3-1.41.47-2.07 1.47-2 3 0 .67-.33 1-1 1-1.41.47-2.07 1.47-2 3-1.76.76-2.76 2.1-3 4 0 .67-.33 1-1 1-1.41.47-2.07 1.47-2 3 0 .67-.33 1-1 1-1.76.76-2.76 2.1-3 4 0 .67-.33 1-1 1-1.41.47-2.07 1.47-2 3-.33 1-1 1.67-2 2-1.41.47-2.07 1.47-2 3 0 .67-.33 1-1 1-.96.45-1.79 1.12-2.5 2-.5 5.99-.67 11.99-.5 18-.14 71.34-.98 142.67-2.5 214-1.77 8.49-4.61 16.49-8.5 24-1.43 1.28-2.1 2.95-2 5a112.86 112.86 0 01-9 18c-1.41.47-2.07 1.47-2 3 .17.99-.16 1.66-1 2-1.41.47-2.07 1.47-2 3 .17.99-.16 1.66-1 2-1.41.47-2.07 1.47-2 3-1.41.47-2.07 1.47-2 3 0 .67-.33 1-1 1-1.406.47-2.073 1.47-2 3-1.762.76-2.762 2.1-3 4-1.762.76-2.762 2.1-3 4-.333 1-1 1.67-2 2-2.414 1.41-4.081 3.41-5 6-3 3.67-6.333 7-10 10-2.589.92-4.589 2.59-6 5-.333 1-1 1.67-2 2-1.527-.07-2.527.59-3 2 0 .67-.333 1-1 1-1.527-.07-2.527.59-3 2 0 .67-.333 1-1 1-1.527-.07-2.527.59-3 2-1.527-.07-2.527.59-3 2-1.527-.07-2.527.59-3 2-1.527-.07-2.527.59-3 2-1.014 1.17-2.347 1.84-4 2-2.174.25-3.841 1.25-5 3-1.014 1.17-2.347 1.84-4 2-2.741.21-5.074 1.21-7 3-17.846 8.13-36.513 13.13-56 15h-31c-19.848-1.71-38.848-6.71-57-15-1.28-1.43-2.947-2.1-5-2-2.985-.83-5.651-2.16-8-4-1.159-1.75-2.826-2.75-5-3-.992.17-1.658-.16-2-1-.473-1.41-1.473-2.07-3-2-.992.17-1.658-.16-2-1-.473-1.41-1.473-2.07-3-2-1.73-.53-3.064-1.53-4-3-.473-1.41-1.473-2.07-3-2-.667 0-1-.33-1-1-.473-1.41-1.473-2.07-3-2-1-.33-1.667-1-2-2-1.085-2.09-2.751-3.42-5-4a102.562 102.562 0 01-12-12c-.58-2.25-1.913-3.92-4-5-1-.33-1.667-1-2-2 .073-1.53-.594-2.53-2-3-.667 0-1-.33-1-1 .073-1.53-.594-2.53-2-3-.667 0-1-.33-1-1 .073-1.53-.594-2.53-2-3 .073-1.53-.594-2.53-2-3-.838-.34-1.172-1.01-1-2 .073-1.53-.594-2.53-2-3-.838-.34-1.172-1.01-1-2 .073-1.53-.594-2.53-2-3a68.872 68.872 0 01-7-14c.098-2.05-.569-3.72-2-5a99.531 99.531 0 01-5.5-13 2003.466 2003.466 0 01-8-246c.794-53.79 3.794-107.46 9-161a431.898 431.898 0 0111-60c1.704-5.96 3.871-11.63 6.5-17 1.431-1.28 2.098-2.95 2-5-.172-.99.162-1.66 1-2 1.75-1.16 2.75-2.83 3-5 1.406-.47 2.073-1.47 2-3 1.762-.76 2.762-2.1 3-4a6.575 6.575 0 013-3c1.527.07 2.527-.59 3-2 3.591-3.31 7.925-4.64 13-4 6.044-.32 11.377 1.35 16 5zm168 135c.473 1.41 1.473 2.07 3 2 2 2.67 4.333 5 7 7 6.256 10.48 6.589 21.15 1 32-1.406.47-2.073 1.47-2 3-1.667 1-3 2.33-4 4-1.527-.07-2.527.59-3 2-10.854 5.59-21.521 5.26-32-1-.762-1.76-2.096-2.76-4-3-.238-1.9-1.238-3.24-3-4 .073-1.53-.594-2.53-2-3-2.973-7.12-3.64-14.45-2-22 1.841-2.35 3.174-5.02 4-8 .667 0 1-.33 1-1 2-1.33 3.667-3 5-5 .667 0 1-.33 1-1 2.319-.49 4.319-1.49 6-3 8.122-2.82 16.122-2.49 24 1zM2007.5 1774.5c1.53-.07 2.53.59 3 2-1.53.07-2.53-.59-3-2zm3 2c1.53-.07 2.53.59 3 2-1.53.07-2.53-.59-3-2z"/><path d="M724.5 1779.5c-.473 1.41-1.473 2.07-3 2 .473-1.41 1.473-2.07 3-2zM2014.5 1779.5c1.53-.07 2.53.59 3 2-1.53.07-2.53-.59-3-2zM753.5 1780.5c1.527-.07 2.527.59 3 2-1.527.07-2.527-.59-3-2zM756.5 1782.5c1.527-.07 2.527.59 3 2-1.527.07-2.527-.59-3-2zM2018.5 1782.5c1.9.24 3.24 1.24 4 3-1.9-.24-3.24-1.24-4-3zM718.5 1784.5c-.238 1.9-1.238 3.24-3 4 .238-1.9 1.238-3.24 3-4zM760.5 1785.5c2.249.58 3.915 1.91 5 4-2.249-.58-3.915-1.91-5-4zM2025.5 1788.5c3.67 1.67 6.33 4.33 8 8-3-2.33-5.67-5-8-8zM715.5 1788.5c.073 1.53-.594 2.53-2 3-.073-1.53.594-2.53 2-3zM713.5 1791.5c-.25 2.17-1.25 3.84-3 5 .25-2.17 1.25-3.84 3-5zM709.5 1798.5c.098 2.05-.569 3.72-2 5-.098-2.05.569-3.72 2-5zM2036.5 1799.5c1.76.76 2.76 2.1 3 4-1.76-.76-2.76-2.1-3-4zM775.5 1799.5c2.087 1.08 3.42 2.75 4 5-2.087-1.08-3.42-2.75-4-5zM2040.5 1804.5c1.41.47 2.07 1.47 2 3-1.41-.47-2.07-1.47-2-3zM781.5 1806.5c1.762.76 2.762 2.1 3 4-1.762-.76-2.762-2.1-3-4zM2043.5 1808.5c1.41.47 2.07 1.47 2 3-1.41-.47-2.07-1.47-2-3zM2045.5 1811.5c1.41.47 2.07 1.47 2 3-1.41-.47-2.07-1.47-2-3zM785.5 1811.5c1.406.47 2.073 1.47 2 3-1.406-.47-2.073-1.47-2-3zM1904.5 1816.5c2.05-.1 3.72.57 5 2-2.05.1-3.72-.57-5-2zM788.5 1815.5c1.406.47 2.073 1.47 2 3-1.406-.47-2.073-1.47-2-3zM1885.5 1817.5c-1.01 1.17-2.35 1.84-4 2 .79-1.6 2.12-2.27 4-2zM1909.5 1818.5c1.53-.07 2.53.59 3 2-1.53.07-2.53-.59-3-2zM2048.5 1816.5c1.41.47 2.07 1.47 2 3-1.41-.47-2.07-1.47-2-3zM791.5 1819.5c1.406.47 2.073 1.47 2 3-1.406-.47-2.073-1.47-2-3zM1912.5 1820.5c3.33 1.33 5.67 3.67 7 7-2.67-2-5-4.33-7-7zM1878.5 1821.5c-1.33 2-3 3.67-5 5 .67-2.67 2.33-4.33 5-5zM2052.5 1823.5c2.37 2.08 3.71 4.75 4 8-1.84-2.35-3.17-5.02-4-8zM796.5 1826.5c1.406.47 2.073 1.47 2 3-1.406-.47-2.073-1.47-2-3zM798.5 1829.5c1.406.47 2.073 1.47 2 3-1.406-.47-2.073-1.47-2-3zM1871.5 1829.5c-.16 1.65-.83 2.99-2 4-.27-1.88.4-3.21 2-4zM800.5 1832.5c1.406.47 2.073 1.47 2 3-1.406-.47-2.073-1.47-2-3zM802.5 1835.5c2.217.87 4.55 1.2 7 1-.949.65-2.115.99-3.5 1-1.681-.11-2.848-.77-3.5-2zM1922.5 1855.5c.27 1.88-.4 3.21-2 4 .16-1.65.83-2.99 2-4zM1870.5 1857.5c1.41.47 2.07 1.47 2 3-1.41-.47-2.07-1.47-2-3zM1920.5 1859.5c.07 1.53-.59 2.53-2 3-.07-1.53.59-2.53 2-3zM1872.5 1860.5c1.76.76 2.76 2.1 3 4-1.76-.76-2.76-2.1-3-4zM1002.5 1862.5c3.25.29 5.92 1.63 8 4-2.98-.83-5.65-2.16-8-4zM1876.5 1865.5c1.53-.07 2.53.59 3 2-1.53.07-2.53-.59-3-2zM1914.5 1866.5c-.47 1.41-1.47 2.07-3 2 .47-1.41 1.47-2.07 3-2zM1014.5 1868.5c1.53-.07 2.53.59 3 2-1.53.07-2.53-.59-3-2zM1911.5 1868.5c-1.41 2.04-3.41 3.04-6 3 1.68-1.51 3.68-2.51 6-3zM1019.5 1871.5c1.53-.07 2.53.59 3 2-1.53.07-2.53-.59-3-2zM1022.5 1873.5c1.53-.07 2.53.59 3 2-1.53.07-2.53-.59-3-2zM1026.5 1876.5c1.53-.07 2.53.59 3 2-1.53.07-2.53-.59-3-2zM1030.5 1879.5c1.9.24 3.24 1.24 4 3-1.9-.24-3.24-1.24-4-3zM1036.5 1884.5c4 2 7 5 9 9a58.03 58.03 0 01-9-9zM2057.5 1887.5c.1 2.05-.57 3.72-2 5-.1-2.05.57-3.72 2-5zM1048.5 1896.5c1.76.76 2.76 2.1 3 4-1.76-.76-2.76-2.1-3-4zM2052.5 1898.5c.07 1.53-.59 2.53-2 3-.07-1.53.59-2.53 2-3zM1052.5 1901.5c1.41.47 2.07 1.47 2 3-1.41-.47-2.07-1.47-2-3zM2049.5 1903.5c.07 1.53-.59 2.53-2 3-.07-1.53.59-2.53 2-3zM1055.5 1905.5c1.41.47 2.07 1.47 2 3-1.41-.47-2.07-1.47-2-3zM2047.5 1906.5c.07 1.53-.59 2.53-2 3-.07-1.53.59-2.53 2-3zM1057.5 1908.5c1.41.47 2.07 1.47 2 3-1.41-.47-2.07-1.47-2-3zM2045.5 1909.5c.07 1.53-.59 2.53-2 3-.07-1.53.59-2.53 2-3zM897.5 1914.5c-1.681 1.51-3.681 2.51-6 3 1.411-2.04 3.411-3.04 6-3zM921.5 1915.5c1.527-.07 2.527.59 3 2-1.527.07-2.527-.59-3-2zM2042.5 1913.5c.07 1.53-.59 2.53-2 3-.07-1.53.59-2.53 2-3zM890.5 1918.5c-1.333 2-3 3.67-5 5 .667-2.67 2.333-4.33 5-5zM924.5 1917.5c3.333 1.33 5.667 3.67 7 7-2.667-2-5-4.33-7-7zM2039.5 1917.5c-.24 1.9-1.24 3.24-3 4 .24-1.9 1.24-3.24 3-4zM1064.5 1920.5c2.37 2.08 3.71 4.75 4 8-1.84-2.35-3.17-5.02-4-8zM2035.5 1922.5c.07 1.53-.59 2.53-2 3-.07-1.53.59-2.53 2-3zM2031.5 1927.5c.07 1.53-.59 2.53-2 3-.07-1.53.59-2.53 2-3zM884.5 1924.5c-.826 2.98-2.159 5.65-4 8 .294-3.25 1.627-5.92 4-8zM2028.5 1931.5c-.24 1.9-1.24 3.24-3 4 .24-1.9 1.24-3.24 3-4zM2024.5 1936.5c.04 1.26-.46 2.26-1.5 3-.17 6.51-.67 12.85-1.5 19-.17-6.67 0-13.34.5-20 .71-.88 1.54-1.55 2.5-2zM882.5 1954.5c1.406.47 2.073 1.47 2 3-1.406-.47-2.073-1.47-2-3zM932.5 1956.5c.073 1.53-.594 2.53-2 3-.073-1.53.594-2.53 2-3zm-48 1c1.762.76 2.762 2.1 3 4-1.762-.76-2.762-2.1-3-4zM887.5 1961.5c1.904.24 3.238 1.24 4 3-1.904-.24-3.238-1.24-4-3zM926.5 1963.5c-.473 1.41-1.473 2.07-3 2 .473-1.41 1.473-2.07 3-2zM1071.5 1979.5c.1 2.05-.57 3.72-2 5-.1-2.05.57-3.72 2-5zM1068.5 1986.5c.1 2.05-.57 3.72-2 5-.1-2.05.57-3.72 2-5zM1065.5 1993.5c-.25 2.17-1.25 3.84-3 5 .25-2.17 1.25-3.84 3-5zM1061.5 2000.5c.07 1.53-.59 2.53-2 3-.07-1.53.59-2.53 2-3zM1059.5 2003.5c.07 1.53-.59 2.53-2 3-.07-1.53.59-2.53 2-3zM1056.5 2007.5c.07 1.53-.59 2.53-2 3-.07-1.53.59-2.53 2-3zM1054.5 2010.5c-.24 1.9-1.24 3.24-3 4 .24-1.9 1.24-3.24 3-4zM1050.5 2015.5c.07 1.53-.59 2.53-2 3-.07-1.53.59-2.53 2-3zM1047.5 2019.5c-.24 1.9-1.24 3.24-3 4 .24-1.9 1.24-3.24 3-4zM1043.5 2024.5c.07 1.53-.59 2.53-2 3-.07-1.53.59-2.53 2-3zM1039.5 2029.5c.07 1.53-.59 2.53-2 3-.07-1.53.59-2.53 2-3zM1036.5 2033.5c.04 1.26-.46 2.26-1.5 3-.17 5.85-.67 11.51-1.5 17-.17-6.01 0-12.01.5-18 .71-.88 1.54-1.55 2.5-2zM1289.5 2136.5c1.43 1.28 2.1 2.95 2 5-1.43-1.28-2.1-2.95-2-5zm7 16c1.84 2.35 3.17 5.02 4 8-2.37-2.08-3.71-4.75-4-8zM1303.5 2166.5c1.41.47 2.07 1.47 2 3-1.41-.47-2.07-1.47-2-3zM1306.5 2171.5c1.41.47 2.07 1.47 2 3-1.41-.47-2.07-1.47-2-3zM1312.5 2180.5c1.41.47 2.07 1.47 2 3-1.41-.47-2.07-1.47-2-3zM1314.5 2183.5c1.41.47 2.07 1.47 2 3-1.41-.47-2.07-1.47-2-3zM1317.5 2187.5c1.76.76 2.76 2.1 3 4-1.76-.76-2.76-2.1-3-4zm4 5c1.76.76 2.76 2.1 3 4-1.76-.76-2.76-2.1-3-4zm6 7c5.67 5 11 10.33 16 16a60.87 60.87 0 01-16-16zM1682.5 2203.5c1.43 1.28 2.1 2.95 2 5-1.43-1.28-2.1-2.95-2-5zM2006.5 2203.5c-.63 3.92-2.29 7.25-5 10 1.16-3.65 2.83-6.98 5-10zM1346.5 2218.5c2.25.58 3.92 1.91 5 4-2.25-.58-3.92-1.91-5-4zM1998.5 2219.5c.07 1.53-.59 2.53-2 3-.07-1.53.59-2.53 2-3zM1352.5 2223.5c1.9.24 3.24 1.24 4 3-1.9-.24-3.24-1.24-4-3zM1691.5 2222.5c1.75 1.16 2.75 2.83 3 5-1.75-1.16-2.75-2.83-3-5zM1995.5 2224.5c.07 1.53-.59 2.53-2 3-.07-1.53.59-2.53 2-3zM1357.5 2227.5c1.53-.07 2.53.59 3 2-1.53.07-2.53-.59-3-2zM1993.5 2227.5c.07 1.53-.59 2.53-2 3-.07-1.53.59-2.53 2-3zM1361.5 2230.5c1.53-.07 2.53.59 3 2-1.53.07-2.53-.59-3-2zM1364.5 2232.5c1.53-.07 2.53.59 3 2-1.53.07-2.53-.59-3-2zM1991.5 2230.5c.07 1.53-.59 2.53-2 3-.07-1.53.59-2.53 2-3zM1641.5 2231.5c1.43 1.28 2.1 2.95 2 5-1.43-1.28-2.1-2.95-2-5zM1697.5 2232.5c1.41.47 2.07 1.47 2 3-1.41-.47-2.07-1.47-2-3zM301.5 2233.5c1.431 1.28 2.098 2.95 2 5-1.431-1.28-2.098-2.95-2-5zM1367.5 2234.5c1.53-.07 2.53.59 3 2-1.53.07-2.53-.59-3-2zM1989.5 2233.5c.07 1.53-.59 2.53-2 3-.07-1.53.59-2.53 2-3zM1370.5 2236.5c1.53-.07 2.53.59 3 2-1.53.07-2.53-.59-3-2zM1699.5 2235.5c1.41.47 2.07 1.47 2 3-1.41-.47-2.07-1.47-2-3zM1373.5 2238.5c1.53-.07 2.53.59 3 2-1.53.07-2.53-.59-3-2zM1986.5 2237.5c.07 1.53-.59 2.53-2 3-.07-1.53.59-2.53 2-3zM1702.5 2239.5c1.41.47 2.07 1.47 2 3-1.41-.47-2.07-1.47-2-3zM1983.5 2241.5c-.24 1.9-1.24 3.24-3 4 .24-1.9 1.24-3.24 3-4zM1381.5 2243.5c2.17.25 3.84 1.25 5 3-2.17-.25-3.84-1.25-5-3zM1705.5 2243.5c1.41.47 2.07 1.47 2 3-1.41-.47-2.07-1.47-2-3zM1388.5 2247.5c2.17.25 3.84 1.25 5 3-2.17-.25-3.84-1.25-5-3zM1646.5 2242.5c2.17 3.02 3.84 6.35 5 10-2.71-2.75-4.37-6.08-5-10zM1978.5 2247.5c-.58 2.25-1.91 3.92-4 5 .58-2.25 1.91-3.92 4-5zM1709.5 2248.5c2.09 1.08 3.42 2.75 4 5-2.09-1.08-3.42-2.75-4-5zM308.5 2249.5c1.841 2.35 3.174 5.02 4 8-2.373-2.08-3.706-4.75-4-8zM1409.5 2258.5c2.05-.1 3.72.57 5 2-2.05.1-3.72-.57-5-2zM1655.5 2260.5c1.41.47 2.07 1.47 2 3-1.41-.47-2.07-1.47-2-3zM1418.5 2262.5c2.05-.1 3.72.57 5 2-2.05.1-3.72-.57-5-2zM315.5 2263.5c1.406.47 2.073 1.47 2 3-1.406-.47-2.073-1.47-2-3zM1962.5 2264.5c-1.08 2.09-2.75 3.42-5 4 1.08-2.09 2.75-3.42 5-4zM1658.5 2265.5c1.41.47 2.07 1.47 2 3-1.41-.47-2.07-1.47-2-3zM1726.5 2266.5c1.9.24 3.24 1.24 4 3-1.9-.24-3.24-1.24-4-3zM318.5 2268.5c1.406.47 2.073 1.47 2 3-1.406-.47-2.073-1.47-2-3zM1661.5 2270.5c1.41.47 2.07 1.47 2 3-1.41-.47-2.07-1.47-2-3zM1955.5 2270.5c-.76 1.76-2.1 2.76-4 3 .76-1.76 2.1-2.76 4-3zM1732.5 2271.5c1.53-.07 2.53.59 3 2-1.53.07-2.53-.59-3-2zM1951.5 2273.5c-.76 1.76-2.1 2.76-4 3 .76-1.76 2.1-2.76 4-3zM1736.5 2274.5c1.53-.07 2.53.59 3 2-1.53.07-2.53-.59-3-2zM1947.5 2276.5c-.47 1.41-1.47 2.07-3 2 .47-1.41 1.47-2.07 3-2zM324.5 2277.5c1.406.47 2.073 1.47 2 3-1.406-.47-2.073-1.47-2-3zM1740.5 2277.5c1.53-.07 2.53.59 3 2-1.53.07-2.53-.59-3-2zM1944.5 2278.5c-.47 1.41-1.47 2.07-3 2 .47-1.41 1.47-2.07 3-2zM1743.5 2279.5c1.53-.07 2.53.59 3 2-1.53.07-2.53-.59-3-2zM1941.5 2280.5c-.47 1.41-1.47 2.07-3 2 .47-1.41 1.47-2.07 3-2zM326.5 2280.5c1.406.47 2.073 1.47 2 3-1.406-.47-2.073-1.47-2-3zM1748.5 2282.5c1.53-.07 2.53.59 3 2-1.53.07-2.53-.59-3-2zM1938.5 2282.5c-.47 1.41-1.47 2.07-3 2 .47-1.41 1.47-2.07 3-2zM1753.5 2285.5c1.53-.07 2.53.59 3 2-1.53.07-2.53-.59-3-2zM329.5 2284.5c1.762.76 2.762 2.1 3 4-1.762-.76-2.762-2.1-3-4zM1933.5 2285.5c-1.16 1.75-2.83 2.75-5 3 1.16-1.75 2.83-2.75 5-3zM1671.5 2285.5c1.41.47 2.07 1.47 2 3-1.41-.47-2.07-1.47-2-3zM1673.5 2288.5c1.76.76 2.76 2.1 3 4-1.76-.76-2.76-2.1-3-4zM333.5 2289.5c1.762.76 2.762 2.1 3 4-1.762-.76-2.762-2.1-3-4zM1920.5 2292.5c-1.28 1.43-2.95 2.1-5 2 1.28-1.43 2.95-2.1 5-2zM1022.5 2291.5c.1 2.05-.57 3.72-2 5-.1-2.05.57-3.72 2-5zM1676.5 2292.5c1.76.76 2.76 2.1 3 4-1.76-.76-2.76-2.1-3-4zM1773.5 2295.5c2.05-.1 3.72.57 5 2-2.05.1-3.72-.57-5-2zM1913.5 2295.5c-1.28 1.43-2.95 2.1-5 2 1.28-1.43 2.95-2.1 5-2zM1680.5 2297.5c1.41.47 2.07 1.47 2 3-1.41-.47-2.07-1.47-2-3zm-1341-1c5.667 5 11 10.33 16 16a60.87 60.87 0 01-16-16zM694.5 2300.5c1.431 1.28 2.098 2.95 2 5-1.431-1.28-2.098-2.95-2-5zM1684.5 2302.5c1.76.76 2.76 2.1 3 4-1.76-.76-2.76-2.1-3-4zM1688.5 2307.5c.79.28 1.46.78 2 1.5-8.51.82-16.84.66-25-.5 7.85.33 15.52-.01 23-1zM358.5 2315.5c1.904.24 3.238 1.24 4 3-1.904-.24-3.238-1.24-4-3zM1011.5 2314.5c.07 1.53-.59 2.53-2 3-.07-1.53.59-2.53 2-3zM364.5 2320.5c1.527-.07 2.527.59 3 2-1.527.07-2.527-.59-3-2zM703.5 2319.5c1.406.47 2.073 1.47 2 3-1.406-.47-2.073-1.47-2-3zm305 0c.07 1.53-.59 2.53-2 3-.07-1.53.59-2.53 2-3zM368.5 2323.5c1.904.24 3.238 1.24 4 3-1.904-.24-3.238-1.24-4-3zM706.5 2324.5c1.406.47 2.073 1.47 2 3-1.406-.47-2.073-1.47-2-3zM1005.5 2324.5c.07 1.53-.59 2.53-2 3-.07-1.53.59-2.53 2-3zM372.5 2326.5c1.527-.07 2.527.59 3 2-1.527.07-2.527-.59-3-2zM1003.5 2327.5c.07 1.53-.59 2.53-2 3-.07-1.53.59-2.53 2-3zM376.5 2329.5c1.527-.07 2.527.59 3 2-1.527.07-2.527-.59-3-2zM379.5 2331.5c1.527-.07 2.527.59 3 2-1.527.07-2.527-.59-3-2zM653.5 2328.5c1.431 1.28 2.098 2.95 2 5-1.431-1.28-2.098-2.95-2-5zM709.5 2329.5c1.406.47 2.073 1.47 2 3-1.406-.47-2.073-1.47-2-3zM1000.5 2331.5c.07 1.53-.594 2.53-2 3-.073-1.53.594-2.53 2-3zM382.5 2333.5c1.527-.07 2.527.59 3 2-1.527.07-2.527-.59-3-2zM711.5 2332.5c1.406.47 2.073 1.47 2 3-1.406-.47-2.073-1.47-2-3zM385.5 2335.5c1.527-.07 2.527.59 3 2-1.527.07-2.527-.59-3-2zM998.5 2334.5c-.238 1.9-1.238 3.24-3 4 .238-1.9 1.238-3.24 3-4zM714.5 2336.5c1.406.47 2.073 1.47 2 3-1.406-.47-2.073-1.47-2-3zM390.5 2338.5c1.527-.07 2.527.59 3 2-1.527.07-2.527-.59-3-2zM658.5 2339.5c2.174 3.02 3.841 6.35 5 10-2.707-2.75-4.373-6.08-5-10zM995.5 2338.5c-.238 1.9-1.238 3.24-3 4 .238-1.9 1.238-3.24 3-4zM395.5 2341.5c1.527-.07 2.527.59 3 2-1.527.07-2.527-.59-3-2zM717.5 2340.5c1.406.47 2.073 1.47 2 3-1.406-.47-2.073-1.47-2-3zM402.5 2345.5c2.174.25 3.841 1.25 5 3-2.174-.25-3.841-1.25-5-3zM721.5 2345.5c2.087 1.08 3.42 2.75 4 5-2.087-1.08-3.42-2.75-4-5zM990.5 2344.5c-.919 2.59-2.586 4.59-5 6 .919-2.59 2.586-4.59 5-6zM419.5 2354.5c2.741.21 5.074 1.21 7 3-2.741-.21-5.074-1.21-7-3zM667.5 2357.5c1.406.47 2.073 1.47 2 3-1.406-.47-2.073-1.47-2-3zm70 5c2.249.58 3.915 1.91 5 4-2.249-.58-3.915-1.91-5-4zM670.5 2362.5c1.406.47 2.073 1.47 2 3-1.406-.47-2.073-1.47-2-3zM975.5 2360.5c-1.411 2.41-3.411 4.08-6 5 1.411-2.41 3.411-4.08 6-5zM673.5 2367.5c1.406.47 2.073 1.47 2 3-1.406-.47-2.073-1.47-2-3zM744.5 2368.5c1.527-.07 2.527.59 3 2-1.527.07-2.527-.59-3-2zM967.5 2367.5c-.473 1.41-1.473 2.07-3 2 .473-1.41 1.473-2.07 3-2zM963.5 2370.5c-.473 1.41-1.473 2.07-3 2 .473-1.41 1.473-2.07 3-2zM748.5 2371.5c1.527-.07 2.527.59 3 2-1.527.07-2.527-.59-3-2zM959.5 2373.5c-.473 1.41-1.473 2.07-3 2 .473-1.41 1.473-2.07 3-2zM956.5 2375.5c-.473 1.41-1.473 2.07-3 2 .473-1.41 1.473-2.07 3-2zM755.5 2376.5c1.527-.07 2.527.59 3 2-1.527.07-2.527-.59-3-2zM953.5 2377.5c-.473 1.41-1.473 2.07-3 2 .473-1.41 1.473-2.07 3-2zM681.5 2379.5c1.406.47 2.073 1.47 2 3-1.406-.47-2.073-1.47-2-3zM760.5 2379.5c1.527-.07 2.527.59 3 2-1.527.07-2.527-.59-3-2zM950.5 2379.5c-.473 1.41-1.473 2.07-3 2 .473-1.41 1.473-2.07 3-2zM765.5 2382.5c2.174.25 3.841 1.25 5 3-2.174-.25-3.841-1.25-5-3zM683.5 2382.5c1.406.47 2.073 1.47 2 3-1.406-.47-2.073-1.47-2-3zM943.5 2383.5c-1.159 1.75-2.826 2.75-5 3 1.159-1.75 2.826-2.75 5-3zM686.5 2386.5c1.406.47 2.073 1.47 2 3-1.406-.47-2.073-1.47-2-3zM778.5 2389.5c2.053-.1 3.72.57 5 2-2.053.1-3.72-.57-5-2zM934.5 2388.5c-1.926 1.79-4.259 2.79-7 3 1.926-1.79 4.259-2.79 7-3zM688.5 2389.5c1.762.76 2.762 2.1 3 4-1.762-.76-2.762-2.1-3-4zm4 5c1.406.47 2.073 1.47 2 3-1.406-.47-2.073-1.47-2-3zM696.5 2399.5c1.762.76 2.762 2.1 3 4-1.762-.76-2.762-2.1-3-4zM700.5 2404.5c1 .33 1.667 1 2 2h-24v-1c7.519.32 14.852-.01 22-1z"/></svg><svg viewBox="0 0 223 167" id="pattern3" xmlns="http://www.w3.org/2000/svg"><path d="M80.5-.5h4c4.068.972 8.068 2.472 12 4.5L111 18.5 124.5 5c4.345-2.943 9.011-4.776 14-5.5h3c5.365 1.008 10.365 3.175 15 6.5a215.521 215.521 0 0117 18c-4.351 5.17-10.017 7.67-17 7.5-6.377-.024-12.044-2.024-17-6a163.023 163.023 0 00-11 10.5l29 29c.667.667 1.333.667 2 0L187 37.5l32 32 3.5 7v14l-3.5 7-32 32-27.5-27.5c-.667-.667-1.333-.667-2 0l-29 29a163.222 163.222 0 0011 10.5c7.8-6.08 16.467-7.58 26-4.5 3.103 1.281 5.769 3.114 8 5.5a523.412 523.412 0 01-19 19.5l-9 4.5h-12c-8.732-4.207-16.232-10.207-22.5-18L97.5 162a56.889 56.889 0 01-9 4.5h-12c-10.762-6.078-20.096-14.078-28-24 7.822-7.012 16.822-8.845 27-5.5a28.425 28.425 0 017.5 4.5L93.5 131l-29-29c-.667-.667-1.333-.667-2 0L35 129.5l-32-32-3.5-7v-14l3.5-7 32-32L62.5 65c.667.667 1.333.667 2 0l29-29a163.046 163.046 0 00-11-10.5c-8.083 5.785-16.75 6.952-26 3.5-2.992-1.315-5.325-3.315-7-6 6.788-9.123 15.121-16.457 25-22 2.208-.19 4.208-.69 6-1.5zm30 54a636.922 636.922 0 0130 30 1249.437 1249.437 0 01-29.5 30 1250.003 1250.003 0 01-29.5-30c9.688-10.02 19.355-20.02 29-30zm-76 19a85.738 85.738 0 0111 11 163.046 163.046 0 01-10.5 11 163.046 163.046 0 01-10.5-11c3.355-3.687 6.689-7.353 10-11zm152 0a85.713 85.713 0 0111 11 163.246 163.246 0 01-10.5 11 163.246 163.246 0 01-10.5-11c3.355-3.687 6.689-7.353 10-11z"/><path d="M109.5 72.5c5.168 2.486 9.501 6.153 13 11a59.832 59.832 0 01-11.5 11 59.832 59.832 0 01-11.5-11c3.355-3.687 6.689-7.353 10-11z"/></svg><svg viewBox="0 0 1040 1016" id="pattern4" xmlns="http://www.w3.org/2000/svg"><path d="M-.5-.5h511c.167 24.002 0 48.002-.5 72-5.622 60.425-32.456 108.925-80.5 145.5-24.14 16.167-50.474 27.5-79 34 53.337.673 106.67.506 160-.5a890.97 890.97 0 01-.5 79c-5.717 53.602-28.551 98.435-68.5 134.5-31.075 25.371-66.742 40.037-107 44a2375.02 2375.02 0 01-82 2.5 5883.3 5883.3 0 00.5-162c-14.831 65.807-52.331 113.64-112.5 143.5-38.512 15.478-78.512 21.311-120 17.5H.5c.284-1.915-.049-3.581-1-5V-.5zm252 41c.999 69.831 1.333 139.831 1 210h-9l-194-2c98.603-22.392 163.437-81.726 194.5-178a246.576 246.576 0 007.5-30zM1038.5-.5h1v506h-37c11.82-.995 23.82-1.328 36-1V-.5zM654.5 11.5a8444.063 8444.063 0 01225-.5 2896.75 2896.75 0 01-123 105 804.733 804.733 0 01-39 28 82.611 82.611 0 01-23.5 10.5c-3.833.167-5.667-1.667-5.5-5.5A725.588 725.588 0 00706 99.5c4.947-24.482-1.053-45.816-18-64a145.58 145.58 0 00-33.5-24z"/><path d="M62.5 33.5c29.645 2.475 50.145 17.475 61.5 45 3.889 10.658 3.223 20.992-2 31-11.247 10.684-24.08 12.85-38.5 6.5-20.595-9.588-34.428-25.088-41.5-46.5-4.163-18.71 2.67-30.71 20.5-36z"/><path d="M66.5 44.5c22.33 1.16 37.997 11.993 47 32.5 5.8 24.199-3.533 34.199-28 30C64.553 98.408 53.386 82.908 52 60.5c1.227-8.722 6.06-14.056 14.5-16zM1020.5 137.5c1.33 37.161 2 74.661 2 112.5-.33 37.5-.67 75-1 112.5-9.28-18.781-22.618-33.948-40-45.5-20.964-10.633-42.298-11.3-64-2a507.871 507.871 0 01-34.5 13.5c-3.842-.515-5.342-2.682-4.5-6.5a21.351 21.351 0 012.5-9.5 407.687 407.687 0 0118-29 2689.556 2689.556 0 0143-55c26.174-30.365 52.341-60.698 78.5-91zM252.5 250.5c.333-70.169-.001-140.169-1-210-.269-1.929.231-3.595 1.5-5a7709.29 7709.29 0 01-.5 215zM49.5 248.5l194 2c-67.001.167-134.001 0-201-.5a17.759 17.759 0 017-1.5zM1002.5 505.5h37v510h-511a655.708 655.708 0 01.5-74c5.746-59.011 31.913-106.511 78.5-142.5 25.04-17.021 52.373-29.021 82-36-53.642.469-107.309.636-161 .5a589.162 589.162 0 011.5-90c8.498-49.843 31.665-91.343 69.5-124.5 33-26.118 70.667-40.452 113-43a1759.136 1759.136 0 0174-1.5 4668.4 4668.4 0 00-.5 162c23.112-94.116 82.612-147.616 178.5-160.5 12.662-.5 25.329-.667 38-.5zm-208 259c64.672-.172 129.339.328 194 1.5-109.813 27.647-176.813 96.814-201 207.5a10918.574 10918.574 0 01-1-209h8zM-.5 504.5c.951 1.419 1.284 3.085 1 5h20c-6.479.991-13.146 1.324-20 1a3481.58 3481.58 0 01-1 118v-124zM19.5 652.5c9.553 19.393 23.553 34.893 42 46.5 19.668 9.265 39.669 9.932 60 2l32-13c9.4-1.929 12.233 1.571 8.5 10.5a323 323 0 01-33 51 2608.482 2608.482 0 01-109 128c-.5-74.999-.667-149.999-.5-225z"/><path d="M794.5 764.5h-8c-.333 69.835.001 139.502 1 209a17.758 17.758 0 01-1.5 7c-.5-72.333-.667-144.666-.5-217 3.213-.31 6.213.023 9 1zM344.5 860.5c5.327-1.325 7.994.675 8 6a282.365 282.365 0 01-12.5 33c-13.398 34.91-5.898 64.41 22.5 88.5a162.667 162.667 0 0025 16 8437.9 8437.9 0 01-225-.5 3490.293 3490.293 0 01120-102.5 517.173 517.173 0 0143-31 126.331 126.331 0 0119-9.5zM938.5 896.5c10.448-1.096 20.448.404 30 4.5 18.674 9.671 31.174 24.504 37.5 44.5 4.12 24.313-6.049 36.147-30.5 35.5-28.045-7.044-45.878-24.544-53.5-52.5-2.624-15.091 2.876-25.757 16.5-32z"/><path d="M947.5 906.5c21.146.829 36.313 10.829 45.5 30 8.59 25.394-.244 36.228-26.5 32.5-22.908-9.21-34.075-26.043-33.5-50.5 2.976-6.495 7.809-10.495 14.5-12z"/></svg><svg viewBox="0 0 198 198" id="pattern5" xmlns="http://www.w3.org/2000/svg"><path d="M-.5 77.5v-12c1.2-3.063 2.7-6.063 4.5-9l19-19c7.5 7.68 9.5 16.68 6 27a69.049 69.049 0 01-4.5 6.5L35 81.5a2829.107 2829.107 0 0044.5-45c-3-3.667-6.333-7-10-10-11.174 8.244-22.008 7.91-32.5-1-.667-.667-.667-1.333 0-2L55.5 5c9.351-5.995 18.684-5.995 28 0a266.813 266.813 0 0014 13.5 266.695 266.695 0 0014-13.5c9.315-5.995 18.649-5.995 28 0a523.103 523.103 0 0119 19.5c-10.301 9.823-21.301 10.49-33 2-4.225 3.036-7.392 6.703-9.5 11l44 44L170.5 71c-6.105-7.592-7.605-16.092-4.5-25.5 1.23-3.232 3.23-5.899 6-8l19 19c5.538 9.128 5.871 18.462 1 28L177.5 99a158.709 158.709 0 0114.5 15.5c3.333 7.333 3.333 14.667 0 22-6.675 8.349-14.175 15.516-22.5 21.5-8.985-10.501-9.319-21.335-1-32.5a107.985 107.985 0 00-8.5-9 2829.553 2829.553 0 00-44.5 45 107.985 107.985 0 008.5 9c11.627-8.418 22.793-7.918 33.5 1.5l-20 20c-9 4.667-18 4.667-27 0a229.592 229.592 0 00-13-12.5 229.424 229.424 0 00-13 12.5c-9 4.667-18 4.667-27 0l-20-20c10.707-9.418 21.873-9.918 33.5-1.5 3.586-2.884 6.252-6.217 8-10l-44-44a108.018 108.018 0 00-8.5 9c8.319 11.165 7.985 21.999-1 32.5-.667.667-1.333.667-2 0L5 139.5c-6-9.333-6-18.667 0-28L17.5 99c-7.398-6.21-13.398-13.377-18-21.5zm97-23a960.676 960.676 0 0146 44.5 2829.553 2829.553 0 01-45 44.5 2831.24 2831.24 0 01-45-44.5 2763.019 2763.019 0 0044-44.5z"/><path d="M96.5 79.5c7.452 5.618 14.119 12.118 20 19.5a174.774 174.774 0 01-19 19.5 551.388 551.388 0 01-20-19.5 521.47 521.47 0 0019-19.5z"/></svg><svg version="1.0" viewBox="0 0 207 198" id="pattern6" xmlns="http://www.w3.org/2000/svg"><path d="M68.2 24c.4 29.6-.1 28.4 17.5 46.2 7 7 13.1 12.8 13.5 12.8.4 0 .8-11.4.8-25.3V32.5l-16-16L67.9.5l.3 23.5zm54.1-7.8L107 31.5v52l13.9-14c17.8-18 17.2-16.5 16.9-46.3L137.5 1l-15.2 15.2zM33 36.5V45h18V28H33v8.5zm123 0V45h17V28h-17v8.5zM16.5 78.9l16 16.1h25.2c13.9 0 25.3-.4 25.3-.9 0-.4-5.7-6.4-12.7-13.2C52.1 63.2 53.2 63.6 24 63.2L.5 62.9l16 16zm142-14.5c-7.2 2.3-9.8 4.3-23 17.5l-13 13.1h52l16-16 16-16-22 .1c-14.8 0-23.3.4-26 1.3zM96.7 92.8L91 98.6l6.3 6.2 6.3 6.2 5.9-6 5.9-6-5.9-6c-3.3-3.3-6.2-6-6.5-6-.3 0-3.1 2.6-6.3 5.8zm-80.5 24.5C7.9 125.7 1 132.9 1 133.4c0 .4 10.2.6 22.8.4 29.1-.5 28 0 46.2-18.3L83.5 102h-52l-15.3 15.3zm120.3-1.4c18.2 17.9 16.7 17.3 47 17.8l23 .4-16-16-16-16.1h-52l14 13.9zm-50.2 11.4c-18.2 18.3-17.7 17-18.1 46.7l-.3 23.5 16.1-16 16-16-.2-25.8-.3-25.8-13.2 13.4zm20.7 13.2v26l15.5 15.5 15.6 15.5-.3-24.5c-.3-23-.4-24.7-2.5-28.5-1.2-2.2-8-9.8-15.2-17l-13.1-13v26zm-73.3 10.1c-.4.4-.7 4.5-.7 9.1v8.3h18.1l-.3-8.8-.3-8.7-8-.3c-4.5-.1-8.4 0-8.8.4zM156 159v9h17v-18h-17v9z"/></svg></svg>