<svg id="Слой_1" data-name="Слой 1" xmlns="http://www.w3.org/2000/svg" viewBox="0 0 32 27.08"><defs><style>.cls-1{fill:#225ca8;}.cls-2{fill:#95c11f;}</style></defs><path class="cls-1" d="M32,12.8c-.05.28-.1.56-.16.85A11.52,11.52,0,0,1,29.08,19,29.18,29.18,0,0,1,25,22.79a1.23,1.23,0,0,1-1.8-.17,1.25,1.25,0,0,1,.24-1.8c1.07-.94,2.17-1.85,3.19-2.84a9.13,9.13,0,0,0,2.56-4,6.77,6.77,0,0,0-1.65-7.09,5.43,5.43,0,0,0-3.68-1.54,6.75,6.75,0,0,0-2.92.4,5.36,5.36,0,0,0-3.2,3.33,11.49,11.49,0,0,0-.44,1.75,1.26,1.26,0,0,1-2.5,0A6.78,6.78,0,0,0,13,7,5.26,5.26,0,0,0,9.86,5.45a6.44,6.44,0,0,0-4.37.72,5.9,5.9,0,0,0-2.8,4.06A7.48,7.48,0,0,0,4.15,16.5a23,23,0,0,0,4.58,4.4c1.66,1.3,3.36,2.55,5,3.86.77.61,1.49,1.29,2.26,2l.23-.2c.67-.6,1.33-1.2,2-1.78a1.26,1.26,0,1,1,1.61,1.92A26.36,26.36,0,0,0,17,29.43a1.19,1.19,0,0,1-1.84.07,38,38,0,0,0-6.19-5.28,45.88,45.88,0,0,1-5-4.2A14.51,14.51,0,0,1,1,16.1,9.67,9.67,0,0,1,.1,10.4,9.16,9.16,0,0,1,1.52,6.54a7.92,7.92,0,0,1,5-3.46,9,9,0,0,1,7.22,1.27,7.59,7.59,0,0,1,1.87,1.92l.34.51c.21-.29.38-.56.57-.81a7.83,7.83,0,0,1,5.55-3.06,9.13,9.13,0,0,1,5.1.79,8,8,0,0,1,4.21,4.75,20.31,20.31,0,0,1,.52,2.34.75.75,0,0,0,.06.13Z" transform="translate(0 -2.83)"/><path class="cls-2" d="M21.4,27.56a.76.76,0,0,1-.76-.76V12.08a.76.76,0,0,1,1.52,0V26.8A.76.76,0,0,1,21.4,27.56Z" transform="translate(0 -2.83)"/><path class="cls-2" d="M18.51,16.57a.76.76,0,0,1-.65-.36.77.77,0,0,1,.24-1.05,6.09,6.09,0,0,0,1.67-1.53,6.25,6.25,0,0,0,.91-1.78.75.75,0,0,1,.95-.5.77.77,0,0,1,.5,1A7.84,7.84,0,0,1,21,14.54a7.43,7.43,0,0,1-2.08,1.91A.77.77,0,0,1,18.51,16.57Z" transform="translate(0 -2.83)"/><path class="cls-2" d="M18.63,20.2a.76.76,0,0,1-.37-1.43,5.4,5.4,0,0,0,1.4-1.11,5.55,5.55,0,0,0,1-1.65.76.76,0,0,1,1.41.58,7.12,7.12,0,0,1-1.32,2.09A6.84,6.84,0,0,1,19,20.1.69.69,0,0,1,18.63,20.2Z" transform="translate(0 -2.83)"/><path class="cls-2" d="M18.63,23.74a.78.78,0,0,1-.66-.39.76.76,0,0,1,.29-1,5.62,5.62,0,0,0,1.4-1.11,5.68,5.68,0,0,0,1-1.65.76.76,0,1,1,1.41.58A7.09,7.09,0,0,1,19,23.64.79.79,0,0,1,18.63,23.74Z" transform="translate(0 -2.83)"/><path class="cls-2" d="M24.3,16.57a.72.72,0,0,1-.4-.12,7.33,7.33,0,0,1-2.09-1.91,7.5,7.5,0,0,1-1.13-2.24.75.75,0,0,1,.49-1,.76.76,0,0,1,1,.5A5.77,5.77,0,0,0,23,13.63a5.91,5.91,0,0,0,1.66,1.53.77.77,0,0,1,.24,1.05A.75.75,0,0,1,24.3,16.57Z" transform="translate(0 -2.83)"/><path class="cls-2" d="M24.17,20.2a.71.71,0,0,1-.37-.1A7,7,0,0,1,22,18.68a6.89,6.89,0,0,1-1.31-2.09A.76.76,0,0,1,22.11,16a5.51,5.51,0,0,0,2.43,2.75.76.76,0,0,1,.29,1A.74.74,0,0,1,24.17,20.2Z" transform="translate(0 -2.83)"/><path class="cls-2" d="M24.17,23.74a.82.82,0,0,1-.37-.1A7.23,7.23,0,0,1,22,22.22a6.94,6.94,0,0,1-1.31-2.1.76.76,0,1,1,1.41-.57,5.45,5.45,0,0,0,1,1.65,5.62,5.62,0,0,0,1.4,1.11.76.76,0,0,1-.37,1.43Z" transform="translate(0 -2.83)"/></svg>
