<?xml version="1.0" encoding="UTF-8"?>
<!DOCTYPE svg PUBLIC "-//W3C//DTD SVG 1.1//EN" "http://www.w3.org/Graphics/SVG/1.1/DTD/svg11.dtd">
<svg xmlns="http://www.w3.org/2000/svg" version="1.1" width="223px" height="167px" style="shape-rendering:geometricPrecision; text-rendering:geometricPrecision; image-rendering:optimizeQuality; fill-rule:evenodd; clip-rule:evenodd" xmlns:xlink="http://www.w3.org/1999/xlink">
<g><path style="opacity:0.973" fill="#93c01e" d="M 80.5,-0.5 C 81.8333,-0.5 83.1667,-0.5 84.5,-0.5C 88.5676,0.471604 92.5676,1.9716 96.5,4C 101.333,8.83333 106.167,13.6667 111,18.5C 115.5,14 120,9.5 124.5,5C 128.845,2.05741 133.511,0.224079 138.5,-0.5C 139.5,-0.5 140.5,-0.5 141.5,-0.5C 146.865,0.50789 151.865,2.67456 156.5,6C 162.545,11.7098 168.212,17.7098 173.5,24C 169.149,29.1695 163.483,31.6695 156.5,31.5C 150.123,31.4764 144.456,29.4764 139.5,25.5C 135.682,28.8176 132.015,32.3176 128.5,36C 138.167,45.6667 147.833,55.3333 157.5,65C 158.167,65.6667 158.833,65.6667 159.5,65C 168.667,55.8333 177.833,46.6667 187,37.5C 197.667,48.1667 208.333,58.8333 219,69.5C 220.213,71.9252 221.379,74.2585 222.5,76.5C 222.5,81.1667 222.5,85.8333 222.5,90.5C 221.379,92.7415 220.213,95.0748 219,97.5C 208.333,108.167 197.667,118.833 187,129.5C 177.833,120.333 168.667,111.167 159.5,102C 158.833,101.333 158.167,101.333 157.5,102C 147.833,111.667 138.167,121.333 128.5,131C 132.015,134.682 135.682,138.182 139.5,141.5C 147.3,135.42 155.967,133.92 165.5,137C 168.603,138.281 171.269,140.114 173.5,142.5C 167.348,149.152 161.015,155.652 154.5,162C 151.408,163.546 148.408,165.046 145.5,166.5C 141.5,166.5 137.5,166.5 133.5,166.5C 124.768,162.293 117.268,156.293 111,148.5C 106.5,153 102,157.5 97.5,162C 94.5625,163.801 91.5625,165.301 88.5,166.5C 84.5,166.5 80.5,166.5 76.5,166.5C 65.7378,160.422 56.4045,152.422 48.5,142.5C 56.3222,135.488 65.3222,133.655 75.5,137C 78.2487,138.123 80.7487,139.623 83,141.5C 86.5,138 90,134.5 93.5,131C 83.8333,121.333 74.1667,111.667 64.5,102C 63.8333,101.333 63.1667,101.333 62.5,102C 53.3333,111.167 44.1667,120.333 35,129.5C 24.3333,118.833 13.6667,108.167 3,97.5C 1.78739,95.0748 0.620727,92.7415 -0.5,90.5C -0.5,85.8333 -0.5,81.1667 -0.5,76.5C 0.620727,74.2585 1.78739,71.9252 3,69.5C 13.6667,58.8333 24.3333,48.1667 35,37.5C 44.1667,46.6667 53.3333,55.8333 62.5,65C 63.1667,65.6667 63.8333,65.6667 64.5,65C 74.1667,55.3333 83.8333,45.6667 93.5,36C 89.9848,32.3176 86.3181,28.8176 82.5,25.5C 74.4166,31.2855 65.75,32.4522 56.5,29C 53.5082,27.6849 51.1748,25.6849 49.5,23C 56.288,13.8767 64.6213,6.54341 74.5,1C 76.7078,0.809116 78.7078,0.309116 80.5,-0.5 Z M 110.5,53.5 C 120.812,63.1457 130.812,73.1457 140.5,83.5C 130.848,93.6525 121.014,103.653 111,113.5C 100.986,103.653 91.1523,93.6525 81.5,83.5C 91.188,73.4794 100.855,63.4794 110.5,53.5 Z M 34.5,72.5 C 38.479,75.8123 42.1456,79.479 45.5,83.5C 42.1824,87.3181 38.6824,90.9848 35,94.5C 31.3176,90.9848 27.8176,87.3181 24.5,83.5C 27.8554,79.8133 31.1887,76.1466 34.5,72.5 Z M 186.5,72.5 C 190.479,75.8123 194.146,79.479 197.5,83.5C 194.182,87.3181 190.682,90.9848 187,94.5C 183.318,90.9848 179.818,87.3181 176.5,83.5C 179.855,79.8133 183.189,76.1466 186.5,72.5 Z"/></g>
<g><path style="opacity:0.891" fill="#93c01e" d="M 109.5,72.5 C 114.668,74.9864 119.001,78.653 122.5,83.5C 119.136,87.6986 115.302,91.3653 111,94.5C 106.698,91.3653 102.864,87.6986 99.5,83.5C 102.855,79.8133 106.189,76.1466 109.5,72.5 Z"/></g>
</svg>
