<?xml version="1.0" encoding="utf-8"?><svg viewBox="0 0 946 381" xmlns="http://www.w3.org/2000/svg" xmlns:xlink="http://www.w3.org/1999/xlink"><style>:root>svg{display:none}:root>svg:target{display:block}</style><svg viewBox="0 0 946 284" id="logo" xmlns="http://www.w3.org/2000/svg"><path d="M890.5.5c3.631 1.108 6.631 3.274 9 6.5 4.848 2.789 9.848 3.122 15 1a46.958 46.958 0 0012-7.5c3 2.333 5.667 5 8 8-12.569 13.094-26.902 15.594-43 7.5a36.253 36.253 0 01-8-9.5c2.378-2.052 4.711-4.052 7-6zM512.5 24.5h12v43a25.87 25.87 0 0010-1c7.975-31.485 27.975-44.651 60-39.5 25.234 11.288 35.734 30.788 31.5 58.5-5.867 23.85-21.033 36.85-45.5 39-22.7-2.194-37.533-14.194-44.5-36a70.529 70.529 0 01-1.5-9h-10v44h-12v-99zm63 14c20.634-.202 33.134 9.798 37.5 30 1.948 21.358-7.219 35.191-27.5 41.5-21.532.481-34.032-10.019-37.5-31.5-.736-20.39 8.431-33.724 27.5-40zM725.5 24.5h12v28h31v-27h12v98h-12v-59h-31v59h-12v-99zM641.5 25.5c1.175-.219 2.175.114 3 1l26.5 37c.5-12.662.667-25.329.5-38h12c-.167 12.338 0 24.671.5 37L710.5 26c4.514.947 8.18 3.447 11 7.5a1676.757 1676.757 0 01-29 39.5 2889.761 2889.761 0 0128.5 42.5c.667 1 .667 2 0 3a84.635 84.635 0 00-7.5 4.5c-1.444.781-2.777.614-4-.5l-25.5-39c-.5 13.33-.667 26.663-.5 40h-12c.167-13.337 0-26.67-.5-40a2496.88 2496.88 0 00-26.5 39.5c-4.544-.435-8.544-2.268-12-5.5a1914.93 1914.93 0 0029-44.5 1596.943 1596.943 0 00-28-39.5c2.382-3.048 5.048-5.715 8-8zM789.5 25.5h12c-.167 12.338 0 24.671.5 37 17.192-8.295 32.192-5.295 45 9 10.875 20.447 6.709 36.947-12.5 49.5a41.451 41.451 0 01-14 3c-10.341.466-20.675.3-31-.5v-98zm29 45c12.958.791 20.291 7.625 22 20.5-.777 9.228-5.444 15.561-14 19a120.132 120.132 0 01-25 1.5c-.166-10.339 0-20.672.5-31 4.427-5.289 9.927-8.622 16.5-10zM857.5 25.5h12v98h-12v-98zM877.5 25.5h12c-.167 23.336 0 46.669.5 70l35.5-69a43.123 43.123 0 0113-1c.323 23.045-.01 46.045-1 69 3.893 4.741 3.893 9.408 0 14a61.234 61.234 0 011 15h-12a62.792 62.792 0 011-15.5c-3.805-4.286-3.805-8.62 0-13a880.435 880.435 0 01-1.5-41.5l-35.5 69a43.117 43.117 0 01-13 1v-98zm56 60h-2c.667-2.667 1.333-2.667 2 0zm-2 30h2c-.667 2.667-1.333 2.667-2 0zM417.5 29.5c13.306-1.508 25.306 1.659 36 9.5a2210.707 2210.707 0 01-39.5 66.5 983.696 983.696 0 00-20-37 6338.57 6338.57 0 00-50.5 94c-.667 1.333-1.333 1.333-2 0a168.789 168.789 0 00-8.5-13 5741.947 5741.947 0 01-53 87c-.5-18.33-.667-36.664-.5-55 28.677-2.677 44.343-18.343 47-47-1.063-21.294-11.397-36.127-31-44.5a45.19 45.19 0 00-16-2.5c-.333-18.679 0-37.345 1-56 38.234 1.95 67.568 18.95 88 51a1231.788 1231.788 0 0121.5-36c7.292-8.887 16.458-14.553 27.5-17zM-.5 234.5v-200c1.531-2.18 3.698-3.18 6.5-3 25.984 2.664 42.984 16.331 51 41a1034.915 1034.915 0 012.5 38c5.24-1.872 9.74-4.872 13.5-9C97.175 47.16 138.675 24.993 197.5 35c47.516 15.683 72.516 48.517 75 98.5.234 19.747-5.099 37.747-16 54-10.036-1.685-18.703-6.018-26-13-13.432 9.91-28.432 13.41-45 10.5 19.091 10.023 39.424 15.523 61 16.5-7.349 8.518-16.016 15.351-26 20.5-20.843.831-36.009-8.002-45.5-26.5-8.397 16.039-21.564 21.872-39.5 17.5a535.83 535.83 0 00-35-6 248.098 248.098 0 01-12-14.5 3.646 3.646 0 011-1.5 83.602 83.602 0 0124-1 196.715 196.715 0 0034.5 6.5 63.01 63.01 0 0015.5-2.5c-14.611-.047-25.111-6.547-31.5-19.5-3.178 5.009-7.678 8.176-13.5 9.5a284.875 284.875 0 00-31 5.5c-6.907-8.481-11.74-18.148-14.5-29a605.899 605.899 0 01-4.5-24 6.202 6.202 0 00-3.5-2 16.993 16.993 0 01-6.5 2c.167 32.335 0 64.668-.5 97a863.78 863.78 0 01-58.5 1zm166-148c27.231-.148 44.397 12.852 51.5 39 2.095 27.662-10.072 45.495-36.5 53.5-29.448 2.865-47.948-9.968-55.5-38.5-2.028-20.441 5.472-36.275 22.5-47.5 5.799-3.082 11.799-5.248 18-6.5zM460.5 42.5a55.094 55.094 0 0110.5 6c1.967 3.498 1.633 6.832-1 10a10245.74 10245.74 0 01-97 166c-7.08 8.857-15.746 15.524-26 20 2.06-5.795 4.727-11.461 8-17a2363107.96 2363107.96 0 01105.5-185z"/><path d="M580.5 50.5c4.565 7.302 8.232 15.136 11 23.5a99.263 99.263 0 01-10 18.5 107.104 107.104 0 01-12-18.5 744.06 744.06 0 0011-23.5zm-188 37a121.559 121.559 0 0110 15.5 881.858 881.858 0 01-17 37.5 29.804 29.804 0 01-4.5-6 322.585 322.585 0 00-14.5 9c7.449-18.917 16.116-37.583 26-56zM590.5 150.5c11.364-.854 22.364.646 33 4.5 17.292 13.04 20.792 29.207 10.5 48.5-8.148 9.99-18.648 14.323-31.5 13v33h-12v-99zm13 13c17.599.755 25.099 9.755 22.5 27-4.692 10.259-12.526 14.592-23.5 13a411.206 411.206 0 011-40zM518.5 151.5h12a302.475 302.475 0 001.5 41c6.416 13.36 16.249 16.527 29.5 9.5 4.841-5.186 7.341-11.353 7.5-18.5.5-10.661.667-21.328.5-32h12c.453 25.377-.047 50.71-1.5 76-6.251 19.218-19.418 26.718-39.5 22.5-8.86-2.86-15.193-8.527-19-17 2.792-2.902 6.125-5.069 10-6.5 7.283 12.156 17.283 14.989 30 8.5 5.969-6.377 8.302-13.877 7-22.5-2.957 2.312-6.291 3.812-10 4.5-20.871 3.831-34.037-4.336-39.5-24.5a840.27 840.27 0 01-.5-41zM663.5 151.5h19l20 98c-4.822.565-9.322-.101-13.5-2l-16-76a2153.518 2153.518 0 00-17 77c-4.066.964-8.233 1.297-12.5 1a4254.073 4254.073 0 0120-98zm66 0h19l20 98c-4.822.565-9.322-.101-13.5-2l-16-76a2153.518 2153.518 0 00-17 77c-4.066.964-8.233 1.297-12.5 1a4254.073 4254.073 0 0120-98z"/><path d="M549.5 161.5c3.548 5.256 6.548 10.923 9 17a148.454 148.454 0 01-8.5 14 105.1 105.1 0 01-8.5-14.5 377.136 377.136 0 018-16.5zM672.5 199.5a143.811 143.811 0 019 17.5l-8.5 14.5a110.834 110.834 0 01-9.5-14.5 433.386 433.386 0 009-17.5zM166.5 214.5a78.853 78.853 0 0115 7.5 80.83 80.83 0 0020 5c-16.607 7.078-33.94 9.411-52 7-16.192-2.226-30.859-8.059-44-17.5 7.293 1.023 14.626 2.856 22 5.5 14.589 4.929 27.589 2.429 39-7.5z"/></svg><svg viewBox="0 0 556 381" id="logo-color" xmlns="http://www.w3.org/2000/svg"><path d="M489.5-.5h3c9.219.683 17.886 3.516 26 8.5 1.074.739 1.741 1.739 2 3A7257.84 7257.84 0 00480 81.5c-.893 1.211-1.726 1.211-2.5 0a1093.159 1093.159 0 00-21-39l-55 102c-.667 1.333-1.333 1.333-2 0l-8-13c-.667-1.333-1.333-1.333-2 0l-57 94a900.602 900.602 0 01-1-60c25.981-1.146 42.814-14.146 50.5-39 4.501-28.502-6.332-48.668-32.5-60.5a49.185 49.185 0 00-18-2.5v-61c42.53 1.507 75.03 20.173 97.5 56a901.503 901.503 0 0020-35c9.654-14.574 23.154-22.574 40.5-24zM29.5 2.5c26.637.227 45.803 12.227 57.5 36a83.813 83.813 0 014 14 650.114 650.114 0 001.5 36c6.274-2.058 11.441-5.725 15.5-11C131.684 23.067 173.184-1.433 232.5 4c45.372 9.371 74.872 36.205 88.5 80.5 7.081 29.433 3.414 57.433-11 84-.777 1.715-2.11 2.715-4 3-11.01-1.162-20.177-5.829-27.5-14-6.816 6.241-14.816 10.074-24 11.5l-24 1c20.685 10.671 42.685 16.338 66 17-8.515 9.189-18.182 16.856-29 23-22.071.3-38.405-9.2-49-28.5a205.572 205.572 0 01-11 13.5 27.538 27.538 0 01-11 5 100.2 100.2 0 01-20 0 998.998 998.998 0 00-39-7 83.872 83.872 0 01-14-16 67.403 67.403 0 0117.5-3.5 476.978 476.978 0 0135.5 7c10.12 1.652 20.12 1.152 30-1.5-15.964.356-27.631-6.478-35-20.5-3.451 4.897-8.118 8.064-14 9.5a542.467 542.467 0 00-36 6c-11.01-17.191-17.177-36.025-18.5-56.5-1.117-1.624-2.617-2.624-4.5-3a28.737 28.737 0 01-7 2c.167 35.335 0 70.668-.5 106a1016.268 1016.268 0 01-63.5 1c-.167-72.667 0-145.334.5-218l1.5-3zm176 60c22.669-2.247 40.169 6.087 52.5 25 12.954 28.357 6.787 51.524-18.5 69.5-28.349 12.956-51.515 6.789-69.5-18.5-12.407-26.641-7.241-49.141 15.5-67.5 6.388-3.733 13.055-6.566 20-8.5zM528.5 14.5c4.634 1.403 8.801 3.736 12.5 7 .79 3.134.457 6.134-1 9a23762.99 23762.99 0 01-104 179c-7.487 10.32-16.987 18.153-28.5 23.5-1 .667-2 .667-3 0a23521.08 23521.08 0 00124-218.5z"/><path d="M454.5 63.5c.996-.086 1.829.248 2.5 1a231.186 231.186 0 008.5 16 567.352 567.352 0 01-18.5 41l-4.5-7-16 10-1-1 29-60zM209.5 201.5l19 9.5a96.305 96.305 0 0019 4c-30.202 11.826-60.202 11.16-90-2a86.323 86.323 0 01-15-9.5c8.217 1.327 16.55 3.494 25 6.5 15.714 4.891 29.714 2.058 42-8.5zM282.5 262.5a4.934 4.934 0 013 .5c4.588 5.621 10.255 6.954 17 4l7-4.5a25.658 25.658 0 016 6c-11.958 11.464-24.125 11.797-36.5 1a9.454 9.454 0 00-1.5-2.5 208.311 208.311 0 005-4.5zM.5 279.5h9v33h8c2.767-19.767 14.1-30.767 34-33 17.27 1.438 28.438 10.438 33.5 27 4.738 21.159-2.429 36.659-21.5 46.5-25.44 5.08-41.107-5.087-47-30.5a13.115 13.115 0 00-7-1v33h-9v-75zm46 11c18.151-.187 28.151 8.813 30 27-1.675 17.851-11.342 26.684-29 26.5-10.491-2.491-16.991-8.991-19.5-19.5-2.387-16.24 3.78-27.573 18.5-34zM159.5 279.5h9v22h23v-21h9v74h-9v-44h-23v44h-9v-75zM96.5 280.5c2.41.421 4.243 1.754 5.5 4l17 24c.5-9.327.666-18.661.5-28h9c-.166 9.339 0 18.673.5 28l19.5-27.5c1-.667 2-.667 3 0a21.53 21.53 0 006 5 762.827 762.827 0 01-22 30 1121.954 1121.954 0 0022 33.5c-2.544 3.615-5.877 4.948-10 4l-18.5-29c-.5 9.994-.666 19.994-.5 30h-9c.166-10.006 0-20.006-.5-30L99.5 354c-3.753.123-6.753-1.377-9-4.5a580.589 580.589 0 0021-33.5 1398.366 1398.366 0 01-21-29.5c1.715-2.382 3.715-4.382 6-6zM207.5 280.5h9a183.078 183.078 0 001 27c12.47-5.174 23.304-2.84 32.5 7 4.28 7.063 5.613 14.73 4 23-5.944 13.981-16.61 19.981-32 18a282.811 282.811 0 00-14.5-1v-74zm18 35c12.808-1.369 19.308 4.298 19.5 17-.996 5.659-4.162 9.493-9.5 11.5a69.558 69.558 0 01-19 1.5c-.166-7.674 0-15.341.5-23 2.416-2.923 5.25-5.257 8.5-7zM258.5 280.5h9v74h-9v-74zM273.5 280.5h9c-.167 17.337 0 34.67.5 52l25.5-51a25.879 25.879 0 0110-1 670.389 670.389 0 01-1 51.5c3.48 3.839 3.48 7.506 0 11 .96 3.73 1.293 7.563 1 11.5h-9c-.293-3.937.04-7.77 1-11.5-2.852-2.153-3.352-4.653-1.5-7.5.667-11 .667-22 0-33l-25.5 51a25.879 25.879 0 01-10 1v-74zM363.5 280.5h9a199.68 199.68 0 001.5 31c4.495 9.833 11.662 12.333 21.5 7.5 3.167-3.155 5.001-6.988 5.5-11.5.5-8.994.666-17.994.5-27h9a651.475 651.475 0 01-1.5 61c-6.036 12.43-15.869 16.93-29.5 13.5-8.059-1.86-12.059-6.694-12-14.5a43.286 43.286 0 005.5-3l7.5 7.5c14.585 3.249 21.252-2.584 20-17.5-6.709 2.883-13.709 3.716-21 2.5-8.827-3.44-13.993-9.94-15.5-19.5-.5-9.994-.666-19.994-.5-30zM417.5 280.5a98.746 98.746 0 0123 1.5c14.898 9.789 18.065 22.623 9.5 38.5-6.093 7.422-13.926 10.422-23.5 9v25h-9v-74zm10 9c10.283.294 16.283 5.461 18 15.5-1.889 10.507-8.056 15.34-18.5 14.5a154.309 154.309 0 01.5-30zM485.5 327.5c-.63 4.929-2.63 9.263-6 13a82.501 82.501 0 01-7.5-10l-5 23c-3.057.951-6.223 1.284-9.5 1a2826.39 2826.39 0 0114.5-73 55.155 55.155 0 0114.5-1 4791.404 4791.404 0 0016 73.5 60.931 60.931 0 01-11 .5 241.414 241.414 0 00-6-27zm0 0a86.778 86.778 0 01-6-11 59.24 59.24 0 00-6.5 13 379.263 379.263 0 016-33 196.994 196.994 0 016.5 31zM521.5 280.5h14a4791.404 4791.404 0 0016 73.5 60.931 60.931 0 01-11 .5 1281.473 1281.473 0 00-12.5-58 4316.096 4316.096 0 01-12 57c-3.057.951-6.223 1.284-9.5 1a1814.872 1814.872 0 0115-74z"/><path d="M386.5 287.5c3.219 3.935 5.552 8.435 7 13.5a34.06 34.06 0 01-6 10.5 118.886 118.886 0 01-7-10.5 115.349 115.349 0 006-13.5zM51.5 299.5a113.398 113.398 0 019 18 148.58 148.58 0 01-8.5 14 48.193 48.193 0 01-8.5-14.5 138.258 138.258 0 018-17.5z"/></svg><svg viewBox="0 0 556 373" id="logo-vertic" xmlns="http://www.w3.org/2000/svg"><path d="M482.5-.5h17c6.904 1.943 13.57 4.776 20 8.5a3.944 3.944 0 011 2 1871.17 1871.17 0 01-41 71c-.832.688-1.498.521-2-.5a524.425 524.425 0 00-21-38 3664.768 3664.768 0 00-54.5 101c-.718.951-1.551 1.117-2.5.5a234.997 234.997 0 01-7.5-12.5c-1-1.333-2-1.333-3 0a4233.12 4233.12 0 01-57 94c-.5-20.331-.667-40.664-.5-61 31.841-2.174 49.174-19.174 52-51-1.504-23.51-13.17-39.677-35-48.5a58.103 58.103 0 00-17-2.5v-60c42.693.589 75.193 18.922 97.5 55a737.27 737.27 0 0127-44c7.572-7.2 16.405-11.868 26.5-14zM31.5 1.5c32.37 2.545 52.203 19.545 59.5 51 .5 11.662.666 23.329.5 35 6.132-1.317 11.299-4.317 15.5-9l15-28C154.054 8.369 195.887-6.131 247.5 7c48.723 18.258 74.389 53.425 77 105.5.073 21.383-5.594 41.05-17 59a61.002 61.002 0 01-21-7.5 20.231 20.231 0 01-7.5-7.5c-10.135 9.269-22.135 13.602-36 13a84.49 84.49 0 00-12.5-.5c20.563 11.187 42.563 16.853 66 17-7.83 9.496-17.163 17.163-28 23-22.829 1.005-39.663-8.495-50.5-28.5-7.282 15.559-19.449 22.059-36.5 19.5a1207.933 1207.933 0 00-43-7 90.479 90.479 0 01-15-17 69.521 69.521 0 0126-2 284.215 284.215 0 0040 7.5 73.28 73.28 0 0018-3.5c-16.166.965-28.166-5.535-36-19.5-3.385 4.207-7.718 7.04-13 8.5a195.62 195.62 0 01-26 4 35.68 35.68 0 00-10 3.5c-11.779-17.503-18.279-36.836-19.5-58-3.494-3.48-7.161-3.48-11 0l-1 105a9.457 9.457 0 01-2.5 1.5c-20.33.5-40.664.667-61 .5-.167-73.001 0-146 .5-219 .985-1.314 2.152-2.314 3.5-3zm177 60c25.545-.593 43.379 10.74 53.5 34 7.072 28.343-2.095 49.51-27.5 63.5-21.602 8.151-40.769 4.317-57.5-11.5-18-23.333-18-46.667 0-70 8.875-8.687 19.375-14.02 31.5-16zM528.5 13.5l11 5.5c2.745 5.062 2.245 9.896-1.5 14.5a20123.693 20123.693 0 00-95 165c-9.128 15.295-21.628 26.962-37.5 35-1.021-.502-1.188-1.168-.5-2a35578.607 35578.607 0 00123.5-218z"/><path d="M454.5 62.5c.876-.13 1.543.203 2 1a396.84 396.84 0 019 16.5 1954.318 1954.318 0 00-16.5 38.5c-.423 1.456-1.256 1.956-2.5 1.5a23.162 23.162 0 00-4.5-6.5c-4.983 4.565-10.483 7.565-16.5 9a1239.434 1239.434 0 0029-60zM208.5 201.5a12.93 12.93 0 015 .5c10.092 7.421 21.425 11.587 34 12.5-27.888 11.796-55.888 11.962-84 .5a108.477 108.477 0 01-21-12 416.1 416.1 0 0132 8c12.933 2.103 24.266-1.063 34-9.5zM283.5 255.5a4.934 4.934 0 013 .5c4.588 5.621 10.255 6.954 17 4l7-4.5a25.658 25.658 0 016 6c-11.958 11.464-24.125 11.797-36.5 1a9.454 9.454 0 00-1.5-2.5 208.311 208.311 0 005-4.5zM.5 272.5h9v33h8c2.767-19.767 14.1-30.767 34-33 17.27 1.438 28.438 10.438 33.5 27 4.738 21.159-2.429 36.659-21.5 46.5-25.44 5.08-41.107-5.087-47-30.5a13.115 13.115 0 00-7-1v33h-9v-75zm46 11c18.151-.187 28.151 8.813 30 27-1.675 17.851-11.342 26.684-29 26.5-10.491-2.491-16.991-8.991-19.5-19.5-2.387-16.24 3.78-27.573 18.5-34zM159.5 272.5h9v22h23v-21h9v74h-9v-44h-23v44h-9v-75zM96.5 273.5c2.41.421 4.243 1.754 5.5 4l17 24c.5-9.327.666-18.661.5-28h9c-.166 9.339 0 18.673.5 28l19.5-27.5c1-.667 2-.667 3 0a21.53 21.53 0 006 5 762.827 762.827 0 01-22 30 1121.954 1121.954 0 0022 33.5c-2.544 3.615-5.877 4.948-10 4l-18.5-29c-.5 9.994-.666 19.994-.5 30h-9c.166-10.006 0-20.006-.5-30L99.5 347c-3.753.123-6.753-1.377-9-4.5a580.589 580.589 0 0021-33.5 1398.366 1398.366 0 01-21-29.5c1.715-2.382 3.715-4.382 6-6zM207.5 273.5h9a183.078 183.078 0 001 27c12.47-5.174 23.304-2.84 32.5 7 4.28 7.063 5.613 14.73 4 23-5.944 13.981-16.61 19.981-32 18a282.811 282.811 0 00-14.5-1v-74zm18 35c12.808-1.369 19.308 4.298 19.5 17-.996 5.659-4.162 9.493-9.5 11.5a69.558 69.558 0 01-19 1.5c-.166-7.674 0-15.341.5-23 2.416-2.923 5.25-5.257 8.5-7zM258.5 273.5h9v74h-9v-74zM274.5 273.5h9c-.167 17.337 0 34.67.5 52l25.5-51a25.879 25.879 0 0110-1 670.389 670.389 0 01-1 51.5c3.48 3.839 3.48 7.506 0 11 .96 3.73 1.293 7.563 1 11.5h-9c-.293-3.937.04-7.77 1-11.5-2.852-2.153-3.352-4.653-1.5-7.5.667-11 .667-22 0-33l-25.5 51a25.879 25.879 0 01-10 1v-74zM363.5 273.5h9a199.68 199.68 0 001.5 31c4.495 9.833 11.662 12.333 21.5 7.5 3.167-3.155 5.001-6.988 5.5-11.5.5-8.994.666-17.994.5-27h9a651.475 651.475 0 01-1.5 61c-6.036 12.43-15.869 16.93-29.5 13.5-8.059-1.86-12.059-6.694-12-14.5a43.286 43.286 0 005.5-3l7.5 7.5c14.585 3.249 21.252-2.584 20-17.5-6.709 2.883-13.709 3.716-21 2.5-8.827-3.44-13.993-9.94-15.5-19.5-.5-9.994-.666-19.994-.5-30zM417.5 273.5a98.746 98.746 0 0123 1.5c14.898 9.789 18.065 22.623 9.5 38.5-6.093 7.422-13.926 10.422-23.5 9v25h-9v-74zm10 9c10.283.294 16.283 5.461 18 15.5-1.889 10.507-8.056 15.34-18.5 14.5a154.309 154.309 0 01.5-30zM485.5 320.5c-.63 4.929-2.63 9.263-6 13a82.501 82.501 0 01-7.5-10l-5 23c-3.057.951-6.223 1.284-9.5 1a2826.39 2826.39 0 0114.5-73 55.155 55.155 0 0114.5-1 4791.404 4791.404 0 0016 73.5 60.931 60.931 0 01-11 .5 241.414 241.414 0 00-6-27zm0 0a86.778 86.778 0 01-6-11 59.24 59.24 0 00-6.5 13 379.263 379.263 0 016-33 196.994 196.994 0 016.5 31zM521.5 273.5h14a4791.404 4791.404 0 0016 73.5 60.931 60.931 0 01-11 .5 1281.473 1281.473 0 00-12.5-58 4316.096 4316.096 0 01-12 57c-3.057.951-6.223 1.284-9.5 1a1814.872 1814.872 0 0115-74z"/><path d="M386.5 280.5c3.219 3.935 5.552 8.435 7 13.5a34.06 34.06 0 01-6 10.5 118.886 118.886 0 01-7-10.5 115.349 115.349 0 006-13.5zM51.5 292.5a113.398 113.398 0 019 18 148.58 148.58 0 01-8.5 14 48.193 48.193 0 01-8.5-14.5 138.258 138.258 0 018-17.5z"/></svg></svg>