<?xml version="1.0" encoding="utf-8"?><svg viewBox="0 0 946 382" xmlns="http://www.w3.org/2000/svg" xmlns:xlink="http://www.w3.org/1999/xlink"><style>:root>svg{display:none}:root>svg:target{display:block}</style><svg viewBox="0 0 946 284" id="logo" xmlns="http://www.w3.org/2000/svg"><path d="M890.5.5c3.631 1.108 6.631 3.274 9 6.5 4.848 2.789 9.848 3.122 15 1a46.958 46.958 0 0012-7.5c3 2.333 5.667 5 8 8-12.569 13.094-26.902 15.594-43 7.5a36.253 36.253 0 01-8-9.5c2.378-2.052 4.711-4.052 7-6zM512.5 24.5h12v43a25.87 25.87 0 0010-1c7.975-31.485 27.975-44.651 60-39.5 25.234 11.288 35.734 30.788 31.5 58.5-5.867 23.85-21.033 36.85-45.5 39-22.7-2.194-37.533-14.194-44.5-36a70.529 70.529 0 01-1.5-9h-10v44h-12v-99zm63 14c20.634-.202 33.134 9.798 37.5 30 1.948 21.358-7.219 35.191-27.5 41.5-21.532.481-34.032-10.019-37.5-31.5-.736-20.39 8.431-33.724 27.5-40zM725.5 24.5h12v28h31v-27h12v98h-12v-59h-31v59h-12v-99zM641.5 25.5c1.175-.219 2.175.114 3 1l26.5 37c.5-12.662.667-25.329.5-38h12c-.167 12.338 0 24.671.5 37L710.5 26c4.514.947 8.18 3.447 11 7.5a1676.757 1676.757 0 01-29 39.5 2889.761 2889.761 0 0128.5 42.5c.667 1 .667 2 0 3a84.635 84.635 0 00-7.5 4.5c-1.444.781-2.777.614-4-.5l-25.5-39c-.5 13.33-.667 26.663-.5 40h-12c.167-13.337 0-26.67-.5-40a2496.88 2496.88 0 00-26.5 39.5c-4.544-.435-8.544-2.268-12-5.5a1914.93 1914.93 0 0029-44.5 1596.943 1596.943 0 00-28-39.5c2.382-3.048 5.048-5.715 8-8zM789.5 25.5h12c-.167 12.338 0 24.671.5 37 17.192-8.295 32.192-5.295 45 9 10.875 20.447 6.709 36.947-12.5 49.5a41.451 41.451 0 01-14 3c-10.341.466-20.675.3-31-.5v-98zm29 45c12.958.791 20.291 7.625 22 20.5-.777 9.228-5.444 15.561-14 19a120.132 120.132 0 01-25 1.5c-.166-10.339 0-20.672.5-31 4.427-5.289 9.927-8.622 16.5-10zM857.5 25.5h12v98h-12v-98zM877.5 25.5h12c-.167 23.336 0 46.669.5 70l35.5-69a43.123 43.123 0 0113-1c.323 23.045-.01 46.045-1 69 3.893 4.741 3.893 9.408 0 14a61.234 61.234 0 011 15h-12a62.792 62.792 0 011-15.5c-3.805-4.286-3.805-8.62 0-13a880.435 880.435 0 01-1.5-41.5l-35.5 69a43.117 43.117 0 01-13 1v-98zm56 60h-2c.667-2.667 1.333-2.667 2 0zm-2 30h2c-.667 2.667-1.333 2.667-2 0zM417.5 29.5c13.306-1.508 25.306 1.659 36 9.5a2210.707 2210.707 0 01-39.5 66.5 983.696 983.696 0 00-20-37 6338.57 6338.57 0 00-50.5 94c-.667 1.333-1.333 1.333-2 0a168.789 168.789 0 00-8.5-13 5741.947 5741.947 0 01-53 87c-.5-18.33-.667-36.664-.5-55 28.677-2.677 44.343-18.343 47-47-1.063-21.294-11.397-36.127-31-44.5a45.19 45.19 0 00-16-2.5c-.333-18.679 0-37.345 1-56 38.234 1.95 67.568 18.95 88 51a1231.788 1231.788 0 0121.5-36c7.292-8.887 16.458-14.553 27.5-17zM-.5 234.5v-200c1.531-2.18 3.698-3.18 6.5-3 25.984 2.664 42.984 16.331 51 41a1034.915 1034.915 0 012.5 38c5.24-1.872 9.74-4.872 13.5-9C97.175 47.16 138.675 24.993 197.5 35c47.516 15.683 72.516 48.517 75 98.5.234 19.747-5.099 37.747-16 54-10.036-1.685-18.703-6.018-26-13-13.432 9.91-28.432 13.41-45 10.5 19.091 10.023 39.424 15.523 61 16.5-7.349 8.518-16.016 15.351-26 20.5-20.843.831-36.009-8.002-45.5-26.5-8.397 16.039-21.564 21.872-39.5 17.5a535.83 535.83 0 00-35-6 248.098 248.098 0 01-12-14.5 3.646 3.646 0 011-1.5 83.602 83.602 0 0124-1 196.715 196.715 0 0034.5 6.5 63.01 63.01 0 0015.5-2.5c-14.611-.047-25.111-6.547-31.5-19.5-3.178 5.009-7.678 8.176-13.5 9.5a284.875 284.875 0 00-31 5.5c-6.907-8.481-11.74-18.148-14.5-29a605.899 605.899 0 01-4.5-24 6.202 6.202 0 00-3.5-2 16.993 16.993 0 01-6.5 2c.167 32.335 0 64.668-.5 97a863.78 863.78 0 01-58.5 1zm166-148c27.231-.148 44.397 12.852 51.5 39 2.095 27.662-10.072 45.495-36.5 53.5-29.448 2.865-47.948-9.968-55.5-38.5-2.028-20.441 5.472-36.275 22.5-47.5 5.799-3.082 11.799-5.248 18-6.5zM460.5 42.5a55.094 55.094 0 0110.5 6c1.967 3.498 1.633 6.832-1 10a10245.74 10245.74 0 01-97 166c-7.08 8.857-15.746 15.524-26 20 2.06-5.795 4.727-11.461 8-17a2363107.96 2363107.96 0 01105.5-185z"/><path d="M580.5 50.5c4.565 7.302 8.232 15.136 11 23.5a99.263 99.263 0 01-10 18.5 107.104 107.104 0 01-12-18.5 744.06 744.06 0 0011-23.5zm-188 37a121.559 121.559 0 0110 15.5 881.858 881.858 0 01-17 37.5 29.804 29.804 0 01-4.5-6 322.585 322.585 0 00-14.5 9c7.449-18.917 16.116-37.583 26-56zM590.5 150.5c11.364-.854 22.364.646 33 4.5 17.292 13.04 20.792 29.207 10.5 48.5-8.148 9.99-18.648 14.323-31.5 13v33h-12v-99zm13 13c17.599.755 25.099 9.755 22.5 27-4.692 10.259-12.526 14.592-23.5 13a411.206 411.206 0 011-40zM518.5 151.5h12a302.475 302.475 0 001.5 41c6.416 13.36 16.249 16.527 29.5 9.5 4.841-5.186 7.341-11.353 7.5-18.5.5-10.661.667-21.328.5-32h12c.453 25.377-.047 50.71-1.5 76-6.251 19.218-19.418 26.718-39.5 22.5-8.86-2.86-15.193-8.527-19-17 2.792-2.902 6.125-5.069 10-6.5 7.283 12.156 17.283 14.989 30 8.5 5.969-6.377 8.302-13.877 7-22.5-2.957 2.312-6.291 3.812-10 4.5-20.871 3.831-34.037-4.336-39.5-24.5a840.27 840.27 0 01-.5-41zM663.5 151.5h19l20 98c-4.822.565-9.322-.101-13.5-2l-16-76a2153.518 2153.518 0 00-17 77c-4.066.964-8.233 1.297-12.5 1a4254.073 4254.073 0 0120-98zm66 0h19l20 98c-4.822.565-9.322-.101-13.5-2l-16-76a2153.518 2153.518 0 00-17 77c-4.066.964-8.233 1.297-12.5 1a4254.073 4254.073 0 0120-98z"/><path d="M549.5 161.5c3.548 5.256 6.548 10.923 9 17a148.454 148.454 0 01-8.5 14 105.1 105.1 0 01-8.5-14.5 377.136 377.136 0 018-16.5zM672.5 199.5a143.811 143.811 0 019 17.5l-8.5 14.5a110.834 110.834 0 01-9.5-14.5 433.386 433.386 0 009-17.5zM166.5 214.5a78.853 78.853 0 0115 7.5 80.83 80.83 0 0020 5c-16.607 7.078-33.94 9.411-52 7-16.192-2.226-30.859-8.059-44-17.5 7.293 1.023 14.626 2.856 22 5.5 14.589 4.929 27.589 2.429 39-7.5z"/></svg><svg viewBox="0 0 555 382" id="logo-color" xmlns="http://www.w3.org/2000/svg"><path d="M487.5-.5h3c9.219.683 17.886 3.516 26 8.5 1.074.739 1.741 1.739 2 3A7257.84 7257.84 0 00478 81.5c-.893 1.211-1.726 1.211-2.5 0a1093.159 1093.159 0 00-21-39l-55 102c-.667 1.333-1.333 1.333-2 0l-8-13c-.667-1.333-1.333-1.333-2 0l-57 94a900.602 900.602 0 01-1-60c25.981-1.146 42.814-14.146 50.5-39 4.501-28.502-6.332-48.668-32.5-60.5a49.185 49.185 0 00-18-2.5v-61c42.53 1.507 75.03 20.173 97.5 56a901.503 901.503 0 0020-35c9.654-14.574 23.154-22.574 40.5-24zM27.5 2.5c26.637.227 45.803 12.227 57.5 36a83.813 83.813 0 014 14 650.114 650.114 0 001.5 36c6.274-2.058 11.441-5.725 15.5-11C129.684 23.067 171.184-1.433 230.5 4c45.372 9.371 74.872 36.205 88.5 80.5 7.081 29.433 3.414 57.433-11 84-.777 1.715-2.11 2.715-4 3-11.01-1.162-20.177-5.829-27.5-14-6.816 6.241-14.816 10.074-24 11.5l-24 1c20.685 10.671 42.685 16.338 66 17-8.515 9.189-18.182 16.856-29 23-22.071.3-38.405-9.2-49-28.5a205.572 205.572 0 01-11 13.5 27.538 27.538 0 01-11 5 100.2 100.2 0 01-20 0 998.998 998.998 0 00-39-7 83.872 83.872 0 01-14-16 67.403 67.403 0 0117.5-3.5 476.978 476.978 0 0135.5 7c10.12 1.652 20.12 1.152 30-1.5-15.964.356-27.631-6.478-35-20.5-3.451 4.897-8.118 8.064-14 9.5a542.467 542.467 0 00-36 6c-11.01-17.191-17.177-36.025-18.5-56.5-1.117-1.624-2.617-2.624-4.5-3a28.737 28.737 0 01-7 2c.167 35.335 0 70.668-.5 106a1016.268 1016.268 0 01-63.5 1c-.167-72.667 0-145.334.5-218l1.5-3zm176 60c22.669-2.247 40.169 6.087 52.5 25 12.954 28.357 6.787 51.524-18.5 69.5-28.349 12.956-51.515 6.789-69.5-18.5-12.407-26.641-7.241-49.141 15.5-67.5 6.388-3.733 13.055-6.566 20-8.5zM526.5 14.5c4.634 1.403 8.801 3.736 12.5 7 .79 3.134.457 6.134-1 9a23762.99 23762.99 0 01-104 179c-7.487 10.32-16.987 18.153-28.5 23.5-1 .667-2 .667-3 0a23521.08 23521.08 0 00124-218.5z"/><path d="M452.5 63.5c.996-.086 1.829.248 2.5 1a231.186 231.186 0 008.5 16 567.352 567.352 0 01-18.5 41l-4.5-7-16 10-1-1 29-60zM207.5 201.5l19 9.5a96.305 96.305 0 0019 4c-30.202 11.826-60.202 11.16-90-2a86.323 86.323 0 01-15-9.5c8.217 1.327 16.55 3.494 25 6.5 15.714 4.891 29.714 2.058 42-8.5zM282.5 263.5a4.934 4.934 0 013 .5c4.588 5.621 10.255 6.954 17 4l7-4.5a25.658 25.658 0 016 6c-11.958 11.464-24.125 11.797-36.5 1a9.454 9.454 0 00-1.5-2.5 208.311 208.311 0 005-4.5zM-.5 280.5h9v33h8c2.767-19.767 14.1-30.767 34-33 17.27 1.438 28.438 10.438 33.5 27 4.738 21.159-2.429 36.659-21.5 46.5-25.44 5.08-41.107-5.087-47-30.5a13.115 13.115 0 00-7-1v33h-9v-75zm46 11c18.151-.187 28.151 8.813 30 27-1.675 17.851-11.342 26.684-29 26.5-10.491-2.491-16.991-8.991-19.5-19.5-2.387-16.24 3.78-27.573 18.5-34zM158.5 280.5h9v22h23v-21h9v74h-9v-44h-23v44h-9v-75zM95.5 281.5c2.41.421 4.243 1.754 5.5 4l17 24c.5-9.327.666-18.661.5-28h9c-.166 9.339 0 18.673.5 28l19.5-27.5c1-.667 2-.667 3 0a21.53 21.53 0 006 5 762.827 762.827 0 01-22 30 1121.954 1121.954 0 0022 33.5c-2.544 3.615-5.877 4.948-10 4l-18.5-29c-.5 9.994-.666 19.994-.5 30h-9c.166-10.006 0-20.006-.5-30L98.5 355c-3.753.123-6.753-1.377-9-4.5a580.589 580.589 0 0021-33.5 1398.366 1398.366 0 01-21-29.5c1.715-2.382 3.715-4.382 6-6zM207.5 281.5h9a183.078 183.078 0 001 27c12.47-5.174 23.304-2.84 32.5 7 4.28 7.063 5.613 14.73 4 23-5.944 13.981-16.61 19.981-32 18a282.811 282.811 0 00-14.5-1v-74zm18 35c12.808-1.369 19.308 4.298 19.5 17-.996 5.659-4.162 9.493-9.5 11.5a69.558 69.558 0 01-19 1.5c-.166-7.674 0-15.341.5-23 2.416-2.923 5.25-5.257 8.5-7zM258.5 281.5h9v74h-9v-74zM273.5 281.5h9c-.167 17.337 0 34.67.5 52l25.5-51a25.879 25.879 0 0110-1 670.389 670.389 0 01-1 51.5c3.48 3.839 3.48 7.506 0 11 .96 3.73 1.293 7.563 1 11.5h-9c-.293-3.937.04-7.77 1-11.5-2.852-2.153-3.352-4.653-1.5-7.5.667-11 .667-22 0-33l-25.5 51a25.879 25.879 0 01-10 1v-74zM362.5 281.5h9a199.68 199.68 0 001.5 31c4.495 9.833 11.662 12.333 21.5 7.5 3.167-3.155 5.001-6.988 5.5-11.5.5-8.994.666-17.994.5-27h9a651.475 651.475 0 01-1.5 61c-6.036 12.43-15.869 16.93-29.5 13.5-8.059-1.86-12.059-6.694-12-14.5a43.286 43.286 0 005.5-3l7.5 7.5c14.585 3.249 21.252-2.584 20-17.5-6.709 2.883-13.709 3.716-21 2.5-8.827-3.44-13.993-9.94-15.5-19.5-.5-9.994-.666-19.994-.5-30zM416.5 281.5a98.746 98.746 0 0123 1.5c14.898 9.789 18.065 22.623 9.5 38.5-6.093 7.422-13.926 10.422-23.5 9v25h-9v-74zm10 9c10.283.294 16.283 5.461 18 15.5-1.889 10.507-8.056 15.34-18.5 14.5a154.309 154.309 0 01.5-30zM484.5 328.5c-.63 4.929-2.63 9.263-6 13a82.501 82.501 0 01-7.5-10l-5 23c-3.057.951-6.223 1.284-9.5 1a2826.39 2826.39 0 0114.5-73 55.155 55.155 0 0114.5-1 4791.404 4791.404 0 0016 73.5 60.931 60.931 0 01-11 .5 241.414 241.414 0 00-6-27zm0 0a86.778 86.778 0 01-6-11 59.24 59.24 0 00-6.5 13 379.263 379.263 0 016-33 196.994 196.994 0 016.5 31zM520.5 281.5h14a4791.404 4791.404 0 0016 73.5 60.931 60.931 0 01-11 .5 1281.473 1281.473 0 00-12.5-58 4316.096 4316.096 0 01-12 57c-3.057.951-6.223 1.284-9.5 1a1814.872 1814.872 0 0115-74z"/><path d="M385.5 288.5c3.219 3.935 5.552 8.435 7 13.5a34.06 34.06 0 01-6 10.5 118.886 118.886 0 01-7-10.5 115.349 115.349 0 006-13.5zM50.5 300.5a113.398 113.398 0 019 18 148.58 148.58 0 01-8.5 14 48.193 48.193 0 01-8.5-14.5 138.258 138.258 0 018-17.5z"/></svg><svg viewBox="0 0 556 373" id="logo-vertic" xmlns="http://www.w3.org/2000/svg"><path d="M482.5-.5h17c6.904 1.943 13.57 4.776 20 8.5a3.944 3.944 0 011 2 1871.17 1871.17 0 01-41 71c-.832.688-1.498.521-2-.5a524.425 524.425 0 00-21-38 3664.768 3664.768 0 00-54.5 101c-.718.951-1.551 1.117-2.5.5a234.997 234.997 0 01-7.5-12.5c-1-1.333-2-1.333-3 0a4233.12 4233.12 0 01-57 94c-.5-20.331-.667-40.664-.5-61 31.841-2.174 49.174-19.174 52-51-1.504-23.51-13.17-39.677-35-48.5a58.103 58.103 0 00-17-2.5v-60c42.693.589 75.193 18.922 97.5 55a737.27 737.27 0 0127-44c7.572-7.2 16.405-11.868 26.5-14zM31.5 1.5c32.37 2.545 52.203 19.545 59.5 51 .5 11.662.666 23.329.5 35 6.132-1.317 11.299-4.317 15.5-9l15-28C154.054 8.369 195.887-6.131 247.5 7c48.723 18.258 74.389 53.425 77 105.5.073 21.383-5.594 41.05-17 59a61.002 61.002 0 01-21-7.5 20.231 20.231 0 01-7.5-7.5c-10.135 9.269-22.135 13.602-36 13a84.49 84.49 0 00-12.5-.5c20.563 11.187 42.563 16.853 66 17-7.83 9.496-17.163 17.163-28 23-22.829 1.005-39.663-8.495-50.5-28.5-7.282 15.559-19.449 22.059-36.5 19.5a1207.933 1207.933 0 00-43-7 90.479 90.479 0 01-15-17 69.521 69.521 0 0126-2 284.215 284.215 0 0040 7.5 73.28 73.28 0 0018-3.5c-16.166.965-28.166-5.535-36-19.5-3.385 4.207-7.718 7.04-13 8.5a195.62 195.62 0 01-26 4 35.68 35.68 0 00-10 3.5c-11.779-17.503-18.279-36.836-19.5-58-3.494-3.48-7.161-3.48-11 0l-1 105a9.457 9.457 0 01-2.5 1.5c-20.33.5-40.664.667-61 .5-.167-73.001 0-146 .5-219 .985-1.314 2.152-2.314 3.5-3zm177 60c25.545-.593 43.379 10.74 53.5 34 7.072 28.343-2.095 49.51-27.5 63.5-21.602 8.151-40.769 4.317-57.5-11.5-18-23.333-18-46.667 0-70 8.875-8.687 19.375-14.02 31.5-16zM528.5 13.5l11 5.5c2.745 5.062 2.245 9.896-1.5 14.5a20123.693 20123.693 0 00-95 165c-9.128 15.295-21.628 26.962-37.5 35-1.021-.502-1.188-1.168-.5-2a35578.607 35578.607 0 00123.5-218z"/><path d="M454.5 62.5c.876-.13 1.543.203 2 1a396.84 396.84 0 019 16.5 1954.318 1954.318 0 00-16.5 38.5c-.423 1.456-1.256 1.956-2.5 1.5a23.162 23.162 0 00-4.5-6.5c-4.983 4.565-10.483 7.565-16.5 9a1239.434 1239.434 0 0029-60zM208.5 201.5a12.93 12.93 0 015 .5c10.092 7.421 21.425 11.587 34 12.5-27.888 11.796-55.888 11.962-84 .5a108.477 108.477 0 01-21-12 416.1 416.1 0 0132 8c12.933 2.103 24.266-1.063 34-9.5zM283.5 255.5a4.934 4.934 0 013 .5c4.588 5.621 10.255 6.954 17 4l7-4.5a25.658 25.658 0 016 6c-11.958 11.464-24.125 11.797-36.5 1a9.454 9.454 0 00-1.5-2.5 208.311 208.311 0 005-4.5zM.5 272.5h9v33h8c2.767-19.767 14.1-30.767 34-33 17.27 1.438 28.438 10.438 33.5 27 4.738 21.159-2.429 36.659-21.5 46.5-25.44 5.08-41.107-5.087-47-30.5a13.115 13.115 0 00-7-1v33h-9v-75zm46 11c18.151-.187 28.151 8.813 30 27-1.675 17.851-11.342 26.684-29 26.5-10.491-2.491-16.991-8.991-19.5-19.5-2.387-16.24 3.78-27.573 18.5-34zM159.5 272.5h9v22h23v-21h9v74h-9v-44h-23v44h-9v-75zM96.5 273.5c2.41.421 4.243 1.754 5.5 4l17 24c.5-9.327.666-18.661.5-28h9c-.166 9.339 0 18.673.5 28l19.5-27.5c1-.667 2-.667 3 0a21.53 21.53 0 006 5 762.827 762.827 0 01-22 30 1121.954 1121.954 0 0022 33.5c-2.544 3.615-5.877 4.948-10 4l-18.5-29c-.5 9.994-.666 19.994-.5 30h-9c.166-10.006 0-20.006-.5-30L99.5 347c-3.753.123-6.753-1.377-9-4.5a580.589 580.589 0 0021-33.5 1398.366 1398.366 0 01-21-29.5c1.715-2.382 3.715-4.382 6-6zM207.5 273.5h9a183.078 183.078 0 001 27c12.47-5.174 23.304-2.84 32.5 7 4.28 7.063 5.613 14.73 4 23-5.944 13.981-16.61 19.981-32 18a282.811 282.811 0 00-14.5-1v-74zm18 35c12.808-1.369 19.308 4.298 19.5 17-.996 5.659-4.162 9.493-9.5 11.5a69.558 69.558 0 01-19 1.5c-.166-7.674 0-15.341.5-23 2.416-2.923 5.25-5.257 8.5-7zM258.5 273.5h9v74h-9v-74zM274.5 273.5h9c-.167 17.337 0 34.67.5 52l25.5-51a25.879 25.879 0 0110-1 670.389 670.389 0 01-1 51.5c3.48 3.839 3.48 7.506 0 11 .96 3.73 1.293 7.563 1 11.5h-9c-.293-3.937.04-7.77 1-11.5-2.852-2.153-3.352-4.653-1.5-7.5.667-11 .667-22 0-33l-25.5 51a25.879 25.879 0 01-10 1v-74zM363.5 273.5h9a199.68 199.68 0 001.5 31c4.495 9.833 11.662 12.333 21.5 7.5 3.167-3.155 5.001-6.988 5.5-11.5.5-8.994.666-17.994.5-27h9a651.475 651.475 0 01-1.5 61c-6.036 12.43-15.869 16.93-29.5 13.5-8.059-1.86-12.059-6.694-12-14.5a43.286 43.286 0 005.5-3l7.5 7.5c14.585 3.249 21.252-2.584 20-17.5-6.709 2.883-13.709 3.716-21 2.5-8.827-3.44-13.993-9.94-15.5-19.5-.5-9.994-.666-19.994-.5-30zM417.5 273.5a98.746 98.746 0 0123 1.5c14.898 9.789 18.065 22.623 9.5 38.5-6.093 7.422-13.926 10.422-23.5 9v25h-9v-74zm10 9c10.283.294 16.283 5.461 18 15.5-1.889 10.507-8.056 15.34-18.5 14.5a154.309 154.309 0 01.5-30zM485.5 320.5c-.63 4.929-2.63 9.263-6 13a82.501 82.501 0 01-7.5-10l-5 23c-3.057.951-6.223 1.284-9.5 1a2826.39 2826.39 0 0114.5-73 55.155 55.155 0 0114.5-1 4791.404 4791.404 0 0016 73.5 60.931 60.931 0 01-11 .5 241.414 241.414 0 00-6-27zm0 0a86.778 86.778 0 01-6-11 59.24 59.24 0 00-6.5 13 379.263 379.263 0 016-33 196.994 196.994 0 016.5 31zM521.5 273.5h14a4791.404 4791.404 0 0016 73.5 60.931 60.931 0 01-11 .5 1281.473 1281.473 0 00-12.5-58 4316.096 4316.096 0 01-12 57c-3.057.951-6.223 1.284-9.5 1a1814.872 1814.872 0 0115-74z"/><path d="M386.5 280.5c3.219 3.935 5.552 8.435 7 13.5a34.06 34.06 0 01-6 10.5 118.886 118.886 0 01-7-10.5 115.349 115.349 0 006-13.5zM51.5 292.5a113.398 113.398 0 019 18 148.58 148.58 0 01-8.5 14 48.193 48.193 0 01-8.5-14.5 138.258 138.258 0 018-17.5z"/></svg><svg version="1.1" id="pattern-full" x="0" y="0" viewBox="0 0 683.31 339.36" xml:space="preserve" xmlns="http://www.w3.org/2000/svg"><style>.dst1{fill:#225ca8}.dst2{fill:#95c11f}</style><pattern x="1.43" y="-128.99" width="170.08" height="170.08" patternUnits="userSpaceOnUse" id="dНовый_узор_5" viewBox="0 -206.91 170.08 170.08"><path d="M0-206.91h170.08v170.08H0z"/><path transform="rotate(-45.001 41.005 -36.835)" class="dst1" d="M37.73-40.11h6.56v6.56h-6.56z"/><path class="dst1" d="M60.95-63.75h6.56v6.56h-6.56zm-46.44 0h6.56v6.56h-6.56zm33.87 25.34l8.65-8.65a11.33 11.33 0 018.02-3.32h15.02L68.1-38.41H48.38zm-14.75 0l-8.65-8.65a11.33 11.33 0 00-8.02-3.32H1.94l11.97 11.97h19.72zm8.77-4.16l8.65-8.65a11.33 11.33 0 003.32-8.02v-15.02L42.4-62.29v19.72zm-2.79 0l-8.65-8.65a11.33 11.33 0 01-3.32-8.02v-15.02l11.97 11.97v19.72z"/><path class="dst2" d="M157.25-36.58l4.37-4.37a8.752 8.752 0 000-12.38l-6.3-6.3-.09.09a8.782 8.782 0 000 12.42l-4.26 4.26-17.59-17.59 4.25-4.25a8.782 8.782 0 0012.42 0l.09-.09-6.21-6.21-.09-.09a8.752 8.752 0 00-12.38 0l-4.37 4.37-4.37-4.37a8.752 8.752 0 00-12.38 0l-.09.09-6.21 6.21.09.09a8.782 8.782 0 0012.42 0l4.25 4.25-17.59 17.59-4.26-4.26a8.782 8.782 0 000-12.42l-.09-.09-6.3 6.3a8.752 8.752 0 000 12.38l4.37 4.37-3.86 3.86a8.752 8.752 0 000 12.38l6.3 6.3.09-.09a8.782 8.782 0 000-12.42l3.75-3.75 17.59 17.59-3.74 3.74a8.782 8.782 0 00-12.42 0l-.09.09 6.21 6.21.09.09a8.752 8.752 0 0012.38 0l3.86-3.86 3.86 3.86a8.752 8.752 0 0012.38 0l.09-.09 6.21-6.21-.09-.09a8.782 8.782 0 00-12.42 0l-3.74-3.74 17.59-17.59 3.75 3.75a8.782 8.782 0 000 12.42l.09.09 6.3-6.3a8.752 8.752 0 000-12.38l-3.86-3.86zM127.1-18.99l-17.6-17.59 17.59-17.59 17.59 17.59-17.58 17.59z"/><path transform="rotate(-45.001 126.979 -36.577)" class="dst2" d="M121.87-41.68h10.21v10.21h-10.21z"/><path class="dst2" d="M72.21-121.62l4.37-4.37a8.752 8.752 0 000-12.38l-6.3-6.3-.09.09a8.782 8.782 0 000 12.42l-4.26 4.26-17.59-17.59 4.25-4.25a8.782 8.782 0 0012.42 0l.09-.09-6.21-6.21-.09-.09a8.752 8.752 0 00-12.38 0l-4.37 4.37-4.37-4.37a8.752 8.752 0 00-12.38 0l-.09.09-6.21 6.21.09.09a8.782 8.782 0 0012.42 0l4.25 4.25-17.58 17.59-4.26-4.26a8.782 8.782 0 000-12.42l-.09-.09-6.3 6.3a8.752 8.752 0 000 12.38l4.37 4.37-3.86 3.86a8.752 8.752 0 000 12.38l6.3 6.3.09-.09a8.782 8.782 0 000-12.42l3.75-3.75 17.59 17.59L32.03-94a8.782 8.782 0 00-12.42 0l-.09.09 6.21 6.21.09.09a8.752 8.752 0 0012.38 0l3.86-3.86 3.86 3.86a8.752 8.752 0 0012.38 0l.09-.09 6.21-6.21-.09-.09a8.782 8.782 0 00-12.42 0l-3.74-3.74 17.59-17.59 3.75 3.75a8.782 8.782 0 000 12.42l.09.09 6.3-6.3a8.752 8.752 0 000-12.38l-3.87-3.87zm-30.15 17.59l-17.59-17.59 17.59-17.59 17.59 17.59-17.59 17.59z"/><path transform="rotate(-45.001 41.94 -121.618)" class="dst2" d="M36.83-126.72h10.21v10.21H36.83z"/><path transform="rotate(-45.001 126.046 -121.874)" class="dst1" d="M122.77-125.15h6.56v6.56h-6.56z"/><path class="dst1" d="M145.99-148.79h6.56v6.56h-6.56zm0 46.51h6.56v6.56h-6.56zm-46.44 0h6.56v6.56h-6.56zm0-46.51h6.56v6.56h-6.56zm25.1 32.65l-8.65 8.65a11.33 11.33 0 00-3.32 8.02v15.02l11.97-11.97v-19.72zm2.79 0l8.65 8.65a11.33 11.33 0 013.32 8.02v15.02l-11.97-11.97v-19.72zm5.98-4.53l8.65 8.65a11.33 11.33 0 008.02 3.32h15.02l-11.97-11.97h-19.72zm0-2.78l8.65-8.65a11.33 11.33 0 018.02-3.32h15.02l-11.97 11.97h-19.72zm-14.75 2.78l-8.65 8.65a11.33 11.33 0 01-8.02 3.32H86.98l11.97-11.97h19.72zm0-2.78l-8.65-8.65a11.33 11.33 0 00-8.02-3.32H86.98l11.97 11.97h19.72zm8.77-4.16l8.65-8.65a11.33 11.33 0 003.32-8.02v-15.02l-11.97 11.97v19.72zm-2.79 0l-8.65-8.65a11.33 11.33 0 01-3.32-8.02v-15.02l11.97 11.97v19.72z"/><path transform="rotate(-45.001 41.007 -206.914)" class="dst1" d="M37.73-210.19h6.56v6.56h-6.56z"/><path class="dst1" d="M60.95-187.32h6.56v6.56h-6.56zm-46.44 0h6.56v6.56h-6.56zm25.1-13.86l-8.65 8.65a11.33 11.33 0 00-3.32 8.02v15.02l11.97-11.97v-19.72zm2.79 0l8.65 8.65a11.33 11.33 0 013.32 8.02v15.02L42.4-181.46v-19.72zm5.98-4.53l8.65 8.65a11.33 11.33 0 008.02 3.32h15.02L68.1-205.71H48.38zm-14.75 0l-8.65 8.65a11.33 11.33 0 01-8.02 3.32H1.94l11.97-11.97h19.72z"/><path class="dst2" d="M157.25-206.66l4.37-4.37a8.752 8.752 0 000-12.38l-6.3-6.3-.09.09a8.782 8.782 0 000 12.42l-4.26 4.26-17.59-17.59 4.25-4.25a8.782 8.782 0 0012.42 0l.09-.09-6.21-6.21-.09-.09a8.752 8.752 0 00-12.38 0l-4.37 4.37-4.37-4.37a8.752 8.752 0 00-12.38 0l-.09.09-6.21 6.21.09.09a8.782 8.782 0 0012.42 0l4.25 4.25-17.59 17.59-4.26-4.26a8.782 8.782 0 000-12.42l-.09-.09-6.3 6.3a8.752 8.752 0 000 12.38l4.37 4.37-3.86 3.86a8.752 8.752 0 000 12.38l6.3 6.3.09-.09a8.782 8.782 0 000-12.42l3.75-3.75 17.59 17.59-3.74 3.74a8.782 8.782 0 00-12.42 0l-.09.09 6.21 6.21.09.09a8.752 8.752 0 0012.38 0l3.86-3.86 3.86 3.86a8.752 8.752 0 0012.38 0l.09-.09 6.21-6.21-.09-.09a8.782 8.782 0 00-12.42 0l-3.74-3.74 17.59-17.59 3.75 3.75a8.782 8.782 0 000 12.42l.09.09 6.3-6.3a8.752 8.752 0 000-12.38l-3.86-3.86zm-30.15 17.59l-17.59-17.59 17.59-17.59 17.59 17.59-17.59 17.59z"/><path transform="rotate(-45.001 126.98 -206.657)" class="dst2" d="M121.87-211.76h10.21v10.21h-10.21z"/></pattern><path d="M0 0h683.31v339.36H0z"/></svg><svg id="tourism-icon1.1" data-name="Слой 1" viewBox="0 0 25.53 32" xmlns="http://www.w3.org/2000/svg"><defs><style>.ecls-1{fill:#225ca8}.ecls-2{fill:#95c11f}</style></defs><path class="ecls-1" d="M9 1.69a.75.75 0 000 .17A8 8 0 018 4.6c-.14.22-.33.5-.63 1A4.7 4.7 0 007 6a9 9 0 00-.93 3.1 10.4 10.4 0 00.11 2.67v-.15a12.56 12.56 0 00-1.41 3.08 13 13 0 00-.31 6.17 4.37 4.37 0 01.91-1.67c.68-.79 1.15-.72 1.94-1.54a6.61 6.61 0 001.28-2c.53-1.22.29-1.47.71-2.25a3.84 3.84 0 012.53-2c1.79-.24 3.21 1.48 3.65 2a6 6 0 01.68 1 4.3 4.3 0 015.61-2.68 4 4 0 012.47 3.49c0 .59-.31 1.07 0 1.65.11.23.29.45 1.13 1s1.31.72 1.6.92c.57.38 1.14 1.29 1 3.65a11.31 11.31 0 00.72-3.2 12.37 12.37 0 00-2.13-7.7 7.7 7.7 0 000-2.86c-.28-1.5-.91-2.28-1.82-4.17A31.49 31.49 0 0123.34 1a.78.78 0 00-.48-.4c-.44-.07-.93.58-2.27 3-.49.91-.89 1.68-1.18 2.26a23.62 23.62 0 00-3.1-.07 22.3 22.3 0 00-2.69.28l-1.86-4L9.93.64A1.87 1.87 0 009 1.69z" transform="translate(-3.67)"/><path class="ecls-1" d="M16.29 32a11.15 11.15 0 01-2.83-.36 12.42 12.42 0 01-6.36-4.31A13.59 13.59 0 014 21.5a13.83 13.83 0 011.77-10 8 8 0 01.78-5.56 4 4 0 01.23-.34 7 7 0 00.72-1.29 8.47 8.47 0 00.39-1.18A6.08 6.08 0 019.49.25L9.74 0l.3.17a5.21 5.21 0 012.28 2.22 5.07 5.07 0 01.31.83 7.93 7.93 0 00.35 1 7.79 7.79 0 00.87 1.47 11.33 11.33 0 012.46-.29 12 12 0 012.39.24l.51-.13a16.79 16.79 0 011.36-3C21.26 1.32 22 0 23.06.15a1.3 1.3 0 01.87.59L24 .8v.07a34.28 34.28 0 001.25 3.31c.3.66.55 1.18.77 1.63a9.52 9.52 0 011 2.53 8.7 8.7 0 01.07 3.26A13.51 13.51 0 0129 21.27a13.47 13.47 0 01-3.44 6.41 12.55 12.55 0 01-4.64 3.41 12.25 12.25 0 01-4.63.91zM9.91 1.17a4.77 4.77 0 00-.61.88 5.43 5.43 0 00-.5 1.32 8.92 8.92 0 01-.45 1.31 6.82 6.82 0 01-.82 1.41l-.21.31c-.75 1.15-1 2.86-.61 5.08v.17l-.1.14a13 13 0 00-1.74 9.5 12.54 12.54 0 002.91 5.42 11.52 11.52 0 005.89 4 10.85 10.85 0 006.82-.51 11.65 11.65 0 004.3-3.17 12.71 12.71 0 003.22-6A12.53 12.53 0 0026.17 12l-.1-.16v-.18a8 8 0 000-3.08 9 9 0 00-.9-2.32c-.22-.46-.48-1-.78-1.66-.47-1.07-.9-2.19-1.27-3.33a.4.4 0 00-.21-.16c-.09 0-.31.1-.61.47A10 10 0 0021.38 3 15.73 15.73 0 0020 6l-.08.25-1.23.31h-.1a9.85 9.85 0 00-2.29-.24 10.26 10.26 0 00-2.53.32l-.29.08-.19-.23a8.42 8.42 0 01-1.18-1.91 8.73 8.73 0 01-.39-1.06 4.54 4.54 0 00-.26-.7 4.05 4.05 0 00-1.55-1.65z" transform="translate(-3.67)"/><path class="ecls-1" d="M28.14 22.91a.42.42 0 01-.41-.33c-.68-3.15-1.53-4-2.12-4.17h-.11a2.2 2.2 0 01-1.52-1 1.77 1.77 0 01-.17-1.18 3.9 3.9 0 00-.88-3.07 3.56 3.56 0 00-2.58-1.29 3.78 3.78 0 00-3.67 3.68.41.41 0 01-.4.4.43.43 0 01-.44-.37 3.93 3.93 0 00-3.74-3.64A3.73 3.73 0 009 14.09a.43.43 0 01-.57.19.42.42 0 01-.18-.57 4.56 4.56 0 013.86-2.61 4.56 4.56 0 014.13 2.76A4.56 4.56 0 0120.28 11h.09a4.38 4.38 0 013.2 1.59 4.74 4.74 0 011.08 3.74 1 1 0 00.06.65 1.49 1.49 0 001 .55h.12c1.21.33 2.1 1.91 2.72 4.8a.42.42 0 01-.32.5zM4.39 21.55h-.15A.42.42 0 014 21a5.71 5.71 0 012.33-3.2l.17-.1a2.4 2.4 0 001-.77 2.42 2.42 0 00.37-1.44.43.43 0 01.41-.43.42.42 0 01.43.42 3.18 3.18 0 01-.51 1.92 3.31 3.31 0 01-1.24 1l-.16.09a5 5 0 00-2 2.74.42.42 0 01-.41.32z" transform="translate(-3.67)"/><circle class="ecls-2" cx="8.57" cy="15.51" r="1.1"/><circle class="ecls-2" cx="16.92" cy="15.51" r="1.1"/><path class="ecls-2" d="M13.65 25.53a4.18 4.18 0 00.09 2.84 4.25 4.25 0 002.54 2.33 3 3 0 001.31-.37c1.34-.76 2-2.63 1.72-4.73m-.87-3.41a2.1 2.1 0 01-2.3 1.67 2 2 0 01-1.74-1.66 1.63 1.63 0 01.4-1.2 2.07 2.07 0 011.54-.47 2.07 2.07 0 011.55.29 1.58 1.58 0 01.55 1.37z" transform="translate(-3.67)"/><path class="ecls-1" d="M21.27 23.54a.4.4 0 01-.15 0 .42.42 0 01-.25-.54l.7-1.88a.44.44 0 01.55-.24.42.42 0 01.24.54l-.7 1.88a.41.41 0 01-.39.24zm-10.49 6.74a.42.42 0 01-.42-.42v-2a.43.43 0 01.85 0v2a.42.42 0 01-.43.42zm1.33.82a.42.42 0 01-.42-.42v-1.5a.42.42 0 11.84 0v1.5a.42.42 0 01-.42.42zm6.33-4.95a3.65 3.65 0 01-2.05-.69 3.7 3.7 0 01-2.55.58 3.39 3.39 0 01-1.36-.56c-1.84-1.23-1.87-4-1.86-4.51a.42.42 0 01.43-.41.42.42 0 01.41.43c0 .28 0 2.78 1.49 3.79a2.56 2.56 0 001 .43 3 3 0 002.17-.6l.27-.21.26.23a2.72 2.72 0 002.43.57 2.37 2.37 0 001.22-1 .42.42 0 01.71.45A3.2 3.2 0 0119.38 26a2.92 2.92 0 01-.94.15z" transform="translate(-3.67)"/><path class="ecls-1" d="M16.41 27.63a.47.47 0 01-.47-.46V25a.47.47 0 11.93 0v2.13a.47.47 0 01-.46.5z" transform="translate(-3.67)"/><path class="ecls-2" d="M10.31 3.74a.7.7 0 00-.36.11.79.79 0 00-.29.47c-.11.39-.13.14-.65 1.26a9.18 9.18 0 00-.49 1.18 3.88 3.88 0 00-.08 1.49.31.31 0 00.15.12c.21.06.45-.2.55-.29.7-.7 1.36-.5 2.15-1.39a1 1 0 00.28-.45c.08-.32-.05-.62-.43-1.24-.21-.34-.49-.77-.83-1.26zm12.2 0a.67.67 0 01.35.11.79.79 0 01.29.47c.11.39.14.14.65 1.26a9.18 9.18 0 01.49 1.18 4 4 0 01.09 1.49.3.3 0 01-.16.12c-.21.06-.45-.2-.55-.29-.7-.7-1.35-.5-2.14-1.39a1 1 0 01-.29-.45c-.08-.32.06-.62.44-1.24.21-.34.48-.77.83-1.26z" transform="translate(-3.67)"/></svg><svg data-name="Слой 1" viewBox="0 0 30.93 32" id="tourism-icon1.2" xmlns="http://www.w3.org/2000/svg"><path d="M30.38 14.75L15.63 0l2.38 7.39a8.77 8.77 0 01-.16 1.15c-.41 2.06-1.17 2.51-1 3.71 0 .43.13.26.6 1.8.21.67.35 1.22.44 1.58a1.66 1.66 0 001.23.66c.3 0 .49-.15.76 0s.24.26.55.52a3.67 3.67 0 00.57.36 4.28 4.28 0 01.93.73 2.91 2.91 0 00-1.17-.16c-.24 0-.35.06-.66.11a6.51 6.51 0 01-1.2.08 2.64 2.64 0 01-1.88.79c-.16 1-.31 2.08-.47 3.11a1.39 1.39 0 01.47.49 2 2 0 01.11 1.07 2.63 2.63 0 00.9 1.64c.48.59.37 2.25-2.11 6.87l14.5-14.5a1.86 1.86 0 00-.04-2.65zM14.51 28.78a15.64 15.64 0 00.33-2.78 2.79 2.79 0 00-.29-1.45c-.23-.45-.46-.52-.71-.85-.58-.76-.4-1.53-.52-2.92a11.52 11.52 0 00-.49-2.46 2.57 2.57 0 00-1.23-.54c-.73-.1-1.17.21-1.72-.11-.09-.06-.43-.25-.41-.52s.22-.33.41-.44a13.91 13.91 0 013.06-.92l.68-1.37a3.12 3.12 0 01-.33-1.42 3.21 3.21 0 01.28-1.12c.5-1.44 0-1.74.38-3s1.06-1.25 1.14-2.24a2.84 2.84 0 00-.4-1.64c-.3-.52-.37-1.77.53-4.93L.46 14.87a1.67 1.67 0 000 2.37L15.24 32a5.2 5.2 0 01-.73-3.22z"/></svg><svg id="tourism-icon1.3" data-name="Слой 1" viewBox="0 0 31.85 31.88" xmlns="http://www.w3.org/2000/svg"><defs><style>.gcls-1{fill:#225ca8}.gcls-2{fill:#95c11f}</style></defs><path class="gcls-1" d="M7.14 2.7a2.67 2.67 0 00-.77 1.65c-.07 1.22 1 2.14 2.14 3.19a5.73 5.73 0 002 1.23 3.24 3.24 0 001.74.23c1.17-.28 1.77-1.43 2.14-2.14a6.29 6.29 0 00.5-4.24 2.56 2.56 0 00-.59-1.51C13.5.27 12.11.53 11.2.7a8.6 8.6 0 00-4.06 2zM18.06.68a4.44 4.44 0 00-1.61 1.72A2.51 2.51 0 0016 4.13c.17.81 1 1.24 1.78 1.66 1.2.62 3.12 1.61 4.42.68A3.15 3.15 0 0023.21 4c.05-1.53-.79-3.47-2.4-3.9a3.64 3.64 0 00-2.75.58z" transform="translate(-.18)"/><path class="gcls-2" d="M17 7.31a4.31 4.31 0 00-1.69.41c-.5.24-1.08.51-1.18 1s.42 1.05 1.07 1.66 1.61 1.54 3 2.85a.67.67 0 00.43 0c.34-.08.54-.46.71-1a16.35 16.35 0 00.48-3.79 2.59 2.59 0 00-.55-.66A2.79 2.79 0 0017 7.31z" transform="translate(-.18)"/><path class="gcls-1" d="M8.1 9.09a2.57 2.57 0 00-1.21 1.11c-.14.21-1.59 2.32-.57 3.79a3 3 0 002.24 1l8.57-.34c.33-.11.77-.31.82-.62s-.65-.86-2.94-2.14c-1-.55-2-1.13-3.79-2s-2.44-1.05-3.12-.8zm-5.88.1a1.65 1.65 0 00-.91.49 3.41 3.41 0 00-.91 2.16c-.22 1.1-.33 1.65 0 2 .42.52 1.28.44 1.67.41 1.67-.15 3.41-1.5 3.25-2.55 0-.21-.23-.42-.62-.84C3.64 9.79 3 9.1 2.22 9.19z" transform="translate(-.18)"/><path class="gcls-2" d="M5.4 14.51a1.54 1.54 0 00-1-.56 1.66 1.66 0 00-1.17.5 9.15 9.15 0 00-2.28 3 12.29 12.29 0 00-.82 2.43.73.73 0 00.25.53.67.67 0 00.53.08 24 24 0 003.68-.85c2.88-1.17 3.19-1 3.34-1.46.26-.6-.67-1.62-2.53-3.67z" transform="translate(-.18)"/><path class="gcls-1" d="M10.21 18.84a1.86 1.86 0 00-1.12-.44c-1.12.11-2 2.51-1.37 3.23.32.34 1 .24 1.51.15.3-.05 1.66-.27 1.88-1.11a1.43 1.43 0 00-.14-.91 2.13 2.13 0 00-.76-.92zm-.65-3.04a.79.79 0 00-.46.37c0 .14-.1.43.56 1.21.83 1 1.34 1.57 2 1.53.49 0 .91-.52 1.74-1.48.49-.57.63-.87.56-1.14a1 1 0 00-.5-.53c-1.08-.62-3.4-.08-3.9.04zm-2.39 5.95a2.17 2.17 0 00-1.09-1.29A2.55 2.55 0 004 20.7a3.91 3.91 0 00-2 1.71c-.62 1.48.78 4.12 3.94 5.69a1.28 1.28 0 001.19-.1 1.23 1.23 0 00.52-1.15A15.31 15.31 0 007.6 24a13.66 13.66 0 00-.43-2.25zm4.08.79a2.15 2.15 0 00-1.34-.28 1.93 1.93 0 00-1.12.92 4.2 4.2 0 00-.16 3.52 2 2 0 00.49.55 3.13 3.13 0 004.06-1.14 2.16 2.16 0 00.32-1.22c-.1-1.35-1.68-2.09-2.25-2.35z" transform="translate(-.18)"/><path class="gcls-2" d="M12.66 28.6c-.17-.38-.33-.64-.59-.71s-.42 0-.8.23c-1.13.62-1.69.93-1.79 1.37a1.1 1.1 0 00.1.7c.15.28.4.38 1.15.66.52.2.94.36 1.24.46.59.18.85 0 .95 0 .66-.53-.04-2.18-.26-2.71z" transform="translate(-.18)"/><path class="gcls-1" d="M16.86 25.5c-1.81.78-2.49.68-3.11 1.51a1.62 1.62 0 00-.39 1.14 1.78 1.78 0 00.59 1 12.72 12.72 0 003.82 2.62 1.67 1.67 0 00.67.13 2 2 0 00.83-.21c.69-.36.68-1.56 1.14-4 .25-1.31.42-1.86.06-2.37a1.84 1.84 0 00-1.12-.66c-.76-.14-1.13.25-2.49.84zM28 18a5.09 5.09 0 00-2.46-.24A4.16 4.16 0 0023 19.12a6.46 6.46 0 00-.89 2.61c-.38 1.68-.23 1.65-.63 3.68a10.23 10.23 0 00-.37 2.59c0 1.31.37 1.73.49 1.86a2.11 2.11 0 001.88.64 2.52 2.52 0 001.19-.67c2.41-2.11 1.79-1.37 2.58-2.19 1.88-2 3-3.09 3.59-5a3.53 3.53 0 00.27-2.37c-.5-1.45-2.4-2.05-3.11-2.27z" transform="translate(-.18)"/><path class="gcls-2" d="M32 15.59a.89.89 0 00-.34-.61c-.18-.1-.37-.07-1.09.19a4.3 4.3 0 00-1.71.82c-.21.21-.37.37-.39.6s.12.47.85 1.1c1 .82 1.46 1.23 2 1.12a1.1 1.1 0 00.57-.36A9.31 9.31 0 0032 16.8a11.44 11.44 0 000-1.21z" transform="translate(-.18)"/><path class="gcls-1" d="M29.19 10.22a1.94 1.94 0 00-1.13.6c-.87.82-1.56 2.45-.89 3.31.5.63 1.55.56 2.66.49a2 2 0 001.29-.34 2.37 2.37 0 00.12-2.74 2.32 2.32 0 00-2.05-1.32zM20.79 12c-.5.3-.61 1-.68 1.52a3.29 3.29 0 001.78 3.43l4.25.19a.85.85 0 00.41-.08 1 1 0 00.52-.87 1.29 1.29 0 00-.52-.88 30.92 30.92 0 00-2.36-2.06c-1.7-1.08-2.71-1.7-3.4-1.25z" transform="translate(-.18)"/><path class="gcls-2" d="M21.62 8.7a8.93 8.93 0 011.53-1.91c1.75-1.92 1.78-3.29 2.71-3.36.29 0 .73.08 1.31.71L28.67 8a1.93 1.93 0 010 1.25c-.17.45-.62.9-1.89 1.31a10.77 10.77 0 01-4.8.33 1.1 1.1 0 01-.75-.41c-.33-.48.09-1.24.39-1.78zm-1.96 7.23a2.7 2.7 0 00-1.48-.82c-.9-.13-1.58.39-2.67 1.14a11.35 11.35 0 00-3.15 3.87 2.08 2.08 0 00-.22.8 2.89 2.89 0 001 2.07c2 2 5.58 1.13 6.66.66a2.14 2.14 0 00.81-.57 2.7 2.7 0 00.49-1.86c-.02-2.17-.1-4.01-1.44-5.29zM4.94 4.64c-.64 0-1.06.76-1.71 1.91-.52.94-.51 1.2-.48 1.34.08.48.45.75 1 1.16a2.86 2.86 0 002.37.76 1.31 1.31 0 00.4-.19c1-.8-.77-4.44-.92-4.74a1.06 1.06 0 00-.66-.24z" transform="translate(-.18)"/></svg><svg data-name="Слой 1" viewBox="0 0 31.91 30.55" id="tourism-icon1.4" xmlns="http://www.w3.org/2000/svg"><path d="M20.57 13.01a2.8 2.8 0 00-.2-.32.35.35 0 00-.05-.08c-.23-.35-.48-.67-.68-1-.06-.1-.14-.2-.2-.31l-.42-.63c-.19-.27-.35-.55-.53-.82s-.48-.73-.73-1.1c-.1-.14-.18-.3-.29-.44s-.24-.35-.34-.53c-.42-.67-.88-1.3-1.29-2-.09-.13-.18-.26-.26-.39s-.26-.38-.38-.58-.39-.58-.57-.88-.47-.68-.68-1l-.34-.5c-.09-.15-.19-.29-.29-.44s-.32-.51-.49-.76-.5-.8-.8-1.16c-.23 0-.26.21-.37.32l-.39.59-.57.86-.11.17-.67 1c-.05.08-.1.17-.16.25-.15.23-.3.46-.46.68l-.49.61a2.13 2.13 0 01-.16.25c-.21.3-.4.61-.61.91l-.26.39c-.13.19-.23.4-.38.58s-.37.58-.57.86a.91.91 0 01-.11.16c-.2.32-.41.63-.62 1l-.2.3-.48.71-.47.7a1.07 1.07 0 01-.15.22l-.59.92a1.15 1.15 0 01-.2.29c-.16.2-.26.44-.42.64s-.41.64-.62.95l-.02.05-.66 1-.2.31-.44.66c-.16.24-.33.48-.48.72a1.32 1.32 0 01-.16.25l-.6.91a1.46 1.46 0 01-.21.28c-.11.08-.09.22-.16.32v12.54l.08.08h9.45zM3 17.18l9-13.7 5.76 8.71-3.67.36-.78 5.45-4.45-5zM31.43 18.28c-.11-.18-.23-.35-.35-.53l-.29-.43-.57-.86a2.13 2.13 0 01-.16-.25l-.52-.77-.44-.66-.2-.3c-.22-.34-.45-.66-.66-1l-.06-.08c-.2-.31-.41-.61-.61-.91s-.23-.35-.35-.53-.2-.28-.3-.43c-.2-.3-.41-.6-.61-.91l-.11-.16a5.85 5.85 0 00-.6-.81h-.11l-13.47 20.9h19.69a2.13 2.13 0 00.87-.07v-11.4c-.79-.29-1-.53-1.15-.8zm-4.54 1.83l-2.38 2.76-.68-4-2.75.95 4.51-6.84 6.36 9.57z"/></svg><svg id="tourism-icon1.5" data-name="Слой 1" viewBox="0 0 32 26.99" xmlns="http://www.w3.org/2000/svg"><defs><style>.icls-1{fill:#225ca8}</style></defs><path class="icls-1" d="M6.76 10.61l4.14 4.07 3.48 12.94-7.22 1a4.85 4.85 0 00.13-3c-.4-1.3-1.33-2-2.89-3.22-1.07-.86-2.59-2.12-4.4-3.75 1.46.25 2-.26 2.17-.39.93-.91.62-3.35-1.38-5.71l5.05.78zm12.17-3.98c-.55-.31-.72-.81-1.54-2.43-.58-1.14-1.08-2.05-1.39-2.59-.31.54-.81 1.45-1.39 2.59-.82 1.62-1 2.12-1.54 2.43-.3.17-1.28.6-3.28-.49L16 28.6l6.21-22.46c-2 1.09-2.98.66-3.28.49zm6.31 3.98l-4.14 4.07-3.48 12.94 7.22 1a4.85 4.85 0 01-.13-3c.4-1.3 1.33-2 2.89-3.22 1.07-.86 2.59-2.12 4.4-3.75-1.46.25-2-.26-2.17-.39-.93-.91-.62-3.35 1.38-5.71l-5.05.78z" transform="translate(0 -1.61)"/><path d="M12.82 13.06l1.56-1.86.67.62 3-4.14L19.66 10 16 24.59z" transform="translate(0 -1.61)"/></svg><svg id="tourism-icon1.6" data-name="Слой 1" viewBox="0 0 32 27.08" xmlns="http://www.w3.org/2000/svg"><defs><style>.jcls-2{fill:#95c11f}</style></defs><path d="M32 12.8c-.05.28-.1.56-.16.85A11.52 11.52 0 0129.08 19 29.18 29.18 0 0125 22.79a1.23 1.23 0 01-1.8-.17 1.25 1.25 0 01.24-1.8c1.07-.94 2.17-1.85 3.19-2.84a9.13 9.13 0 002.56-4 6.77 6.77 0 00-1.65-7.09 5.43 5.43 0 00-3.68-1.54 6.75 6.75 0 00-2.92.4 5.36 5.36 0 00-3.2 3.33 11.49 11.49 0 00-.44 1.75 1.26 1.26 0 01-2.5 0A6.78 6.78 0 0013 7a5.26 5.26 0 00-3.14-1.55 6.44 6.44 0 00-4.37.72 5.9 5.9 0 00-2.8 4.06 7.48 7.48 0 001.46 6.27 23 23 0 004.58 4.4c1.66 1.3 3.36 2.55 5 3.86.77.61 1.49 1.29 2.26 2l.23-.2c.67-.6 1.33-1.2 2-1.78a1.26 1.26 0 111.61 1.92A26.36 26.36 0 0017 29.43a1.19 1.19 0 01-1.84.07 38 38 0 00-6.19-5.28 45.88 45.88 0 01-5-4.2A14.51 14.51 0 011 16.1a9.67 9.67 0 01-.9-5.7 9.16 9.16 0 011.42-3.86 7.92 7.92 0 015-3.46 9 9 0 017.22 1.27 7.59 7.59 0 011.87 1.92l.34.51c.21-.29.38-.56.57-.81a7.83 7.83 0 015.55-3.06 9.13 9.13 0 015.1.79 8 8 0 014.21 4.75 20.31 20.31 0 01.52 2.34.75.75 0 00.06.13z" transform="translate(0 -2.83)"/><path class="jcls-2" d="M21.4 27.56a.76.76 0 01-.76-.76V12.08a.76.76 0 011.52 0V26.8a.76.76 0 01-.76.76z" transform="translate(0 -2.83)"/><path class="jcls-2" d="M18.51 16.57a.76.76 0 01-.65-.36.77.77 0 01.24-1.05 6.09 6.09 0 001.67-1.53 6.25 6.25 0 00.91-1.78.75.75 0 01.95-.5.77.77 0 01.5 1A7.84 7.84 0 0121 14.54a7.43 7.43 0 01-2.08 1.91.77.77 0 01-.41.12zm.12 3.63a.76.76 0 01-.37-1.43 5.4 5.4 0 001.4-1.11 5.55 5.55 0 001-1.65.76.76 0 011.41.58 7.12 7.12 0 01-1.32 2.09A6.84 6.84 0 0119 20.1a.69.69 0 01-.37.1zm0 3.54a.78.78 0 01-.66-.39.76.76 0 01.29-1 5.62 5.62 0 001.4-1.11 5.68 5.68 0 001-1.65.76.76 0 111.41.58A7.09 7.09 0 0119 23.64a.79.79 0 01-.37.1z" transform="translate(0 -2.83)"/><path class="jcls-2" d="M24.3 16.57a.72.72 0 01-.4-.12 7.33 7.33 0 01-2.09-1.91 7.5 7.5 0 01-1.13-2.24.75.75 0 01.49-1 .76.76 0 011 .5 5.77 5.77 0 00.83 1.83 5.91 5.91 0 001.66 1.53.77.77 0 01.24 1.05.75.75 0 01-.6.36zm-.13 3.63a.71.71 0 01-.37-.1 7 7 0 01-1.8-1.42 6.89 6.89 0 01-1.31-2.09.76.76 0 011.42-.59 5.51 5.51 0 002.43 2.75.76.76 0 01.29 1 .74.74 0 01-.66.45zm0 3.54a.82.82 0 01-.37-.1 7.23 7.23 0 01-1.8-1.42 6.94 6.94 0 01-1.31-2.1.76.76 0 111.41-.57 5.45 5.45 0 001 1.65 5.62 5.62 0 001.4 1.11.76.76 0 01-.37 1.43z" transform="translate(0 -2.83)"/></svg></svg>